<?xml version="1.0" encoding="UTF-8"?>
<svg width="512px" height="512px" viewBox="0 0 512 512" version="1.1" xmlns="http://www.w3.org/2000/svg" xmlns:xlink="http://www.w3.org/1999/xlink">
    <!-- Generator: Sketch 54.1 (76490) - https://sketchapp.com -->
    <title>homebrew-logo</title>
    <desc>Created with Sketch.</desc>
    <g id="homebrew-logo" stroke="none" stroke-width="1" fill="none" fill-rule="evenodd">
        <g id="Homebrew_logo" transform="translate(90.000000, 0.000000)">
            <g id="Path" transform="translate(25.961678, 0.779868)">
                <g id="Group" transform="translate(48.600442, 0.000000)">
                    <path d="M63.2144812,95.158911 C64.6084474,50.9155556 49.704312,24.8314349 6.85869021,7.600883 C-5.31967623,50.1997351 44.9572921,89.477557 63.2144812,95.158911 Z" id="Path" fill="#D1D3D4"></path>
                    <path d="M67.7237963,95.300985 C69.2111163,48.094654 52.2052761,20.9744995 8.54200957,3.41512824 L3.8970655,1.54714392 L2.52091983,6.36078017 C-3.43879122,27.207324 3.76942193,48.619359 20.1699504,68.1272005 C32.7288434,83.0655541 50.4089022,95.8989593 61.8739617,99.4667079 L67.5370246,101.228965 L67.7237963,95.300985 Z M27.0765544,62.3207171 C13.8148891,46.546441 7.44578772,29.8660989 10.0727176,13.8494583 C44.5072626,29.0506827 58.48877,50.8415669 58.7866095,88.4261922 C49.1988008,83.5468641 36.531937,73.5675562 27.0765544,62.3207171 Z" id="Path" fill="#000000" fill-rule="nonzero"></path>
                </g>
                <path d="M228.009536,170.13922 C229.403503,133.809448 220.227815,119.146431 213.340868,108.661545 C206.354084,98.8811773 189.588815,83.5098749 168.99014,82.8656365 C149.510405,82.2553054 144.825548,93.022752 126.854687,93.6726416 C123.908521,60.9483444 148.60621,42.9906696 148.60621,42.9906696 C148.60621,42.9906696 141.85301,33.4457689 136.265843,31.1137013 C128.229816,38.2549522 106.110964,62.0748197 111.22908,92.7270052 C94.6936277,89.5660927 83.0219868,80.1021928 65.6520383,83.5192936 C41.988521,88.175894 22.4824135,102.482884 11.3645916,133.877263 C0.248653422,165.273525 15.288418,201.900927 18.5585872,212.361325 C21.8306402,222.831141 46.0310228,267.298661 64.9983812,273.842767 C83.961972,280.388756 83.9676233,277.438823 94.1059014,273.51688 C104.246063,269.593054 119.611714,262.399058 142.182664,270.576365 C164.740427,278.749904 167.682826,280.708992 181.741163,271.554025 C195.810802,262.400942 214.118852,233.950846 218.366681,225.773539 C222.618278,217.6 224.908904,213.346519 226.221869,209.096806 C239.890272,202.275791 226.754967,202.697748 228.009536,170.13922 Z" fill="#D1D3D4"></path>
                <path d="M141.273586,57.2808662 C143.505094,54.1718557 145.895193,51.4787411 148.275254,49.2197212 C149.67239,47.8936378 150.724535,47.0284999 151.259364,46.6396259 L154.861448,44.0205529 L152.289161,40.3849109 C151.973949,39.9393932 151.427625,39.2021957 150.693267,38.2677018 C149.474674,36.7170043 148.158066,35.1652928 146.780079,33.7031859 C144.961682,31.7737834 143.167724,30.1398188 141.397921,28.8820224 C140.257892,28.071806 139.132596,27.4214924 138.003646,26.9502717 L135.387801,25.8584253 L133.268972,27.7413323 C116.910714,42.2781709 104.637133,63.2298468 106.028691,86.8226181 C103.688106,86.132038 101.07197,85.2386983 97.6750368,84.0114195 C98.1236266,84.1734811 95.4691132,83.212851 94.8049805,82.9744439 C93.7119737,82.5820817 92.7943636,82.2585823 91.9106216,81.9558048 C81.4934205,78.3867834 73.8667777,77.3052261 64.7811948,79.0925862 C37.491057,84.4628473 18.0423982,101.50562 7.1118358,132.371217 C5.20608685,137.753883 3.96170596,143.433988 3.32536822,149.380077 C1.70079256,164.560494 3.96924171,180.344908 8.91673716,197.266763 C10.4294199,202.440572 14.5658294,214.709583 14.2525524,213.707494 C20.3159832,233.109076 46.371914,272.188803 63.5269261,278.107615 C75.9835693,282.407489 81.5603187,283.133587 87.4017966,281.179628 C88.913947,280.673818 94.3724982,278.251174 95.7332114,277.724726 C95.4661459,277.82804 100.118047,275.9987 101.514871,275.476681 C114.976089,270.445976 126.160178,269.570036 140.645904,274.818119 C161.63452,282.423097 163.545366,282.961177 170.171999,281.802025 C174.349477,281.071287 178.310696,279.171838 184.203128,275.334611 C196.441516,267.37286 214.55785,242.892636 222.370282,227.853272 C227.479952,218.030121 228.891873,215.234489 229.937842,212.249143 C231.957048,211.14846 233.382207,210.151843 234.477237,209.022906 C236.785256,206.643419 237.397859,203.906966 236.762954,200.610177 C236.508873,199.290845 234.872713,193.911277 234.57147,192.759283 C232.935386,186.502696 232.158777,179.628817 232.517743,170.312934 C233.699704,139.508482 228.869851,124.085614 217.111713,106.184684 C206.472493,91.2855564 188.161574,78.9514783 169.131173,78.3562888 C159.720724,78.0614445 154.293038,79.6111088 144.51817,84.1384531 L144.432368,84.1781937 C138.672133,86.8461387 135.151,88.1792939 131.121081,88.7801654 C130.995983,76.8181968 134.78922,66.3150977 141.273586,57.2808662 Z M17.5772718,194.734656 C12.9318502,178.84598 10.8195532,164.14811 12.2972431,150.340228 C12.861038,145.071995 13.9549943,140.07852 15.6174561,135.383002 C25.4918082,107.49992 42.3857989,92.6957916 66.5231335,87.9459515 C73.7813037,86.5180889 79.9346223,87.3907097 88.9861086,90.4918256 C89.8230901,90.7785826 90.7013995,91.0882267 91.7563858,91.4669405 C92.4094942,91.7013901 95.0598254,92.660512 94.6055726,92.4963962 C101.495365,94.9856825 105.495425,96.2242049 110.381991,97.1583196 L116.746142,98.3748887 L115.679026,91.9839801 C112.11159,70.6187508 122.302106,50.7084421 136.832598,36.7327981 C137.881015,37.5569847 139.024817,38.6303524 140.213683,39.8917943 C140.948454,40.6714195 141.671879,41.4916426 142.370575,42.3273378 C139.814245,44.7045753 136.872393,47.9384617 133.943231,52.0194665 C125.472284,63.8214681 120.906168,77.9143334 122.361308,94.0771803 L122.744709,98.3357747 L127.017734,98.181247 C134.810847,97.8994206 139.490864,96.4108783 148.224556,92.3657291 L148.310328,92.3260021 C156.922267,88.3372821 161.138824,87.1334088 168.848855,87.3749763 C184.666591,87.8696874 200.620006,98.6157707 209.66981,111.284033 C220.346287,127.5445 224.606978,141.1499 223.501301,169.96624 C223.107755,180.179522 223.984383,187.938676 225.841898,195.042046 C226.248808,196.598123 227.755303,201.55136 227.902659,202.316518 C228.018073,202.915814 228.074362,202.664376 228.000414,202.740614 C227.505053,203.251313 226.321469,204.004978 224.207357,205.059995 L222.480911,205.921552 L221.911353,207.765056 C220.918099,210.979949 220.120303,212.625755 214.364228,223.691599 C207.212507,237.459058 189.884403,260.874162 179.280942,267.772303 C174.323644,271.000558 171.319133,272.441255 168.617255,272.913876 C164.360313,273.658514 162.439704,273.117684 143.719591,266.334672 C126.961553,260.263345 113.66024,261.305106 98.3561459,267.024528 C96.8734218,267.57865 92.1410375,269.439653 92.4777619,269.309355 C90.749605,269.977884 85.5598936,272.281225 84.5394769,272.622552 C81.0618025,273.785825 77.2054882,273.283729 66.470476,269.57814 C52.7656563,264.849711 28.1523061,227.933768 22.8648901,211.016013 C23.1247728,211.84766 19.026969,199.693036 17.5772718,194.734656 Z" fill="#000000" fill-rule="nonzero"></path>
            </g>
            <g id="Group" transform="translate(27.845416, 215.149257)">
                <path d="M262.841737,221.282708 C271.855423,221.314731 280.511199,217.758234 286.895188,211.396851 C293.28106,205.035467 296.869581,196.392877 296.869581,187.379191 C296.873348,152.957645 296.873348,99.7665342 296.873348,65.2508021 C296.873348,56.2578366 293.301781,47.6340839 286.942281,41.2745843 C280.582781,34.9150846 271.959029,31.3435173 262.966063,31.3435173 L235.015158,31.3435173 C230.853981,31.3435173 227.480206,27.9697425 227.480206,23.8085651 L227.480206,6.04491538 L7.0263429,6.04491538 C7.0263429,6.04491538 7.51234731,233.108815 7.58204562,266.402001 C7.58769684,268.969536 8.90066225,271.36 11.066961,272.74078 C20.8850037,278.425901 52.3603826,289.223488 118.447564,289.223488 C185.93248,289.223488 216.098661,274.767682 224.7356,268.24053 C226.451685,266.816424 227.444415,264.70287 227.444415,262.472524 C227.480206,255.267226 227.480206,238.571656 227.480206,228.708403 C227.480206,226.683385 228.295865,224.743135 229.742575,223.326564 C231.189286,221.908109 233.14649,221.133893 235.171508,221.175335 C243.46184,221.292127 253.39479,221.30908 262.841737,221.282708 Z M227.480206,70.9491096 C227.480206,68.451273 228.472936,66.0551582 230.237999,64.2882119 C232.004945,62.5231494 234.40106,61.5304194 236.898896,61.5304194 L260.893951,61.5304194 C263.391788,61.5304194 265.787903,62.5231494 267.554849,64.2882119 C269.319912,66.0551582 270.312642,68.451273 270.312642,70.9491096 L270.312642,180.554408 C270.312642,183.052244 269.319912,185.448359 267.554849,187.215305 C265.787903,188.980368 263.391788,189.973098 260.893951,189.973098 L236.898896,189.973098 C234.40106,189.973098 232.004945,188.980368 230.237999,187.215305 C228.472936,185.448359 227.480206,183.052244 227.480206,180.554408 L227.480206,70.9491096 Z" id="Shape" fill="#FFFFFF" fill-rule="nonzero"></path>
                <path d="M262.825708,225.794232 L262.854331,225.794243 C252.081471,225.824317 242.691155,225.79327 235.079198,225.685943 C234.265187,225.669284 233.480272,225.980167 232.898969,226.550115 C232.318958,227.118043 231.991759,227.896393 231.991759,228.708403 C231.991759,235.500516 231.991286,239.123374 231.989133,243.490498 C231.984801,252.279835 231.974539,258.745094 231.955968,262.472524 C231.955968,266.044962 230.365708,269.431042 227.455702,271.839857 C211.257904,284.08094 174.085539,293.73504 118.447564,293.73504 C63.3786912,293.73504 25.4521194,286.283809 8.64203682,276.545231 C5.17936237,274.338153 3.07954095,270.517747 3.0705029,266.411446 C3.04210511,252.846513 2.94377291,206.706068 2.79752725,138.260617 L2.79679376,137.917329 C2.73510776,109.047407 2.66901562,78.1367274 2.60292348,47.240302 L2.5390344,17.3785086 L2.51480062,6.05457182 L2.50512349,1.53336277 L231.991759,1.53336277 L231.991759,23.8085651 C231.991759,25.4780808 233.345643,26.8319647 235.015158,26.8319647 L262.966063,26.8319647 C273.155921,26.8319647 282.927101,30.8791055 290.132431,38.0844348 C297.33776,45.2897642 301.384901,55.0609442 301.384901,65.2508021 C301.384901,93.3952117 301.384817,108.246215 301.384433,126.185042 C301.383899,151.172265 301.382854,171.654796 301.381133,187.379191 C301.381133,197.592943 297.314536,207.385536 290.079674,214.592653 C282.846626,221.80009 273.039399,225.830519 262.825708,225.794232 Z M11.5475608,10.556468 L11.562119,17.3592005 L11.6260081,47.2210002 C11.6921002,78.1174325 11.7581924,109.028119 11.8198784,137.89805 L11.8206119,138.241337 C11.966858,206.687011 12.0651901,252.827424 12.0935873,266.392071 C12.0958564,267.422993 12.6233668,268.382743 13.3277078,268.836535 C28.3774368,277.551055 64.8261269,284.711935 118.447564,284.711935 C172.284641,284.711935 207.590396,275.542616 221.854502,264.768731 C222.537838,264.20166 222.932862,263.36055 222.932918,262.450114 C222.951455,258.718331 222.961704,252.261778 222.966029,243.486051 C222.968181,239.120869 222.968653,235.499073 222.968653,228.708403 C222.968653,225.470436 224.272729,222.368267 226.584041,220.10511 C228.896627,217.837692 232.025445,216.598453 235.23506,216.66423 C242.758926,216.770224 252.102709,216.801117 262.829142,216.771173 L262.857765,216.771184 C270.673197,216.79895 278.177012,213.715143 283.711173,208.200579 C289.246711,202.686268 292.358028,195.194044 292.358028,187.378697 C292.359749,171.654127 292.360794,151.171829 292.361328,126.184849 C292.361712,108.246107 292.361795,93.395149 292.361795,65.2508021 C292.361795,57.4539596 289.265258,49.9778596 283.752132,44.4647337 C278.239006,38.9516078 270.762906,35.8550699 262.966063,35.8550699 L235.015158,35.8550699 C228.362319,35.8550699 222.968653,30.4614042 222.968653,23.8085651 L222.968653,10.556468 L11.5475608,10.556468 Z M222.968653,70.9491096 C222.968653,67.255889 224.435819,63.7128793 227.049551,61.0963615 C229.662666,58.4860324 233.205676,57.0188668 236.898896,57.0188668 L260.893951,57.0188668 C264.587172,57.0188668 268.130182,58.4860324 270.7467,61.0997643 C273.357029,63.7128793 274.824194,67.255889 274.824194,70.9491096 L274.824194,180.554408 C274.824194,184.247628 273.357029,187.790638 270.743297,190.407156 C268.130182,193.017485 264.587172,194.48465 260.893951,194.48465 L236.898896,194.48465 C233.205676,194.48465 229.662666,193.017485 227.046148,190.403753 C224.435819,187.790638 222.968653,184.247628 222.968653,180.554408 L222.968653,70.9491096 Z M231.991759,70.9491096 L231.991759,180.554408 C231.991759,181.855664 232.509207,183.105233 233.426446,184.023455 C234.348071,184.944097 235.59764,185.461545 236.898896,185.461545 L260.893951,185.461545 C262.195208,185.461545 263.444777,184.944097 264.362999,184.026858 C265.283641,183.105233 265.801089,181.855664 265.801089,180.554408 L265.801089,70.9491096 C265.801089,69.6478529 265.283641,68.3982839 264.366402,67.4800623 C263.444777,66.5594204 262.195208,66.041972 260.893951,66.041972 L236.898896,66.041972 C235.59764,66.041972 234.348071,66.5594204 233.429849,67.4766595 C232.509207,68.3982839 231.991759,69.6478529 231.991759,70.9491096 Z" id="Shape" fill="#000000" fill-rule="nonzero"></path>
                <path d="M28.7590287,3.85977925 L28.7590287,237.416924 C28.7590287,240.112553 30.1982046,242.602855 32.532156,243.947844 C42.0657542,248.49142 69.7227962,259.3361 118.212097,259.3361 C167.023517,259.3361 193.859249,246.159352 202.84468,240.728536 C204.990258,239.345872 206.286269,236.966711 206.286269,234.41613 C206.30699,203.445592 206.30699,3.85977925 206.30699,3.85977925 L28.7590287,3.85977925 Z" id="Path1" fill="#FBB040"></path>
                <g id="Path2" transform="translate(53.874908, 43.019868)" fill="#FFDB96" fill-rule="nonzero">
                    <path d="M-9.4691159,0.39837045 L-9.4691159,180.890582 C-9.4691159,186.662258 -4.79024824,191.341125 0.98142752,191.341125 C6.75310328,191.341125 11.4319709,186.662258 11.4319709,180.890582 L11.4319709,0.39837045 C11.4319709,-5.37330531 6.75310328,-10.052173 0.98142752,-10.052173 C-4.79024824,-10.052173 -9.4691159,-5.37330531 -9.4691159,0.39837045 Z" id="Path"></path>
                </g>
            </g>
            <g id="Path3" transform="translate(1.473083, 130.757792)">
                <path d="M181.541486,136.179191 C181.541486,132.411714 179.324327,127.913348 175.683061,125.654746 C169.758705,122.069993 165.126593,116.571361 162.606152,110.01972 C114.399411,111.641619 70.3990581,103.1761 48.2331126,97.1989993 C42.54234,95.5865195 36.7781015,94.2471818 30.957351,93.1866372 C17.690184,90.5550552 7.60653422,78.9041354 7.60653422,64.8966593 C7.60653422,49.4782634 19.8395291,36.9495217 35.1241795,36.4013539 C38.0722296,20.0938337 52.3057542,7.71390728 69.4628403,7.71390728 C88.7560854,7.71390728 104.394879,23.356468 104.394879,42.6478293 C104.394879,46.7072848 103.662104,50.5934364 102.390581,54.2215158 L102.494187,54.2384695 C106.802296,40.7640912 119.415806,31.000677 134.321825,31.000677 C149.131773,31.000677 161.677469,40.6491832 166.059043,53.997351 C165.932833,52.7936424 165.868786,51.5692127 165.868786,50.329713 C165.868786,30.2641354 182.13298,13.9999411 202.19479,13.9999411 C218.43638,13.9999411 232.182016,24.6600147 236.832965,39.3588227 L239.999529,38.5337454 C244.139985,36.199794 248.907726,34.8510375 253.99947,34.8510375 C269.764474,34.8510375 282.545636,47.6322001 282.539985,63.3934364 C282.539985,77.8341722 271.819632,89.7676527 257.902575,91.6721118 C254.751082,92.1185578 251.659868,92.9210302 248.689213,94.0644592 C240.417719,97.1820456 231.959735,99.7665342 223.415099,101.898926 C222.989375,106.110964 221.734805,110.078116 219.819043,113.636497 C216.352965,120.139161 214.798882,127.491391 215.335747,134.841737 C215.331979,135.286299 215.348933,137.614599 215.348933,138.062929 C215.348933,147.398734 207.783841,153.080088 198.4405,153.080088 C189.110346,153.080088 181.541486,145.51688 181.541486,136.179191 Z" id="Path" fill="#FFFFFF"></path>
                <path d="M223.800336,115.758623 C220.735153,121.509172 219.360452,128.011658 219.835313,134.513091 L219.847137,134.879969 C219.845784,135.039697 219.84769,135.557012 219.852425,136.428495 L219.85355,136.633595 C219.8587,137.542939 219.860486,137.887441 219.860486,138.062929 C219.860486,149.71513 210.547451,157.591641 198.4405,157.591641 C186.616596,157.591641 177.029934,148.006454 177.029934,136.179191 C177.029934,133.761623 175.447301,130.81749 173.347463,129.51468 C167.468994,125.957692 162.730127,120.773136 159.698879,114.61851 C119.55843,115.625622 78.2712924,109.971555 47.0031852,101.539666 C41.4468943,99.9652914 35.8231429,98.6590141 30.0795722,97.6119747 C14.519356,94.5255595 3.0949816,80.8779732 3.0949816,64.8966593 C3.0949816,48.2833559 15.3831452,34.4910169 31.4537711,32.2038992 C36.0740374,15.3061305 51.4984995,3.20235467 69.4628403,3.20235467 C89.2179721,3.20235467 105.581165,17.7272544 108.457811,36.6794349 C115.293858,30.3055468 124.437776,26.4891244 134.321825,26.4891244 C145.541543,26.4891244 155.811376,31.4118032 162.83089,39.4182132 C167.603361,22.1596531 183.419286,9.48838852 202.19479,9.48838852 C218.56129,9.48838852 233.044638,19.2040529 239.502889,33.6992699 C243.986394,31.5040438 248.913362,30.3394849 253.99947,30.3394849 C272.256743,30.3394849 287.058082,45.1414995 287.051538,63.3934364 C287.051538,79.9675586 274.787752,93.9150834 258.535372,96.1390656 C255.721119,96.5377373 252.961341,97.2542995 250.280382,98.2861044 C242.950472,101.048801 235.334765,103.455817 227.439779,105.525996 C226.75006,109.117649 225.520074,112.564404 223.800336,115.758623 Z M215.846617,111.497822 C217.517144,108.394945 218.567808,104.993242 218.926416,101.445239 L219.245367,98.2896003 L222.322704,97.521623 C230.937951,95.3716098 239.199465,92.819846 247.068586,89.8540344 C250.357234,88.5882075 253.779812,87.6995527 257.290899,87.2022171 C269.110104,85.5848354 278.028433,75.4420777 278.028433,63.3918187 C278.03319,50.1234832 267.272788,39.3625901 253.99947,39.3625901 C249.82389,39.3625901 245.805592,40.4398635 242.214933,42.4638971 L241.704304,42.7517356 L233.824204,44.8049682 L232.531603,40.719846 C228.381506,27.6039284 216.167753,18.5114937 202.19479,18.5114937 C184.624132,18.5114937 170.380338,32.7563073 170.380338,50.329713 C170.380338,51.4086938 170.435828,52.4761551 170.545999,53.5268877 L174.953001,95.5578482 L161.77252,55.4044146 C157.907647,43.6303417 146.895496,35.5122296 134.321825,35.5122296 C121.66024,35.5122296 110.589559,43.7331211 106.79144,55.612413 L105.60626,59.319274 L96.3539927,57.8052666 L98.1329354,52.7293502 C99.2848504,49.4425528 99.883326,46.0621747 99.883326,42.6478293 C99.883326,25.8470069 86.263301,12.2254599 69.4628403,12.2254599 C54.7035009,12.2254599 42.162491,22.828778 39.5637705,37.2039368 L38.9173366,40.7797695 L35.2858776,40.9100079 C22.3758519,41.3730123 12.1180868,51.9593836 12.1180868,64.8966593 C12.1180868,76.5352641 20.4644913,86.5058998 31.7660452,88.7481554 C37.7245073,89.8337911 43.629399,91.2053713 49.407709,92.8430344 C80.598386,101.253676 122.318464,106.86108 162.454448,105.510719 L165.663867,105.402739 L166.816865,108.399843 C168.967305,113.989701 172.92492,118.712655 178.061151,121.820845 C182.899868,124.822202 186.053039,130.687967 186.053039,136.179191 C186.053039,143.02282 191.599609,148.568536 198.4405,148.568536 C205.867799,148.568536 210.83738,144.365506 210.83738,138.062929 C210.83738,137.914744 210.835733,137.596979 210.830583,136.683544 L210.829452,136.477511 C210.825451,135.740896 210.823437,135.271118 210.823645,134.99382 C210.262244,126.852515 211.999028,118.716151 215.846617,111.497822 Z" id="Path" fill="#000000" fill-rule="nonzero"></path>
            </g>
        </g>
    </g>
</svg>