<?xml version="1.0" encoding="UTF-8"?>
<svg width="512px" height="512px" viewBox="0 0 512 512" version="1.1" xmlns="http://www.w3.org/2000/svg" xmlns:xlink="http://www.w3.org/1999/xlink">
    <!-- Generator: Sketch 54.1 (76490) - https://sketchapp.com -->
    <title>pixijs-logo</title>
    <desc>Created with Sketch.</desc>
    <g id="pixijs-logo" stroke="none" stroke-width="1" fill="none" fill-rule="evenodd">
        <g id="logo.1de8c964" transform="translate(0.000000, 166.000000)" fill="#EA1E63" fill-rule="nonzero">
            <path d="M135.976261,39.1976261 C148.58635,39.1976261 156.486647,30.6896142 156.486647,20.2065282 C156.334718,9.115727 148.58635,0.9115727 136.280119,0.9115727 C123.973887,0.9115727 115.921662,9.115727 116.225519,20.2065282 C115.921662,30.6896142 123.973887,39.1976261 135.976261,39.1976261 Z" id="Path"></path>
            <path d="M287.297329,0.9115727 C274.991098,0.9115727 266.938872,9.115727 267.24273,20.2065282 C266.938872,30.6896142 274.991098,39.1976261 286.993472,39.1976261 C299.603561,39.1976261 307.503858,30.6896142 307.503858,20.2065282 C307.351929,9.115727 299.603561,0.9115727 287.297329,0.9115727 Z" id="Path"></path>
            <path d="M268.154303,54.2385757 L233.818398,54.2385757 L223.031454,73.9893175 C219.84095,80.0664688 216.802374,86.295549 213.459941,92.8284866 L213.004154,92.8284866 C209.81365,87.0551929 206.471217,80.8261128 202.976855,74.5970326 L190.974481,54.2385757 L155.271217,54.2385757 L148.282493,54.2385757 L121.391098,54.2385757 C120.023739,39.95727 113.186944,27.8029674 103.61543,20.2065282 C92.3727003,11.24273 75.5086053,6.68486647 51.9596439,6.68486647 C28.7145401,6.68486647 12.1543027,8.2041543 0.303857567,10.1792285 L0.303857567,176.845104 L38.1341246,176.845104 L38.1341246,116.529377 C41.6284866,116.985163 46.1863501,117.289021 51.2,117.289021 C73.8373887,117.289021 93.1323442,111.819585 106.046291,99.5133531 C110.908012,94.9554896 114.554303,89.3341246 117.137092,82.9531157 L117.137092,176.997033 L147.37092,176.997033 L155.271217,176.997033 L189.151335,176.997033 L200.697923,154.967359 C203.736499,148.890208 206.927003,142.964985 209.965579,136.432047 L210.725223,136.432047 C213.763798,142.661128 216.802374,148.890208 220.296736,154.967359 L232.602967,176.997033 L268.154303,176.997033 L275.750742,176.997033 L306.288427,176.997033 L306.288427,54.2385757 L275.294955,54.2385757 L268.154303,54.2385757 Z M50.8961424,87.8148368 C45.4267062,87.8148368 41.3246291,87.5109792 38.1341246,86.7513353 L38.1341246,37.0706231 C40.8688427,36.3109792 46.1863501,35.5513353 53.9347181,35.5513353 C72.925816,35.5513353 83.7127596,44.8189911 83.7127596,60.315727 C83.7127596,77.6356083 71.2545994,87.8148368 50.8961424,87.8148368 Z M155.271217,164.994659 L155.271217,64.5697329 L188.999407,114.554303 L155.271217,164.994659 Z M234.881899,112.731157 L268.154303,64.5697329 L268.154303,165.146588 L234.881899,112.731157 Z" id="Shape"></path>
            <path d="M467.636795,76.5721068 C445.75905,68.3679525 436.339466,63.5062315 436.339466,52.7192878 C436.339466,43.9074184 444.391691,36.462908 460.951929,36.462908 C477.512166,36.462908 489.51454,41.1727003 496.351335,44.5151335 L504.707418,13.6735905 C494.680119,9.115727 480.702671,5.16557864 461.559644,5.16557864 C426.464095,5.16557864 403.674777,22.3335312 398.661128,46.0344214 L398.661128,7.90029674 L360.527003,7.90029674 L360.527003,114.250445 C360.527003,140.534125 350.499703,147.826706 334.395252,147.826706 C326.798813,147.826706 320.113947,146.611276 314.796439,144.788131 L310.542433,175.629674 C318.138872,178.060534 329.533531,179.579822 338.345401,179.579822 C375.416024,179.579822 398.509199,162.715727 398.509199,114.706231 L398.509199,65.6332344 C402.763205,84.7762611 419.6273,97.3863501 443.935905,105.894362 C464.294362,113.186944 472.194659,119.112166 472.194659,129.747181 C472.194659,140.837982 462.927003,147.978635 445.303264,147.978635 C429.046884,147.978635 413.246291,142.661128 402.915134,137.495549 L395.166766,169.096736 C404.738279,174.414243 423.729377,179.427893 443.024332,179.427893 C489.362611,179.427893 511.240356,155.423145 511.240356,127.012463 C511.544214,103.159644 497.414837,87.662908 467.636795,76.5721068 L467.636795,76.5721068 Z" id="Path"></path>
        </g>
    </g>
</svg>