<?xml version="1.0" encoding="UTF-8"?>
<svg width="512px" height="512px" viewBox="0 0 512 512" version="1.1" xmlns="http://www.w3.org/2000/svg" xmlns:xlink="http://www.w3.org/1999/xlink">
    <!-- Generator: Sketch 54.1 (76490) - https://sketchapp.com -->
    <title>react-spring-logo</title>
    <desc>Created with Sketch.</desc>
    <defs>
        <radialGradient cx="33.434401%" cy="32.3892028%" fx="33.434401%" fy="32.3892028%" r="64.0150274%" gradientTransform="translate(0.334344,0.323892),scale(1.000000,0.998082),rotate(54.654716),translate(-0.334344,-0.323892)" id="radialGradient-1">
            <stop stop-color="#FFFFFF" stop-opacity="0.904382" offset="0%"></stop>
            <stop stop-color="#FF6D6D" offset="100%"></stop>
        </radialGradient>
    </defs>
    <g id="react-spring-logo" stroke="none" stroke-width="1" fill="none" fill-rule="evenodd">
        <g id="react-spring" fill-rule="nonzero">
            <g id="Group">
                <circle id="Oval" fill="#FFFFFF" cx="255.539568" cy="255.539568" r="255.539568"></circle>
                <path d="M227.282482,382.60017 C226.174158,383.185139 225.000784,383.329498 223.604003,382.989537 C222.123706,382.590906 220.555011,381.205574 220.02264,379.869615 C219.546075,378.709298 219.582117,375.518709 220.269635,372.79274 C216.631603,371.984248 209.463328,370.223716 205.886765,369.239084 C179.896692,362.088979 159.973611,352.313012 149.694438,341.836518 C144.137625,336.173035 141.759514,330.948671 141.785112,325.31434 C141.811437,321.155611 143.068443,317.749249 146.264589,313.657183 C148.886925,310.300304 153.798901,306.233043 159.359929,302.848778 C152.530641,301.004138 142.385035,297.901205 136.847991,295.934879 C127.673358,292.650128 116.905487,287.651418 111.501068,284.154919 C102.054767,278.082104 96.0652927,271.609022 92.3645719,263.745018 C90.0849313,258.918505 89.0956917,254.338838 89.3259023,249.991791 C89.5603158,245.565379 91.0517335,241.359197 93.8346848,237.359519 C98.3972553,230.810348 107.441742,223.994321 120.5449,217.390092 C123.300872,215.992931 127.668297,214.010619 130.964605,212.579229 C121.704393,206.322394 115.659845,198.585782 113.775475,190.976519 C113.174303,188.525671 113.106878,183.598664 113.631842,181.324848 C116.819905,167.794341 134.960486,152.97875 165.369218,140.32777 C167.80169,139.311718 174.823544,136.626537 178.361755,135.336995 C178.137463,131.307813 179.046607,128.884121 182.646596,125.043262 C185.014353,122.573932 187.503012,121.198612 190.50547,120.665213 C191.880447,120.425505 192.867831,120.494714 193.590979,120.72685 C194.767388,121.104485 195.553585,121.850561 196.031656,123.129792 C196.471396,124.334279 196.449368,125.290006 195.909402,126.407097 C195.599396,127.048443 195.00429,127.82211 193.89531,128.903834 C193.022968,129.741381 192.727839,130.051325 192.528881,130.813293 L192.78975,130.813293 C198.499365,129.059175 211.41373,125.969763 219.654753,124.387639 C249.805517,118.611052 285.298851,116.344133 312.010026,118.498375 C336.202433,120.435525 362.701351,125.952014 371.206114,130.703924 C373.764342,132.120954 375.808404,134.109589 376.888864,136.086108 C377.711372,137.648253 377.85478,138.140505 377.85478,140.730911 C377.85478,143.469688 377.699382,143.857432 376.868598,145.394082 C374.094972,150.497459 366.191384,154.070601 347.125899,156.948394 C322.738598,160.634182 283.468629,162.43376 253.704077,161.205202 C224.398811,160.010489 202.39215,155.941509 190.205411,149.635624 C188.736707,148.873567 188.293016,148.316322 187.923795,148.391584 C187.542603,148.464606 184.565066,149.473047 181.284739,150.572496 C163.262811,156.702835 148.878441,163.615922 139.703636,170.652259 C137.170355,172.588692 133.494869,176.121674 131.918353,178.152452 C130.593013,179.850576 129.26645,182.297437 129.113657,183.640572 C128.908493,185.296217 129.767312,187.064338 131.245563,188.955762 C133.110363,191.341777 136.005751,193.844271 139.808228,196.38756 C142.384707,198.100128 149.666422,202.003986 152.755791,203.304526 L156.752736,202.47788 C176.289434,195.643569 199.886116,189.68203 223.298038,185.661784 C254.922967,180.234725 293.771034,176.905719 330.721073,176.504585 C352.738308,176.267127 365.411349,177.132939 378.946957,179.768557 C389.51425,181.824675 399.775198,185.518522 404.1086,188.739484 C407.200056,191.017337 409.25735,193.655863 410.311694,196.450702 C411.422929,199.396349 411.456559,202.544621 410.315499,205.746363 C407.342536,214.082046 395.609658,221.624585 375.864393,227.185303 C357.191735,232.443951 331.421649,236.126133 300.181312,237.747724 C281.531679,238.739427 254.356536,238.856141 239.250121,238.029646 C200.677461,235.895642 171.117417,230.695408 150.198149,222.418451 L148.773626,221.849678 C139.229038,225.207959 125.369557,231.441977 118.957898,235.195966 C113.622863,238.338098 108.933554,241.916643 106.719377,244.664868 C105.346103,246.361115 104.534832,247.9319 104.408778,249.643895 C104.277898,251.421424 104.863421,253.293937 105.991902,255.498454 C107.775408,258.936835 111.963772,263.537238 115.784046,266.337138 C127.572557,274.965531 149.46784,283.185513 177.923563,289.815861 L184.088389,291.242886 L188.073544,289.882238 C214.392398,280.822607 250.643239,273.835911 285.690211,271.091878 C305.121457,269.577574 327.222387,269.390885 343.379772,270.621219 C356.214847,271.596382 367.182172,273.218138 376.521613,275.502637 C384.767351,277.539233 390.904931,279.953081 395.154092,282.810719 C399.891407,285.996649 402.405213,289.7623 403.111508,294.135742 C403.650972,297.478073 402.889274,300.668152 400.917444,303.512321 C399.114655,306.112664 396.251666,308.438481 392.375549,310.247463 C381.101611,315.468184 360.513127,318.739273 328.42523,320.242068 C320.428885,320.59641 293.079058,320.59665 284.614241,320.242098 C249.235721,318.684634 215.802324,314.81296 185.14513,308.747895 L179.345527,307.595054 L177.358296,308.458039 C171.596241,310.971631 165.449151,314.415906 161.50379,317.34034 C159.196347,319.05257 156.544378,321.798915 155.761335,323.436777 C155.34076,324.294073 155.301855,324.463688 155.357018,325.321879 C155.464979,326.844009 156.064594,327.885912 157.529692,329.743392 C163.886487,337.89343 180.597177,346.679038 201.601203,353.236 C209.603178,355.729279 218.2454,357.919251 226.956845,359.667021 L231.17219,360.514172 C239.390603,357.064374 249.308427,355.741718 265.914027,355.74172 C285.006192,355.765508 305.893348,358.434985 312.357564,359.966119 C319.907699,361.754466 325.243211,365.353677 326.218788,367.718508 C326.819713,369.248739 326.871244,370.896786 326.46119,372.384853 C326.031627,373.94372 325.102551,375.307025 323.834134,376.162787 C321.969155,377.429972 316.265046,378.629813 307.837698,379.216008 C301.882699,379.642755 284.482912,379.787047 276.553295,379.478941 C262.107447,378.934515 252.120819,378.034522 238.979225,376.117731 L234.836282,375.520212 C232.673964,376.68019 231.083969,378.273523 229.963525,379.966678 C229.060203,381.313577 228.172919,382.130198 227.282482,382.60017 Z M300.560831,303.88978 C310.403552,304.053848 314.474844,304.030167 327.585781,303.772293 C343.408876,303.446026 359.852363,301.936271 371.035478,299.791901 C376.520022,298.745851 381.399507,297.46267 384.580519,295.723166 C382.847163,294.933332 380.492497,294.089001 378.128085,293.388192 C366.674791,290.039734 351.694794,287.867468 330.827974,286.517897 C324.519556,286.097061 294.811712,286.121921 287.728608,286.519087 C263.885552,287.899018 243.044774,290.540406 222.892777,294.774495 C220.328716,295.31702 217.292235,296.002405 214.384357,296.684857 C242.499204,300.897654 272.364938,303.395474 300.560831,303.88978 L300.560831,303.88978 Z M350.349755,215.238813 C372.501035,211.7862 389.412182,206.45109 395.599823,201.73746 C395.043379,201.350251 394.314143,200.909817 393.62014,200.56128 C386.69148,197.019013 373.454844,194.496162 356.667517,193.395278 C349.76424,192.95116 324.319463,193.024619 312.847585,193.515687 C257.970625,195.942605 216.089878,201.702781 179.294476,211.985194 C189.266606,214.383269 202.350335,216.648778 214.022413,217.953516 C235.956434,220.411403 261.128179,221.370283 284.875924,220.644643 C311.295602,219.848545 331.534947,218.16555 350.349755,215.238813 Z M305.281304,143.513363 C323.358731,142.894551 338.85285,141.55028 349.584917,139.713781 C348.127296,139.366138 346.647095,139.032636 345.275844,138.748666 C321.562819,133.826373 296.866491,132.292369 269.126764,134.065215 C252.851419,135.11058 236.755051,137.103821 221.864586,139.942895 C233.33632,141.759328 246.896086,142.906379 264.614815,143.584044 C269.237601,143.771561 299.538206,143.724083 305.281304,143.513363 L305.281304,143.513363 Z" id="Shape" fill="#1B1A22" transform="translate(250.225816, 250.433932) scale(-1, 1) rotate(-140.000000) translate(-250.225816, -250.433932) "></path>
                <ellipse id="Oval" fill="url(#radialGradient-1)" cx="215.517038" cy="273.608993" rx="83.1016923" ry="83.2613921"></ellipse>
            </g>
            <g id="Group" transform="translate(111.608633, 109.398561)" fill="#1B1A22">
                <path d="M7.41442302,153.45966 C3.7733295,149.159965 2.23696115,143.62926 2.85320288,135.719045 L16.6285813,139.946544 C16.7004086,142.311321 16.9107338,143.494814 17.8065496,144.730245 C18.3159712,145.423102 18.4544691,145.528081 19.3278158,145.914475 C20.9805813,146.665531 24.7774849,147.064817 27.6454216,146.893168 C32.5477295,146.597387 45.5002245,143.506601 45.5002245,143.506601 L81.4315741,128.725272 C81.4315741,128.725272 86.8642993,125.952368 89.1771396,124.719517 C107.336196,115.009565 124.999091,103.636904 144.150837,89.3679424 C149.832196,85.1194475 172.605514,66.0424748 177.167839,61.665059 C192.285099,47.2185554 202.364132,35.9254561 208.985508,25.9981813 C210.346176,23.9417094 211.160955,21.8097266 212.427327,20.0619281 L219.935678,3.59401899 C223.213214,4.44113957 225.908397,6.4593036 227.643304,9.36665324 C229.913416,13.1709237 230.408472,17.6713669 228.827165,23.1571338 C227.409036,28.0774906 224.258947,33.8715626 219.25166,40.7319942 C213.565514,48.485295 206.206342,56.7774849 197.001024,65.7746878 C185.414722,77.1027799 168.364386,91.1662043 152.505646,102.496138 C123.894423,122.921991 91.6336345,140.871459 65.6487137,150.848829 L61.7214158,152.367885 L47.8848921,156.546763 L35.318423,159.372708 C28.8830619,160.354717 22.5055309,160.39634 18.339177,159.510469 C13.2604317,158.430112 10.107764,156.628535 7.41442302,153.45966 Z" id="Path"></path>
                <path d="M15.6447309,244.880391 C12.6743942,241.698256 10.4882647,237.554003 9.13238561,232.391643 L24.8721496,229.949145 C25.4246676,232.363281 26.1797755,234.174066 27.4225727,235.451856 C28.619695,236.682129 30.2507281,237.363937 32.3930245,237.780535 C35.8558388,238.462711 41.748259,238.189767 47.8550561,237.167609 C55.1796029,235.921865 69.8036489,231.788662 79.2738072,228.226026 L108.994855,216.164558 C143.791332,200.389433 179.576449,177.881692 223.174538,144.466509 C232.278193,137.468685 251.817071,121.169404 256.819937,116.391965 C268.972017,104.757778 277.490371,94.3170302 280.521117,87.1497669 C280.828685,86.4366504 281.104207,85.6303424 281.28175,84.9761612 L289.977646,72.4461583 C292.909675,74.1652259 294.90758,76.5988835 295.949997,79.5695885 C296.938636,82.3881669 297.058717,85.7316374 296.154797,89.4637122 C294.90537,94.7166849 289.419603,104.141905 282.646101,112.509606 C273.9712,123.229191 264.81966,132.038538 247.801001,146.00914 C219.237663,169.452846 187.33859,191.873658 159.623919,208.044386 C139.105243,220.013399 117.197168,230.614377 97.8380432,237.937082 L94.2448345,239.872737 L71.5904921,246.77516 C68.1449899,247.797318 63.5252029,249.086158 60.5158216,249.787488 C46.2332317,253.150849 34.9235568,253.743148 27.2185094,251.65905 C22.5158446,250.383839 18.6695827,248.120357 15.6447309,244.880391 L15.6447309,244.880391 Z" id="Path"></path>
                <path d="M144.388052,280.008012 C112.961934,289.863459 89.5421698,290.174342 78.4026705,281.858578 L88.7738014,270.133042 C89.7543367,271.06385 92.3430676,272.08564 94.4500029,272.534653 C96.963223,273.076858 102.049704,273.420892 105.234786,273.275764 C116.786095,272.768553 132.248863,268.818049 149.995004,261.929991 C153.214342,260.66362 156.143793,259.522118 156.482671,259.333157 L187.913577,243.988259 C201.145278,236.591885 214.756742,227.772224 227.896357,218.111632 C250.285859,201.63886 268.218383,184.58926 283.219614,165.576012 C284.087436,164.477237 285.007194,163.27017 285.900063,162.066786 L303.149306,140.177865 C304.773709,140.820996 305.142055,141.01806 306.902377,143.116155 C308.567298,145.100432 308.77394,145.569704 309.148178,147.295401 C309.590929,149.504 309.303252,152.340996 308.254573,155.071171 C304.793968,164.177773 288.040518,185.436823 270.753335,202.471689 C251.675994,221.291557 223.02941,242.369381 196.219396,257.324938 C188.889324,261.410256 177.010555,267.344668 171.509318,269.671137 L171.309306,269.838734 L157.54903,275.479942 C154.0096,276.766204 146.904587,279.223068 144.388052,280.008012 L144.388052,280.008012 Z" id="Path"></path>
            </g>
        </g>
    </g>
</svg>