<?xml version="1.0" encoding="UTF-8"?>
<svg width="128px" height="128px" viewBox="0 0 128 128" version="1.1" xmlns="http://www.w3.org/2000/svg" xmlns:xlink="http://www.w3.org/1999/xlink">
    <!-- Generator: Sketch 54.1 (76490) - https://sketchapp.com -->
    <title>caterpillar-logo</title>
    <desc>Created with Sketch.</desc>
    <g id="caterpillar" stroke="none" stroke-width="1" fill="none" fill-rule="evenodd">
        <g id="Caterpillar" transform="translate(16.000000, 16.000000)" fill-rule="nonzero">
            <rect id="Rectangle" fill="#000000" x="0" y="0" width="96" height="96"></rect>
            <path d="M33.13344,62.23296 C34.75104,60.72864 35.02944,58.86912 35.02944,57.19872 L35.02944,50.18784 L26.23584,50.18784 L26.23584,59.69952 C26.23584,61.06464 25.24608,62.16672 24.02496,62.16672 C22.8048,62.16672 21.89472,61.06464 21.89472,59.69952 L21.89472,32.74752 C21.89472,31.3872 22.80384,30.2832 24.02496,30.2832 C25.24608,30.2832 26.23584,31.3872 26.23584,32.74752 L26.23584,42.32448 L35.01696,42.32448 L35.01696,32.38944 C35.01696,26.90112 31.7952,22.38432 23.95104,22.37376 C15.89472,22.37376 12.8496,26.91168 12.8496,32.4 L12.8496,60.54432 C12.8496,65.98272 16.72896,70.09824 21.68928,70.09824 L24.4128,70.09824 L33.13344,62.23296 Z" id="path2386" fill="#FFFFFF"></path>
            <polygon id="polygon2404" fill="#FFFFFF" points="67.79808 63.33792 67.79808 32.40768 61.72896 32.40768 61.72896 23.29824 83.69088 23.29824 83.69088 32.40768 77.59296 32.40768 77.59296 70.04352 74.98944 70.04352"></polygon>
            <polygon id="polygon2406" fill="#FEC40E" points="71.73312 70.11168 50.34528 50.15424 28.18272 70.11168"></polygon>
            <path d="M47.97984,44.77632 L50.3472,31.3008 L52.70208,44.77632 L47.97984,44.77632 Z M56.44608,23.34528 L44.19552,23.34528 L37.05792,59.00736 L50.35008,47.0592 L64.20672,59.99136 L56.44608,23.34528 Z" id="path2408" fill="#FFFFFF"></path>
        </g>
    </g>
</svg>