<?xml version="1.0" encoding="UTF-8"?>
<svg width="128px" height="128px" viewBox="0 0 128 128" version="1.1" xmlns="http://www.w3.org/2000/svg" xmlns:xlink="http://www.w3.org/1999/xlink">
    <!-- Generator: Sketch 54.1 (76490) - https://sketchapp.com -->
    <title>cryptzone-logo</title>
    <desc>Created with Sketch.</desc>
    <g id="cryptzone" stroke="none" stroke-width="1" fill="none" fill-rule="evenodd">
        <g id="CZ_Logo_Reverse" transform="translate(0.000000, 47.000000)" fill-rule="nonzero">
            <path d="M17.0454395,1.06666667 C8.21231525,1.06666667 1.04543947,8.23354245 1.04543947,17.0666667 C1.04543947,25.8997909 8.21231525,33.0666667 17.0454395,33.0666667 C25.8785637,33.0666667 33.0454395,25.8997909 33.0454395,17.0666667 C33.0454395,8.23354245 25.8785637,1.06666667 17.0454395,1.06666667 Z" id="Path" fill="#353A35"></path>
            <path d="M17.0454395,0.148590381 C7.70547264,0.148590381 0.127363184,7.72669983 0.127363184,17.0666667 C0.127363184,26.4066335 7.70547264,33.984743 17.0454395,33.984743 C26.3854063,33.984743 33.9635158,26.4066335 33.9635158,17.0666667 C33.9635158,7.72669983 26.3854063,0.148590381 17.0454395,0.148590381 Z M17.0454395,31.3950249 C9.12769486,31.3950249 2.71708126,24.9844113 2.71708126,17.0666667 C2.71708126,9.14892206 9.12769486,2.73830846 17.0454395,2.73830846 C24.9631841,2.73830846 31.3737977,9.14892206 31.3737977,17.0666667 C31.3737977,24.9844113 24.9631841,31.3950249 17.0454395,31.3950249 Z" id="Shape" fill="#2E7ABE"></path>
            <polygon id="Path" fill="#FFFFFF" points="22.1187396 8.70315091 22.0762852 8.70315091 20.0597015 8.70315091 17.2364842 8.70315091 16.4086235 11.8872305 19.2318408 11.8872305 15.4321725 25.3665008 17.4487562 25.2603648 17.852073 25.2603648 22.5008292 8.70315091"></polygon>
            <path d="M13.1608624,21.9701493 C11.2079602,21.2059701 9.80696517,19.3379768 9.80696517,17.1303483 C9.80696517,14.2222222 12.1207297,11.8872305 15.0288557,11.8872305 L16.0053068,11.8872305 L16.8543947,8.70315091 L15.0713101,8.70315091 L15.0713101,8.7880597 C10.4013267,8.7880597 6.79270315,12.5028192 6.79270315,17.0666667 C6.79270315,20.6752902 9.10646766,23.7532338 12.3330017,24.8782753 C13.0759536,25.0905473 14.2222222,25.3452736 15.0288557,25.3452736 L15.8779436,22.3310116 C15.8779436,22.3310116 14.625539,22.5008292 13.1608624,21.9701493 Z" id="Path" fill="#FFFFFF"></path>
            <polygon id="Path" fill="#FFFFFF" points="22.9041459 8.70315091 18.2553897 25.2603648 24.1565506 25.2603648 24.9844113 22.2885572 21.0998342 22.2885572 25.0693201 8.70315091"></polygon>
            <path d="M44.3436153,24.7721393 C40.1830846,24.7721393 37.5721393,21.8215589 37.5721393,17.3850746 C37.5721393,12.9485904 40.2892206,9.95555556 44.3223881,9.95555556 C45.9781095,9.95555556 47.2729685,10.3588723 48.3131012,10.9956882 L47.9097844,13.5854063 C46.9757877,12.8849088 45.8082919,12.3117745 44.428524,12.3117745 C41.9024876,12.3117745 40.3529022,14.2434494 40.3529022,17.3426202 C40.3529022,20.4842454 42.0086235,22.3522388 44.53466,22.3522388 C45.8719735,22.3522388 47.0606965,21.8852405 48.1645108,21.1422886 L48.5466003,23.4985075 C47.4003317,24.2839138 45.9568823,24.7721393 44.3436153,24.7721393 Z" id="Path" fill="#353A35"></path>
            <path d="M52.2825871,18.7860697 L52.2825871,24.5386401 L49.799005,24.5386401 L49.799005,14.519403 L51.9217247,14.519403 L52.2401327,16.5359867 C52.8981758,15.3684909 53.7472637,14.413267 55.0421227,14.3283582 L55.8699834,16.6208955 C54.5538972,16.7270315 52.9830846,17.7034826 52.2825871,18.7860697 Z" id="Path" fill="#353A35"></path>
            <path d="M62.0046434,25.0693201 C61.1131012,27.531675 59.9668325,28.2958541 58.0351575,28.2958541 C57.5893864,28.2958541 57.3558872,28.2533997 57.1223881,28.1897181 L56.7827529,26.1306799 C57.1223881,26.2155887 57.4620232,26.2792703 57.9502488,26.2792703 C58.6719735,26.2792703 59.266335,25.9396352 59.5635158,25.2179104 L59.7970149,24.5598673 L56.1671642,14.6892206 L58.7568823,14.3495854 L61.0706468,21.4819237 L63.2995025,14.4981758 L65.7618574,14.4981758 L62.0046434,25.0693201 Z" id="Path" fill="#353A35"></path>
            <path d="M71.6630182,24.6447761 C70.7077944,24.6447761 69.9436153,24.4749585 69.3492537,24.2414594 L69.3492537,28.0199005 L66.8656716,28.40199 L66.8656716,14.5406302 L68.9883914,14.5406302 L69.2218905,15.8991708 C69.9223881,15.0925373 70.8988391,14.3283582 72.2998342,14.3283582 C74.4013267,14.3283582 76.0782753,15.8991708 76.0782753,19.253068 C76.0358209,22.9678275 73.9555556,24.6447761 71.6630182,24.6447761 Z M71.5993367,16.5147595 C70.7077944,16.5147595 70.0072968,17.0666667 69.3492537,17.9157546 L69.3492537,22.2036484 C69.9436153,22.5008292 70.4318408,22.6494196 71.2809287,22.6494196 C72.5757877,22.6494196 73.5310116,21.5880597 73.5310116,19.4016584 C73.5310116,17.4699834 72.7243781,16.5147595 71.5993367,16.5147595 Z" id="Shape" fill="#353A35"></path>
            <path d="M81.3638474,24.6872305 C79.3897181,24.6872305 78.0736318,23.9655058 78.0736318,21.6729685 L78.0736318,16.5572139 L76.6726368,16.5572139 L76.6726368,14.519403 L78.0736318,14.519403 L78.0736318,11.3565506 L80.5147595,10.974461 L80.5147595,14.519403 L82.5737977,14.519403 L82.8922056,16.5572139 L80.5359867,16.5572139 L80.5359867,21.2908789 C80.5359867,22.0975124 80.9180763,22.5432836 81.8733002,22.5432836 C82.1704809,22.5432836 82.4252073,22.5220564 82.6587065,22.4583748 L82.9771144,24.5598673 C82.5313433,24.6235489 82.0855721,24.6872305 81.3638474,24.6872305 Z" id="Path" fill="#353A35"></path>
            <polygon id="Path" fill="#353A35" points="84.0809287 24.5386401 84.0809287 22.6281924 89.0905473 16.5147595 84.5903814 16.5147595 84.2719735 14.519403 92.0835821 14.519403 92.0835821 16.4298507 87.0739635 22.5432836 91.9986733 22.5432836 92.3383085 24.5386401"></polygon>
            <path d="M97.5814262,24.7296849 C94.8643449,24.7296849 92.8902156,22.7767828 92.8902156,19.5290216 C92.8902156,16.2812604 94.8855721,14.307131 97.6026534,14.307131 C100.340962,14.307131 102.336318,16.2812604 102.336318,19.5290216 C102.315091,22.79801 100.319735,24.7296849 97.5814262,24.7296849 Z M97.5814262,16.3661692 C96.1167496,16.3661692 95.3313433,17.6822554 95.3313433,19.5290216 C95.3313433,21.3545605 96.1379768,22.691874 97.5814262,22.691874 C99.1097844,22.691874 99.8951907,21.3757877 99.8951907,19.5290216 C99.8951907,17.6822554 99.06733,16.3661692 97.5814262,16.3661692 Z" id="Shape" fill="#353A35"></path>
            <path d="M109.871973,24.5386401 L109.871973,17.9794362 C109.871973,17.1091211 109.489884,16.5147595 108.577114,16.5147595 C107.791708,16.5147595 107.027529,17.0029851 106.305804,17.7883914 L106.305804,24.5386401 L103.822222,24.5386401 L103.822222,14.519403 L105.944942,14.519403 L106.178441,15.920398 C107.112438,15.0288557 108.173798,14.307131 109.511111,14.307131 C111.379104,14.307131 112.376783,15.4533997 112.376783,17.321393 L112.376783,24.5386401 L109.871973,24.5386401 Z" id="Path" fill="#353A35"></path>
            <path d="M118.702488,24.7296849 C115.900498,24.7296849 113.820232,23.1376451 113.820232,19.5290216 C113.820232,16.2812604 115.773134,14.307131 118.38408,14.307131 C121.398342,14.307131 122.735655,16.5572139 122.735655,19.4016584 C122.735655,19.6139303 122.714428,19.8474295 122.714428,19.9960199 L116.26136,19.9960199 C116.388723,21.9701493 117.450083,22.79801 118.978441,22.79801 C120.2733,22.79801 121.313433,22.3310116 122.417247,21.5456053 L122.714428,23.4985075 C121.631841,24.2626866 120.315755,24.7296849 118.702488,24.7296849 Z M116.303814,18.4676617 L120.294527,18.4676617 C120.12471,16.9180763 119.509121,16.0477612 118.299171,16.0477612 C117.301493,16.026534 116.473632,16.8331675 116.303814,18.4676617 Z" id="Shape" fill="#353A35"></path>
            <path d="M124.731012,14.4557214 L124.731012,16.0902156 L124.28524,16.0902156 L124.28524,14.4557214 L123.669652,14.4557214 L123.669652,14.094859 L125.304146,14.094859 L125.367828,14.4557214 L124.731012,14.4557214 Z M127.46932,16.0902156 L127.384411,14.7529022 L126.917413,16.0902156 L126.514096,16.0902156 L126.047098,14.7529022 L125.940962,16.0902156 L125.537645,16.0902156 L125.686235,14.094859 L126.238143,14.094859 L126.726368,15.4958541 L127.214594,14.094859 L127.745274,14.094859 L127.893864,16.0902156 L127.46932,16.0902156 Z" id="Shape" fill="#353A35"></path>
        </g>
    </g>
</svg>