<?xml version="1.0" encoding="UTF-8"?>
<svg width="128px" height="128px" viewBox="0 0 128 128" version="1.1" xmlns="http://www.w3.org/2000/svg" xmlns:xlink="http://www.w3.org/1999/xlink">
    <!-- Generator: Sketch 54.1 (76490) - https://sketchapp.com -->
    <title>dear-friends-logo</title>
    <desc>Created with Sketch.</desc>
    <g id="dear-friends" stroke="none" stroke-width="1" fill="none" fill-rule="evenodd">
        <g id="DearFriends_Logotype" transform="translate(0.000000, 54.000000)" fill="#000000" fill-rule="nonzero">
            <path d="M5.76901408,2.34366197 C8.11267606,2.34366197 10.5014085,3.92112676 10.5014085,8.2028169 C10.5014085,10.456338 9.96056338,11.8084507 8.96901408,12.8450704 C7.97746479,13.8816901 6.58028169,14.0619718 5.63380282,14.0619718 L2.34366197,14.0619718 L2.34366197,2.34366197 L5.76901408,2.34366197 L5.76901408,2.34366197 Z M5.76901408,0 L0,0 L0,16.4056338 L5.63380282,16.4056338 C9.37464789,16.4056338 12.8450704,14.4676056 12.8450704,8.2028169 C12.8901408,2.52394366 9.37464789,0 5.76901408,0 L5.76901408,0 Z M34.4788732,15.0535211 C34.2535211,15.4591549 33.0816901,16.7211268 30.7830986,16.7211268 C27.8084507,16.7211268 26.5014085,15.0535211 26.5014085,13.1605634 C26.5014085,11.0422535 27.6732394,10.0507042 30.6478873,9.28450704 C33.1267606,8.65352113 34.0732394,8.33802817 34.0732394,7.30140845 C34.0732394,6.4 33.3521127,5.63380282 31.6394366,5.63380282 C29.7464789,5.63380282 29.0704225,6.71549296 28.7549296,7.97746479 L26.771831,7.25633803 C27.1774648,5.22816901 28.8,3.65070423 31.5943662,3.65070423 C34.2985915,3.65070423 36.4169014,4.91267606 36.4169014,8.2028169 L36.4169014,16.4056338 L34.4338028,16.4056338 L34.4338028,15.0535211 L34.4788732,15.0535211 L34.4788732,15.0535211 Z M34.2535211,9.6 C34.0732394,9.91549296 33.7126761,10.3211268 31.1887324,10.9521127 C29.115493,11.4929577 28.7098592,12.1239437 28.7098592,13.0253521 C28.7098592,14.0619718 29.3859155,14.7380282 30.9633803,14.7380282 C33.171831,14.7380282 34.2084507,13.6112676 34.2084507,12.3943662 L34.2084507,9.6 L34.2535211,9.6 L34.2535211,9.6 Z M108.75493,5.18309859 L108.75493,0 L111.098592,0 L111.098592,16.4056338 L108.75493,16.4056338 L108.75493,15.2338028 C108.529577,15.6394366 107.132394,16.7661972 105.374648,16.7661972 C102.084507,16.7661972 100.011268,14.1971831 100.011268,10.2309859 C100.011268,6.12957746 102.490141,3.69577465 105.374648,3.69577465 C107.222535,3.6056338 108.349296,4.68732394 108.75493,5.18309859 Z M108.75493,8.65352113 C108.75493,7.21126761 107.673239,5.72394366 105.735211,5.72394366 C103.526761,5.72394366 102.264789,7.34647887 102.264789,10.1859155 C102.264789,13.0253521 103.48169,14.6929577 105.735211,14.6929577 C107.583099,14.6929577 108.75493,13.3859155 108.75493,11.9887324 L108.75493,8.65352113 Z M114.253521,11.7633803 C114.614085,13.7014085 115.695775,14.7830986 117.588732,14.7830986 C119.48169,14.7830986 120.383099,14.0169014 120.383099,13.0253521 C120.383099,11.8985915 119.661972,11.5380282 116.867606,10.771831 C113.938028,9.96056338 112.721127,9.05915493 112.721127,7.16619718 C112.721127,5.4084507 114.253521,3.65070423 117.138028,3.65070423 C120.067606,3.65070423 121.55493,5.22816901 122.095775,7.25633803 L120.112676,7.7971831 C119.707042,6.49014085 118.895775,5.58873239 117.138028,5.58873239 C115.560563,5.58873239 114.794366,6.35492958 114.794366,7.12112676 C114.794366,8.06760563 115.335211,8.38309859 118.35493,9.23943662 C121.55493,10.1408451 122.411268,11.1774648 122.411268,13.0704225 C122.456338,14.7830986 121.059155,16.7661972 117.588732,16.7661972 C114.028169,16.7661972 112.450704,14.6028169 112.225352,12.2591549 L114.253521,11.7633803 Z M25.3295775,10.1859155 C25.3295775,6.08450704 22.9859155,3.6056338 19.7408451,3.6056338 C16.4957746,3.6056338 14.0619718,6.12957746 14.0619718,10.1408451 C14.0619718,14.1521127 16.4957746,16.6760563 19.8760563,16.6760563 C22.5352113,16.6760563 24.1577465,15.2338028 25.0140845,13.656338 L23.1211268,12.6647887 C22.6253521,13.4760563 21.7690141,14.6478873 19.7859155,14.6478873 C17.5323944,14.6478873 16.4056338,12.9352113 16.3605634,10.8169014 L25.3295775,10.8169014 C25.3295775,10.8169014 25.3295775,10.1859155 25.3295775,10.1859155 Z M16.4056338,9.10422535 C16.4507042,7.66197183 17.4422535,5.67887324 19.7408451,5.67887324 C22.084507,5.67887324 23.0309859,7.3915493 23.0760563,9.10422535 L16.4056338,9.10422535 Z M87.3915493,10.1859155 C87.3915493,6.08450704 85.0478873,3.65070423 81.7577465,3.65070423 C78.4676056,3.65070423 76.0788732,6.17464789 76.0788732,10.1859155 C76.0788732,14.1971831 78.5126761,16.7211268 81.8929577,16.7211268 C84.5521127,16.7211268 86.1746479,15.2788732 87.0309859,13.7014085 L85.1380282,12.7098592 C84.6422535,13.5211268 83.7859155,14.6929577 81.8028169,14.6929577 C79.5492958,14.6929577 78.4225352,12.9802817 78.3774648,10.8619718 L87.3464789,10.8619718 L87.3464789,10.1859155 C87.3464789,10.1859155 87.3915493,10.1859155 87.3915493,10.1859155 Z M78.4225352,9.10422535 C78.4676056,7.66197183 79.4591549,5.67887324 81.7577465,5.67887324 C84.1014085,5.67887324 85.0478873,7.3915493 85.0929577,9.10422535 L78.4225352,9.10422535 Z M69.8140845,3.96619718 C68.6422535,3.96619718 67.7408451,4.28169014 67.1098592,5.13802817 L67.1098592,3.96619718 L64.7661972,3.96619718 L64.7661972,16.3605634 L67.1098592,16.3605634 L67.1098592,9.01408451 C67.1098592,7.16619718 68.3267606,6.30985915 69.8140845,6.30985915 L70.8056338,6.30985915 L70.8056338,3.96619718 L69.8140845,3.96619718 Z M72.2929577,16.4056338 L74.6366197,16.4056338 L74.6366197,3.96619718 L72.2929577,3.96619718 L72.2929577,16.4056338 Z M63.0084507,2.34366197 L63.0084507,0 L51.2901408,0 L51.2901408,16.4056338 L53.6338028,16.4056338 L53.6338028,9.91549296 L63.0084507,9.91549296 L63.0084507,7.57183099 L53.6338028,7.57183099 L53.6338028,2.34366197 L63.0084507,2.34366197 Z M74.5915493,0 L72.2478873,0 L72.2478873,2.34366197 L74.5915493,2.34366197 L74.5915493,0 Z M94.3323944,3.6056338 C92.9352113,3.6056338 91.5380282,4.32676056 90.9070423,5.13802817 L90.9070423,3.96619718 L88.5633803,3.96619718 L88.5633803,16.3605634 L90.9070423,16.3605634 L90.9070423,8.6084507 C90.9070423,6.85070423 92.1239437,5.76901408 93.8816901,5.76901408 C95.7295775,5.76901408 96.4957746,6.89577465 96.4957746,8.96901408 L96.4957746,16.4507042 L98.8394366,16.4507042 L98.8394366,8.33802817 C98.7943662,5.36338028 97.0366197,3.6056338 94.3323944,3.6056338 Z M123.673239,14.0619718 L123.673239,16.4056338 L126.016901,16.4056338 C126.016901,17.7126761 124.980282,18.7492958 123.673239,18.7492958 L123.673239,20.5070423 C125.926761,20.5070423 127.774648,18.6591549 127.774648,16.4056338 L127.774648,14.0619718 L123.673239,14.0619718 Z M43.2676056,3.96619718 C42.0957746,3.96619718 41.1943662,4.28169014 40.5633803,5.13802817 L40.5633803,3.96619718 L38.2197183,3.96619718 L38.2197183,16.3605634 L40.5633803,16.3605634 L40.5633803,9.01408451 C40.5633803,7.16619718 41.7802817,6.30985915 43.2676056,6.30985915 L44.2591549,6.30985915 L44.2591549,3.96619718 L43.2676056,3.96619718 Z" id="Shape"></path>
        </g>
    </g>
</svg>