<?xml version="1.0" encoding="UTF-8"?>
<svg width="128px" height="128px" viewBox="0 0 128 128" version="1.1" xmlns="http://www.w3.org/2000/svg" xmlns:xlink="http://www.w3.org/1999/xlink">
    <!-- Generator: Sketch 54.1 (76490) - https://sketchapp.com -->
    <title>ica-logo</title>
    <desc>Created with Sketch.</desc>
    <g id="ica" stroke="none" stroke-width="1" fill="none" fill-rule="evenodd">
        <g id="logotype" transform="translate(16.000000, 16.000000)" fill-rule="nonzero">
            <path d="M7.87074014,0 L88.1292599,-1.20320508e-15 C92.4761496,-2.00171578e-15 96,3.52385039 96,7.87074014 L96,88.1292599 C96,92.4761496 92.4761496,96 88.1292599,96 L7.87074014,96 C3.52385039,96 -1.87406971e-15,92.4761496 -2.40641017e-15,88.1292599 L-1.20320508e-15,7.87074014 C-1.73554555e-15,3.52385039 3.52385039,-1.60789948e-15 7.87074014,0 Z" id="Rectangle" fill="#FFAC3A"></path>
            <g id="Group" transform="translate(16.101266, 67.949367)" fill="#006341">
                <path d="M15.6668809,2.1845463 L15.6668809,2.1845463 L15.6668809,0.355696926 L13.2734866,0.355696926 L13.2734866,11.935004 L15.7618031,11.935004 L15.7618031,6.6289568 C15.7618031,5.39610117 16.0002385,4.43569982 16.4771093,3.74775276 C16.9539801,3.05980569 17.7675986,2.71923784 18.9179647,2.72604919 C19.136921,2.72600946 19.3555911,2.74194454 19.5722496,2.77372869 C19.7790443,2.8043798 19.9824489,2.84184226 20.1824634,2.88952176 L20.1824634,0.22968682 C19.8133123,0.136683285 19.4341503,0.0897848248 19.0535678,0.090054 C18.335315,0.064564598 17.6262046,0.258092817 17.0195216,0.645179603 C16.4473069,1.04155519 15.9814838,1.57386756 15.6634908,2.19476334" id="Path"></path>
                <path d="M23.0436884,5.00785382 C23.1566353,4.25380096 23.5141289,3.55826877 24.0607115,3.02915458 C24.6615999,2.51355746 25.438181,2.25228489 26.2269706,2.30033937 C26.9959018,2.24891575 27.7513945,2.52165113 28.311868,3.05299433 C28.8097377,3.5866588 29.1070159,4.27788051 29.1526071,5.00785382 L23.0436884,5.00785382 Z M23.0199578,6.90481677 L31.8646686,6.90481677 L31.8646686,6.18621859 C31.8729781,5.35090656 31.7482294,4.51963654 31.4951502,3.72391301 C31.2751716,3.01402527 30.9129121,2.35687106 30.4306661,1.79289327 C29.9450101,1.24636016 29.3438636,0.815824826 28.6712161,0.532792211 C27.9188857,0.221950094 27.1115492,0.067850228 26.2981623,0.0798369643 C25.4717261,0.066878635 24.6517673,0.228144536 23.8912076,0.553226282 C23.1984127,0.853601619 22.5776735,1.29952492 22.0707363,1.86100684 C21.5644835,2.42788668 21.1729855,3.08839877 20.9181101,3.80564929 C20.6451304,4.57029104 20.5085646,5.37731613 20.514691,6.18962427 C20.5040364,7.02323659 20.6489182,7.85147725 20.9418407,8.63149579 C21.2098674,9.33814355 21.6168639,9.98330027 22.1385378,10.5284587 C22.6720892,11.0722324 23.3161763,11.4939193 24.0268107,11.76472 C24.8248221,12.0673581 25.672406,12.2163968 26.5252974,12.2040526 C27.4774764,12.2337441 28.4234484,12.0401808 29.2882101,11.6387099 C29.9258722,11.3309447 30.5170651,10.9342379 31.04427,10.4603452 L29.7323102,8.58041061 C29.3632126,8.91836404 28.9504211,9.20475301 28.5051024,9.43183025 C27.8819642,9.737488 27.1948109,9.88816602 26.5015669,9.87116278 C26.0922974,9.87203106 25.6853029,9.81001184 25.2946995,9.68725614 C24.9120412,9.56926069 24.5529159,9.38483737 24.2336054,9.14234757 C23.9126237,8.89570534 23.6459849,8.58493447 23.4504976,8.22962572 C23.2341479,7.82843704 23.0971545,7.3889661 23.0470785,6.93546787 L23.0199578,6.90481677 Z" id="Shape"></path>
                <path d="M35.6005334,5.00785382 C35.7134804,4.25380096 36.070974,3.55826877 36.6175565,3.02915458 C37.218445,2.51355746 37.995026,2.25228489 38.7838157,2.30033937 C39.5527469,2.24891575 40.3082395,2.52165113 40.868713,3.05299433 C41.3665827,3.5866588 41.6638609,4.27788051 41.7094521,5.00785382 L35.6005334,5.00785382 Z M35.5768029,6.90481677 L44.4215137,6.90481677 L44.4215137,6.18621859 C44.4298232,5.35090656 44.3050744,4.51963654 44.0519953,3.72391301 C43.8279693,3.01291064 43.4610488,2.35567357 42.9739508,1.79289327 C42.4882948,1.24636016 41.8871483,0.815824826 41.2145009,0.532792211 C40.4621704,0.221950094 39.654834,0.067850228 38.841447,0.0798369643 C38.0150108,0.066878635 37.1950521,0.228144536 36.4344924,0.553226282 C35.7416974,0.853601619 35.1209582,1.29952492 34.614021,1.86100684 C34.1077682,2.42788668 33.7162703,3.08839877 33.4613949,3.80564929 C33.1884151,4.57029104 33.0518494,5.37731613 33.0579757,6.18962427 C33.0473211,7.02323659 33.1922029,7.85147725 33.4851254,8.63149579 C33.7531521,9.33814355 34.1601486,9.98330027 34.6818226,10.5284587 C35.215374,11.0722324 35.8594611,11.4939193 36.5700954,11.76472 C37.3681069,12.0673581 38.2156907,12.2163968 39.0685822,12.2040526 C40.0207612,12.2337441 40.9667331,12.0401808 41.8314949,11.6387099 C42.4691569,11.3309447 43.0603499,10.9342379 43.5875547,10.4603452 L42.275595,8.58041061 C41.9064974,8.91836404 41.4937059,9.20475301 41.0483871,9.43183025 C40.4252489,9.737488 39.7380957,9.88816602 39.0448516,9.87116278 C38.6355821,9.87203106 38.2285877,9.81001184 37.8379842,9.68725614 C37.455326,9.56926069 37.0962006,9.38483737 36.7768901,9.14234757 C36.4559084,8.89570534 36.1892696,8.58493447 35.9937824,8.22962572 C35.7774326,7.82843704 35.6404393,7.3889661 35.5903632,6.93546787 L35.5768029,6.90481677 Z" id="Shape"></path>
                <path d="M55.5714768,2.30374505 C55.2839524,1.63277528 54.8019804,1.06432658 54.1883254,0.672425031 C52.7898121,-0.0947317111 51.1039061,-0.11641266 49.6863032,0.614528496 C49.1085893,0.955158127 48.622207,1.43208936 48.269251,2.00404534 L48.269251,0.362508283 L45.8521261,0.362508283 L45.8521261,11.9418153 L48.3404426,11.9418153 L48.3404426,6.49272966 C48.3371679,5.96163589 48.3837045,5.43141318 48.4794358,4.90908914 C48.5588541,4.45738609 48.7233939,4.02507088 48.9642168,3.63536536 C49.1896184,3.27731238 49.5023583,2.98306246 49.8727574,2.78054005 C50.3112771,2.55780064 50.7987232,2.45002211 51.2898096,2.46721762 C51.9693931,2.41927304 52.6339475,2.68356251 53.0967206,3.1858158 C53.5035298,3.66488124 53.7069345,4.36645102 53.7069345,5.29052514 L53.7069345,11.955438 L56.1952509,11.955438 L56.1952509,6.50635238 C56.1913419,5.97024524 56.2413164,5.43511105 56.3444143,4.90908914 C56.4274436,4.45680773 56.5954172,4.02453901 56.8393656,3.63536536 C57.0674528,3.28219685 57.3797556,2.99187027 57.7479062,2.79075709 C58.1864259,2.56801767 58.673872,2.46023914 59.1649584,2.47743466 C59.8418589,2.4275984 60.504108,2.69246187 60.9616991,3.19603283 C61.3617282,3.67509828 61.5617428,4.37666806 61.5617428,5.30074217 L61.5617428,11.9656551 L64.0703997,11.9656551 L64.0703997,5.07937307 C64.0703997,3.55362908 63.7065315,2.33893706 62.9787949,1.43529702 C62.2510584,0.531656984 61.1492834,0.077566512 59.6734699,0.0730256072 C58.790432,0.0358325803 57.9152409,0.253273801 57.1512526,0.699670459 C56.511244,1.10413936 55.9719863,1.6505389 55.5748669,2.2969337" id="Path"></path>
                <path d="M0.00133529788,16.5531041 L2.48965178,16.5531041 L2.48965178,10.2594101 C2.94283671,10.8204409 3.49717657,11.2906787 4.12366888,11.6455213 C4.84457262,12.0348503 5.65492119,12.226329 6.47299221,12.2006469 C7.18775023,12.2048767 7.89629257,12.0671457 8.55788954,11.7953712 C9.20275216,11.5271279 9.78131723,11.1202685 10.252928,10.6033837 C10.7559691,10.0482787 11.1473681,9.4006548 11.4055542,8.69620368 C11.9738147,7.04121084 11.9738147,5.2426787 11.4055542,3.58768586 C11.1510269,2.88146883 10.7592166,2.23316434 10.252928,1.68050588 C9.77688231,1.16872752 9.19949406,0.762695693 8.55788954,0.48851839 C7.89008488,0.208623957 7.17283287,0.067293645 6.44926167,0.0730256072 C5.63930836,0.0533312775 4.8370242,0.234646719 4.11349865,0.600905782 C3.47281032,0.93662675 2.91729049,1.41547728 2.48965178,2.00063966 L2.48965178,0.359102605 L0.00133529788,0.359102605 L0.00133529788,16.5531041 Z M5.82887759,9.8200776 C4.89358426,9.85816864 3.98591964,9.49689617 3.33039087,8.82561946 C2.05443971,7.2660955 2.05443971,5.01779405 3.33039087,3.45827008 C3.98591964,2.78699337 4.89358426,2.4257209 5.82887759,2.46381194 C6.77395447,2.42309523 7.69022913,2.79576385 8.34092461,3.48551551 C9.59942505,5.03466097 9.59942505,7.25944561 8.34092461,8.80859107 C7.69022913,9.49834273 6.77395447,9.87101135 5.82887759,9.83029463 L5.82887759,9.8200776 Z" id="Shape"></path>
            </g>
            <g id="Group" transform="translate(12.050633, 12.759494)" fill="#006341">
                <path d="M73.9948622,47.7146793 C73.9102671,46.0196836 67.5081068,28.9714159 66.2831691,25.9068635 C65.1292914,23.0219807 62.4797716,16.862366 62.124472,15.8894384 C61.6439716,14.5842916 60.6491327,13.5537342 61.9925035,12.8757359 C62.9670396,12.3841871 64.3070266,10.6925813 64.4660655,8.02465794 C64.5980256,4.96868856 62.7180524,2.18625312 59.8370193,1.17348496 C56.7036153,0.122587574 54.0845497,0.597186395 52.8460769,1.7633435 C52.0881044,2.48202171 51.5839174,2.92272062 50.1018105,2.44134181 C47.993893,1.69555531 45.8210878,1.14852368 43.6116712,0.807365873 C39.2408435,0.0624862809 34.7965325,-0.153761871 30.3742235,0.163267473 C26.6828677,0.479855185 23.0817535,1.47745994 19.7524576,3.10578016 C18.8117596,3.57020901 18.351562,3.92954812 17.9793434,3.4142694 C17.5123782,2.76678101 16.7374867,1.963353 13.4585791,2.19048244 C10.1796714,2.41761187 7.63843333,4.95671557 5.78072402,8.10601774 C3.92301472,11.2553199 5.44234346,14.7436213 6.87030944,15.9674082 C7.91590539,16.869146 8.65695883,16.7776162 8.22383171,17.9132634 C7.69934183,19.3031599 1.73707627,38.7074717 0.190677083,44.8297965 C-0.736485666,48.4943774 3.69629974,47.5892497 4.88063172,44.9348863 C6.16647787,42.0567834 10.7244641,24.6830766 11.2015807,22.3778823 C11.6786973,20.072688 13.1743394,16.4759069 13.4551952,15.6216291 C13.7360511,14.7673512 12.9510082,13.8927334 11.5399612,14.0757929 C10.1289143,14.2588525 9.60780822,12.6519964 10.0341677,10.0789928 C10.4605272,7.50598923 12.1625815,6.55001161 12.9611596,6.24152237 C13.4574136,6.05112234 14.010781,6.07903506 14.4854356,6.31840924 C14.9600902,6.55778343 15.312086,6.98645657 15.4550244,7.49920925 C15.8238592,8.82130596 17.515762,8.92300571 18.4429248,8.21110748 C21.2243717,6.237802 24.3724048,4.84303462 27.7010171,4.10921767 C32.7564227,2.93628058 38.3430858,3.79055846 41.6964372,4.10921767 C45.0497886,4.42787688 49.7803489,5.80421346 51.1304874,6.56357157 C51.6088603,6.89140568 52.2142893,6.97194154 52.7614817,6.78053103 C53.1527913,6.64614999 53.4640808,6.34423119 53.6108169,5.95676308 C53.9229863,5.1669128 54.6327933,4.6044937 55.4719101,4.48211674 C56.4870518,4.26854727 58.2398631,4.37702701 59.0891983,5.33639462 C59.7364034,6.05873079 60.0475218,7.02212736 59.9453011,7.98736804 C59.8708574,8.53993666 59.1162687,9.99085306 58.0774404,9.9739031 C56.2163473,9.94339318 55.7899878,11.3604097 56.2704882,12.9604857 C56.7509886,14.5605617 61.4849327,26.3373925 62.1752291,28.4188473 C62.8655254,30.5003021 67.0715958,42.1178032 69.0917278,46.3281728 C70.8479229,49.9825837 74.086225,49.5520548 73.9948622,47.7146793 Z" id="Path"></path>
                <path d="M32.2420842,13.8825634 C32.6684438,11.4824494 29.9850859,9.30268477 29.9850859,9.30268477 C28.5672713,8.09584777 26.6012802,9.22132497 26.1749207,10.3603621 C25.7485612,11.4993993 26.6791077,13.4113546 27.9344996,14.7673512 C29.1898915,16.1233478 31.8089571,16.3301373 32.2420842,13.8859534" id="Path"></path>
                <path d="M43.5710656,13.4418645 C44.5286826,12.4824969 44.190302,10.2383224 43.6015198,8.77384608 C43.2631393,7.95685811 42.2479976,7.73311867 41.2869968,7.71616871 C39.8150413,7.68904878 39.1619668,8.73316618 39.2059563,10.7129213 C39.2330267,11.9672181 39.3074704,13.1876151 40.3564502,13.7944236 C41.3917779,14.3792383 42.683189,14.243195 43.5744494,13.4554245" id="Path"></path>
                <path d="M38.3836915,23.2186002 C38.6577798,22.4728021 39.5341854,22.2490626 39.994383,22.2897425 C40.5642674,22.332112 41.1101946,22.5367679 41.5678526,22.879601 C42.5829943,23.4864095 42.5390048,24.4220472 42.3495117,24.7610464 C42.0111312,25.313615 41.0230599,25.4390447 39.8928688,25.4220947 C38.7626777,25.4051448 38.1096032,23.9643983 38.3836915,23.2186002 M51.6211392,35.5208796 C49.7769651,35.5208796 49.1340421,36.5378771 46.5725012,37.5379246 C44.8805984,38.2159229 41.9671417,38.6769618 39.070604,38.7176417 C39.0475456,38.7182483 39.025509,38.7081122 39.0109386,38.6901976 C38.9963682,38.6722831 38.99091,38.6486139 38.9961603,38.6261119 C39.2499457,37.4328349 39.8150413,35.0496708 40.2109466,33.4089149 C40.2181754,33.3812931 40.2405127,33.3602313 40.2684713,33.354675 C41.8300691,33.0193078 43.3692975,32.5868114 44.8772146,32.0596982 C49.1983344,30.5918319 49.7126728,25.703464 49.4588874,22.9440109 C49.205102,20.1845577 46.5860364,17.1132254 42.3867336,16.2419975 C38.1874308,15.3707697 31.8969361,18.048863 29.3929199,19.8150487 C26.8889037,21.5812343 25.0616486,26.7577514 26.2290616,29.2663452 C27.3964745,31.7749389 30.9325515,32.8529563 33.9339871,33.5038346 C34.4574284,33.6123425 34.9876691,33.6848318 35.5209919,33.7207941 C35.5455847,33.7219863 35.5679984,33.7352834 35.5808647,33.7563142 C35.593731,33.777345 35.5953855,33.8033887 35.5852842,33.8258838 C34.6682729,36.0971782 33.9610575,38.2667728 33.8358567,38.6566218 C33.8245255,38.6925443 33.7882323,38.71436 33.7512616,38.7074717 C30.6889174,38.192193 25.2173037,36.0700583 23.3156049,33.2461953 C21.4139061,30.4223323 20.5273491,34.0326733 20.6897717,35.8768288 C20.8521944,37.7209842 23.3359078,39.8736288 27.8972778,41.4669249 C32.3262569,43.0190489 37.046513,43.5554217 41.7099725,43.036491 C46.4202299,42.4432424 52.094872,39.9854985 53.9864194,38.3650826 C55.8779667,36.7446666 53.4653133,35.5242696 51.6177554,35.5242696" id="Shape"></path>
            </g>
        </g>
    </g>
</svg>