<?xml version="1.0" encoding="UTF-8"?>
<svg width="128px" height="128px" viewBox="0 0 128 128" version="1.1" xmlns="http://www.w3.org/2000/svg" xmlns:xlink="http://www.w3.org/1999/xlink">
    <!-- Generator: Sketch 54.1 (76490) - https://sketchapp.com -->
    <title>knowit-logo</title>
    <desc>Created with Sketch.</desc>
    <defs>
        <polygon id="path-1" points="0 0.0299670588 21.9949176 0.0299670588 21.9949176 26.3804773 0 26.3804773"></polygon>
        <polygon id="path-3" points="0.717660504 0.499834622 22.3349244 0.499834622 22.3349244 22.4977748 0.717660504 22.4977748"></polygon>
        <polygon id="path-5" points="0.965915966 0.0206521008 16.8594286 0.0206521008 16.8594286 26.7233882 0.965915966 26.7233882"></polygon>
        <polygon id="path-7" points="0.0760470588 0 4.78010084 0 4.78010084 4.70373109 0.0760470588 4.70373109"></polygon>
    </defs>
    <g id="knowit" stroke="none" stroke-width="1" fill="none" fill-rule="evenodd">
        <g id="logotype-black" transform="translate(0.000000, 49.000000)">
            <g id="Clipped" transform="translate(0.000000, 2.151261)">
                <mask id="mask-2" fill="white">
                    <use xlink:href="#path-1"></use>
                </mask>
                <g id="Path"></g>
                <path d="M21.1920672,5.21561277 L18.1496471,5.21561277 C17.1978218,5.21561277 17.0807933,5.33322218 15.9768739,6.44473546 C15.4217412,7.00268639 6.26095328,16.2285714 6.26095328,16.2285714 L6.26095328,0.831333109 C6.26095328,0.314417479 5.97869714,0.0299670588 5.45957647,0.0299670588 L0.801804908,0.0299670588 C0.282693916,0.0299670588 -0.000656513076,0.314417479 -0.000656513076,0.831333109 L-0.000656513076,2.90176 C-0.000656513076,3.42416134 0.282693916,3.70696605 0.801804908,3.70696605 L2.50573445,3.70696605 L2.50573445,22.6979496 L0.810557311,22.6979496 C0.291992739,22.6979496 0.00864263529,22.9813782 0.00864263529,23.4983261 L0.00864263529,25.5686992 C0.00864263529,26.0883361 0.291992739,26.3804773 0.810557311,26.3804773 L7.93479529,26.3804773 C8.45445378,26.3804773 8.73944202,26.0971563 8.73944202,25.578595 L8.73944202,23.5065008 C8.73944202,22.9840672 8.45445378,22.6979496 7.93479529,22.6979496 L6.26095328,22.6979496 L6.26095328,21.162595 L9.90950185,17.4571563 L16.3314017,25.3072134 C17.1759866,26.3804773 17.1759866,26.3804773 18.4122084,26.3804773 L21.1860437,26.3804773 C21.701916,26.3804773 21.9857748,26.0971563 21.9857748,25.578595 L21.9857748,23.5065008 C21.9857748,22.9879395 21.701916,22.7056941 21.1860437,22.7056941 L18.8985008,22.7056941 L12.5094723,14.8205714 L18.3487462,8.90030252 L21.1920672,8.90030252 C21.7194487,8.90030252 21.994595,8.64043025 21.994595,8.12897882 L21.994595,6.01971092 C21.994595,5.50060101 21.7100908,5.21561277 21.1920672,5.21561277 Z" id="Path" fill="#333333" mask="url(#mask-2)"></path>
            </g>
            <path d="M46.2822185,24.8569546 L44.5952,24.8569546 L44.5952,15.7985345 C44.5952,10.4061096 41.1987899,6.92112134 35.9453042,6.92112134 C33.5232,6.92112134 31.4899361,7.66832941 29.9009076,9.14032941 L29.9009076,8.1797916 C29.9009076,7.66067092 29.6170487,7.37623126 29.099563,7.37623126 L24.5041479,7.37623126 C23.9845109,7.37623126 23.7005445,7.65137748 23.7005445,8.1732195 L23.7005445,10.24256 C23.7005445,10.7611429 23.9845109,11.0510252 24.5036101,11.0510252 L26.1889076,11.0510252 L26.1889076,24.8569546 L24.5036101,24.8569546 C23.9845109,24.8569546 23.7005445,25.1392 23.7005445,25.6577613 L23.7005445,27.7298555 C23.7005445,28.2468034 23.9845109,28.5317378 24.5036101,28.5317378 L31.5895395,28.5317378 C32.1086387,28.5317378 32.3914218,28.2468034 32.3914218,27.7298555 L32.3914218,25.6577613 C32.3914218,25.1392 32.1086387,24.8569546 31.5895395,24.8569546 L29.9009076,24.8569546 L29.9009076,16.444558 C29.9009076,12.9896336 32.3302185,10.4810487 35.6745681,10.4810487 C38.9314689,10.4810487 40.8771765,12.5952 40.8771765,16.1409076 L40.8771765,24.8569546 L39.1929546,24.8569546 C38.6721345,24.8569546 38.3872,25.1392 38.3872,25.6577613 L38.3872,27.7298555 C38.3872,28.2468034 38.6721345,28.5317378 39.1929546,28.5317378 L46.2822185,28.5317378 C46.8013176,28.5317378 47.0846387,28.2468034 47.0846387,27.7298555 L47.0846387,25.6577613 C47.0846387,25.1392 46.8013176,24.8569546 46.2822185,24.8569546 Z" id="Path" fill="#333333"></path>
            <g id="Clipped" transform="translate(46.252101, 6.453782)">
                <mask id="mask-4" fill="white">
                    <use xlink:href="#path-3"></use>
                </mask>
                <g id="Path"></g>
                <path d="M11.541405,18.896242 C7.64009412,18.896242 4.58229244,15.6213782 4.58229244,11.4422319 C4.58229244,7.26136471 7.54382521,4.10571294 11.4680471,4.10571294 C15.3911933,4.10571294 18.4665277,7.37903866 18.4665277,11.5559261 C18.4665277,15.740558 15.489721,18.896242 11.541405,18.896242 Z M11.541405,0.499834622 C5.47226891,0.499834622 0.717660504,5.35782185 0.717660504,11.5559261 C0.717660504,17.6896 5.44,22.4977748 11.4680471,22.4977748 C17.5622454,22.4977748 22.3349244,17.6424874 22.3349244,11.4422319 C22.3349244,5.30533109 17.5945143,0.499834622 11.541405,0.499834622 Z" id="Shape" fill="#333333" mask="url(#mask-4)"></path>
            </g>
            <path d="M100.070077,7.37626353 L92.7894588,7.37626353 C92.2703597,7.37626353 91.9858555,7.66125176 91.9858555,8.17982387 L91.9858555,10.2497022 C91.9858555,10.7671664 92.2703597,11.0510252 92.7894588,11.0510252 L94.4254924,11.0510252 L90.9563697,22.2636101 L86.0464403,7.97797109 C85.9124168,7.59451966 85.5541244,7.33961681 85.1553882,7.33961681 L83.7041479,7.33961681 C83.2999261,7.33961681 82.9416336,7.59451966 82.8092235,7.97797109 L77.948558,22.2570487 L74.477284,11.0510252 L76.1154689,11.0510252 C76.6334924,11.0510252 76.916921,10.7671664 76.916921,10.2497022 L76.916921,8.17982387 C76.916921,7.66125176 76.6334924,7.37626353 76.1154689,7.37626353 L68.7538555,7.37626353 C68.2331429,7.37626353 67.9481008,7.66125176 67.9481008,8.17982387 L67.9481008,10.2497022 C67.9481008,10.7671664 68.2331429,11.0510252 68.7538555,11.0510252 L70.4829311,11.0510252 L76.2533647,27.9897277 C76.3873882,28.3595294 76.7423462,28.6116571 77.1373176,28.6116571 L78.7050487,28.6116571 C79.1071193,28.6116571 79.4643361,28.3545815 79.5939496,27.9727328 L84.4223462,14.0919395 L89.2272941,27.9727328 C89.3558319,28.3545815 89.7141244,28.6116571 90.1183462,28.6116571 L91.6877983,28.6116571 C92.0826622,28.6116571 92.4377277,28.3595294 92.5701378,27.991879 L98.3432605,11.0510252 L100.070077,11.0510252 C100.591973,11.0510252 100.876908,10.7671664 100.876908,10.2497022 L100.876908,8.17982387 C100.876908,7.66125176 100.591973,7.37626353 100.070077,7.37626353 Z" id="Path" fill="#333333"></path>
            <g id="Clipped" transform="translate(110.789916, 2.151261)">
                <mask id="mask-6" fill="white">
                    <use xlink:href="#path-5"></use>
                </mask>
                <g id="Path"></g>
                <path d="M16.0570084,15.6224538 L14.0165378,15.6224538 C13.4970084,15.6224538 13.2119664,15.9046992 13.2119664,16.4237983 L13.2119664,20.3447933 C13.2119664,21.692558 12.2525042,23.0885109 10.644437,23.0885109 C8.62655462,23.0885109 7.76605042,22.2488739 7.76605042,20.2868168 L7.76605042,8.90019496 L12.6913613,8.90019496 C13.2108908,8.90019496 13.4959328,8.61579832 13.4959328,8.09887193 L13.4959328,6.02844504 C13.4959328,5.50987294 13.2108908,5.22488471 12.6913613,5.22488471 L7.76605042,5.22488471 L7.76605042,0.824201681 C7.76605042,0.305091765 7.48208403,0.0206521008 6.96363025,0.0206521008 L4.81882353,0.0206521008 C4.29714286,0.0206521008 4.01210084,0.305091765 4.01210084,0.824201681 L4.01210084,5.22488471 L1.76941176,5.22488471 C1.25095798,5.22488471 0.965915966,5.50987294 0.965915966,6.02844504 L0.965915966,8.09887193 C0.965915966,8.61579832 1.25095798,8.90019496 1.76941176,8.90019496 L4.01210084,8.90019496 L4.01210084,20.4749445 C4.01210084,24.2706286 6.49465546,26.7233882 10.3346555,26.7233882 C14.2994286,26.7233882 16.8594286,24.3499025 16.8594286,20.6751193 L16.8594286,16.4237983 C16.8594286,15.9046992 16.5765378,15.6224538 16.0570084,15.6224538 Z" id="Path" fill="#333333" mask="url(#mask-6)"></path>
            </g>
            <path d="M110.373647,24.8569546 L108.688134,24.8569546 L108.688134,8.17980235 C108.688134,7.66069244 108.403092,7.37624202 107.882487,7.37624202 L103.245445,7.37624202 C102.725271,7.37624202 102.441842,7.66069244 102.441842,8.17980235 L102.441842,10.2496807 C102.441842,10.7671664 102.725271,11.0510252 103.245445,11.0510252 L104.934077,11.0510252 L104.934077,24.8569546 L101.869176,24.8569546 C101.350615,24.8569546 101.066649,25.1393076 101.066649,25.6578689 L101.066649,27.7298555 C101.066649,28.2468034 101.350615,28.5318454 101.869176,28.5318454 L110.373647,28.5318454 C110.894252,28.5318454 111.179294,28.2468034 111.179294,27.7298555 L111.179294,25.6578689 C111.179294,25.1393076 110.894252,24.8569546 110.373647,24.8569546 Z" id="Path" fill="#333333"></path>
            <g id="Clipped" transform="translate(104.336134, 0.000000)">
                <mask id="mask-8" fill="white">
                    <use xlink:href="#path-7"></use>
                </mask>
                <g id="Path"></g>
                <path d="M2.42758992,4.70373109 C3.72705882,4.70373109 4.78010084,3.6507321 4.78010084,2.35158588 C4.78010084,1.05572679 3.72705882,0 2.42758992,0 C1.13070252,0 0.0760470588,1.05572679 0.0760470588,2.35158588 C0.0760470588,3.6507321 1.13070252,4.70373109 2.42758992,4.70373109 Z" id="Path" fill="#333333" mask="url(#mask-8)"></path>
            </g>
        </g>
    </g>
</svg>