<?xml version="1.0" encoding="UTF-8"?>
<svg width="128px" height="128px" viewBox="0 0 128 128" version="1.1" xmlns="http://www.w3.org/2000/svg" xmlns:xlink="http://www.w3.org/1999/xlink">
    <!-- Generator: Sketch 54.1 (76490) - https://sketchapp.com -->
    <title>magine-logo</title>
    <desc>Created with Sketch.</desc>
    <g id="magine" stroke="none" stroke-width="1" fill="none" fill-rule="evenodd">
        <g id="MaginePro_logo" transform="translate(0.000000, 50.000000)" fill-rule="nonzero">
            <path d="M108.979473,8.5190605 C109.572555,7.30009964 111.042961,6.51843416 112.35758,6.51843416 C113.238343,6.51843416 113.952342,7.23243324 113.952342,8.11319573 C113.952342,8.99395822 113.238343,9.7079573 112.35758,9.7079573 C110.201167,9.7079573 108.979473,11.0745053 108.979473,13.1789893 L108.979473,19.683758 C108.979473,20.6165965 108.223258,21.3728114 107.29042,21.3728114 C106.357581,21.3728114 105.601367,20.6165965 105.601367,19.683758 L105.601367,8.36054093 C105.601367,7.42770248 106.357581,6.67148754 107.29042,6.67148754 C108.223258,6.67148754 108.979473,7.42770248 108.979473,8.36054093 L108.979473,8.5190605 Z" id="Shape" stroke="#FFCF2B" stroke-width="2.56" fill="#FFCF2B" stroke-linecap="round" stroke-linejoin="round"></path>
            <path d="M97.6917865,0.0765266904 L90.3506904,0.0765266904 L90.0609822,0.0765266904 C89.16588,0.0765266904 88.4402562,0.802150427 88.4402562,1.69725267 C88.4402562,2.59235491 89.16588,3.31797865 90.0609822,3.31797865 L97.4075445,3.31797865 C99.3207117,3.31797865 100.504142,4.41121708 100.504142,6.47470463 C100.504142,8.53819217 99.3480427,9.66422776 97.4075445,9.66422776 L89.9051957,9.66422776 L89.9051957,19.5662349 C89.9430213,20.5403779 90.7437278,21.310597 91.718605,21.310597 C92.6934821,21.310597 93.4941886,20.5403779 93.5320142,19.5662349 L93.5320142,12.9275445 L97.6917865,12.9275445 C101.41153,12.9275445 104.251217,10.8011957 104.251217,6.48563701 C104.256683,2.10721708 101.348669,0.0765266904 97.6917865,0.0765266904 Z" id="Shape" stroke="#FFCF2B" stroke-width="2.56" fill="#FFCF2B" stroke-linecap="round" stroke-linejoin="round"></path>
            <path d="M121.141751,21.5258648 C116.921851,21.5258648 114.295345,19.1180071 114.295345,14.0207829 C114.295345,8.92355872 116.921851,6.48563701 121.141751,6.48563701 C125.361651,6.48563701 127.988157,8.89349466 127.988157,14.0207829 C127.988157,19.1480712 125.364384,21.5258648 121.141751,21.5258648 Z M121.141751,9.36358719 C118.88968,9.36358719 117.703516,10.9269181 117.703516,14.0098505 C117.703516,17.0927829 118.892413,18.6369822 121.141751,18.6369822 C123.391089,18.6369822 124.579986,17.0736512 124.579986,14.0098505 C124.579986,10.9460498 123.393822,9.36358719 121.141751,9.36358719 Z" id="Shape" stroke="#FFCF2B" stroke-width="2.56" fill="#FFCF2B" stroke-linecap="round" stroke-linejoin="round"></path>
            <path d="M8.34687544,16.9779929 L3.51202847,8.38513879 L3.51202847,19.5908327 C3.51202847,20.5606526 2.72583412,21.346847 1.75601423,21.346847 C0.786194353,21.346847 -2.84217094e-14,20.5606526 -2.84217094e-14,19.5908327 L-2.84217094e-14,1.88037011 C0.0103506478,0.915624851 0.789902431,0.136073068 1.75464769,0.12572242 C2.42509341,0.123446756 3.03688544,0.507545755 3.32617794,1.11237011 L9.85554448,12.8154875 L16.384911,1.11237011 C16.6742035,0.507545755 17.2859955,0.123446756 17.9564413,0.12572242 C18.9211865,0.136073068 19.7007383,0.915624851 19.711089,1.88037011 L19.711089,19.5908327 C19.711089,20.5606526 18.9248946,21.346847 17.9550747,21.346847 C16.9852549,21.346847 16.1990605,20.5606526 16.1990605,19.5908327 L16.1990605,8.38513879 L11.377879,16.9779929 C11.0614854,17.5065766 10.4907165,17.8301375 9.87467616,17.8301375 C9.25863584,17.8301375 8.6878669,17.5065766 8.37147331,16.9779929" id="Shape" fill="#1D1D1B"></path>
            <path d="M25.5325836,10.8203274 C25.092266,11.1623931 24.4963523,11.225983 23.993768,10.984534 C23.4911837,10.7430851 23.1684023,10.2381406 23.1602562,9.68062633 C23.1634145,9.30361696 23.3066105,8.94124354 23.5620214,8.66391459 C24.4256797,7.71006406 25.9644128,6.69335231 28.6127829,6.69335231 C32.4391174,6.69335231 34.7103203,8.57098932 34.7103203,11.8370391 L34.7103203,19.7220214 C34.7727539,20.3440134 34.4761302,20.9473987 33.9454845,21.2778335 C33.4148387,21.6082683 32.7424851,21.6082683 32.2118394,21.2778335 C31.6811936,20.9473987 31.38457,20.3440134 31.4470036,19.7220214 C30.6270747,21.047573 29.2605267,21.5094662 27.4129537,21.5094662 C24.406548,21.5094662 22.3922562,19.6318292 22.3922562,16.8632028 C22.3922562,13.9989181 24.7017224,12.5203132 27.3801566,12.5203132 L31.4142064,12.5203132 L31.4142064,11.973694 C31.4142064,10.5880142 30.3974947,9.66422776 28.6127829,9.66422776 C27.2462349,9.66422776 26.3033167,10.2819075 25.5325836,10.8339929 M31.4142064,15.9776797 L31.4142064,15.1140214 L27.8119858,15.1140214 C26.4454377,15.1140214 25.7184342,15.7617651 25.7184342,16.868669 C25.7184342,18.0384342 26.538363,18.746306 28.273879,18.746306 C29.9137367,18.746306 31.4142064,17.6995302 31.4142064,15.9749466" id="Shape" fill="#1D1D1B"></path>
            <path d="M37.0225196,14.080911 C37.0225196,9.06021352 39.4549751,6.7015516 43.6120142,6.7015516 C47.3372242,6.7015516 49.9855943,8.76503915 49.9855943,12.8619502 L49.9855943,20.6540071 C49.9855943,24.9039715 47.8920427,27.306363 43.3332384,27.306363 C40.8379217,27.306363 38.9903488,26.5356299 37.943573,25.2729395 C37.7400433,25.0198924 37.6308594,24.7039357 37.6347331,24.3792171 C37.6450446,23.5669156 38.3010366,22.9109236 39.1133381,22.9006121 C39.4738478,22.9117496 39.8206294,23.0414324 40.0999858,23.2695801 C40.8707189,23.8161993 41.8874306,24.4694093 43.3332384,24.4694093 C45.5197153,24.4694093 46.6293523,23.3297082 46.6293523,21.4630036 L46.6293523,20.2932384 C46.0144057,20.9081851 44.7517153,21.5258648 43.2703772,21.5258648 C39.3893808,21.5258648 37.0197865,19.1234733 37.0197865,14.1027758 L37.0225196,14.080911 Z M46.6594164,12.8701495 C46.6594164,10.7438007 45.396726,9.54397153 43.6120142,9.54397153 C41.4856655,9.54397153 40.3159004,11.0854377 40.3159004,14.1027758 C40.3159004,17.1201139 41.5184626,18.6916441 43.6120142,18.6916441 C45.4595872,18.6916441 46.6594164,17.1201139 46.6594164,17.1201139 L46.6594164,12.8701495 Z" id="Shape" fill="#1D1D1B"></path>
            <path d="M52.3579217,2.1673452 C52.3579217,0.751601423 53.0657936,0.133921708 54.328484,0.133921708 C55.5911744,0.133921708 56.3291103,0.748868327 56.3291103,2.1673452 C56.3291103,3.36990747 55.6212384,4.10784342 54.328484,4.10784342 C53.0357295,4.10784342 52.3579217,3.36990747 52.3579217,2.1673452 L52.3579217,2.1673452 Z M55.9929395,19.8231459 C55.9929395,20.7416446 55.2483494,21.4862349 54.3298505,21.4862349 C53.4113517,21.4862349 52.6667616,20.7416446 52.6667616,19.8231459 L52.6667616,8.53819217 C52.6667616,7.61969351 53.4113517,6.8751032 54.3298505,6.8751032 C55.2483494,6.8751032 55.9929395,7.61969351 55.9929395,8.53819217 L55.9929395,19.8231459 Z" id="Shape" fill="#1D1D1B"></path>
            <path d="M71.109694,12.0502206 L71.109694,19.8860071 C71.109258,20.3216525 70.9316765,20.7383891 70.6177581,21.0404521 C70.3038392,21.3425152 69.8805778,21.5039291 69.4452384,21.4876014 C69.0075536,21.5136858 68.5789253,21.3554126 68.2632268,21.0511377 C67.9475287,20.7468628 67.773573,20.324356 67.783516,19.8860071 L67.783516,12.6651673 C67.783516,10.9105196 67.0756441,9.7079573 65.0722847,9.7079573 C62.7628185,9.7079573 61.9920854,11.0745053 61.9920854,12.8810819 L61.9920854,19.8860071 C61.9559056,20.778295 61.2220174,21.4830293 60.3289964,21.4830293 C59.4359755,21.4830293 58.7020873,20.778295 58.6659075,19.8860071 L58.6659075,8.53819217 C58.6659075,7.61969351 59.4104976,6.8751032 60.3289964,6.8751032 C61.2474953,6.8751032 61.9920854,7.61969351 61.9920854,8.53819217 C62.576968,7.64446975 63.8697224,6.69061922 65.93321,6.69061922 C70.1203132,6.69061922 71.1069609,9.36905338 71.1069609,12.0502206" id="Shape" fill="#1D1D1B"></path>
            <path d="M80.4432171,6.69061922 C85.6360996,6.69061922 86.6036157,10.694605 86.6036157,12.8209537 C86.6036157,13.9606548 86.6036157,15.2807402 84.7259786,15.2807402 L77.1170391,15.2807402 C77.1170391,17.4972811 78.6885694,18.5139929 80.7192598,18.5139929 C81.8102252,18.5196314 82.8760174,18.1863325 83.769395,17.5601423 C84.0532776,17.3440167 84.3992735,17.2251705 84.7560427,17.2212384 C85.139968,17.2205127 85.5084176,17.3725179 85.7801507,17.6437382 C86.0518833,17.9149585 86.2045845,18.2831202 86.2045836,18.6670463 C86.1991871,19.1041693 86.0084421,19.5184435 85.6798292,19.8067473 C85.1578078,20.2987046 83.5234164,21.5012669 80.7219929,21.5012669 C76.4392313,21.5012669 73.7908612,19.1918007 73.7908612,14.0481139 C73.7908612,9.33352313 76.2506477,6.68788612 80.4432171,6.68788612 M77.2099644,12.5093808 L83.3075018,12.5093808 C83.3075018,11.0007117 82.4465765,9.52210676 80.4432171,9.52210676 C78.6557722,9.52210676 77.3630178,10.5388185 77.2099644,12.5093808" id="Shape" fill="#1D1D1B"></path>
        </g>
    </g>
</svg>