<?xml version="1.0" encoding="UTF-8"?>
<svg width="128px" height="128px" viewBox="0 0 128 128" version="1.1" xmlns="http://www.w3.org/2000/svg" xmlns:xlink="http://www.w3.org/1999/xlink">
    <!-- Generator: Sketch 54.1 (76490) - https://sketchapp.com -->
    <title>mr-green-logo</title>
    <desc>Created with Sketch.</desc>
    <g id="mr-green" stroke="none" stroke-width="1" fill="none" fill-rule="evenodd">
        <g id="mr-green-seeklogo.com" transform="translate(0.000000, 38.000000)" fill="#17733D" fill-rule="nonzero">
            <path d="M66.88,15.168 C66.88,12.352 68.672,11.776 71.296,11.712 L71.296,6.144 C68.096,6.144 67.072,7.872 66.624,8.768 L66.56,8.768 L66.56,6.784 L61.312,6.784 L61.312,23.872 L66.88,23.872 L66.88,15.168 L66.88,15.168 Z M120.512,25.792 C119.104,24.768 117.44,24.192 115.712,24.192 C112.384,24.192 111.232,25.92 110.656,26.816 L110.592,26.816 L110.592,24.832 L105.408,24.832 L105.408,30.08 C103.872,26.496 100.352,24.128 96.448,24.192 C92.544,24.192 89.024,26.56 87.488,30.144 C85.4066304,25.1915439 79.718164,22.8475527 74.752,24.896 C73.4434344,25.457554 72.266373,26.2858565 71.296,27.328 L71.296,24.128 C68.544,24.128 67.456,25.344 66.88,26.24 L66.88,24.704 L61.312,24.704 L61.312,43.392 L66.88,43.392 L66.88,33.152 C66.88,30.976 67.904,30.144 69.568,29.888 C68.1203121,32.9399905 68.3364514,36.5207657 70.1407334,39.3764639 C71.9450155,42.2321621 75.0860662,43.9649251 78.464,43.968 C80.384,43.968 82.24,43.392 83.776,42.304 C85.312,41.216 86.528,39.744 87.36,38.016 C88.96,41.6 92.48,43.968 96.448,43.968 C98.368,43.968 100.224,43.392 101.76,42.304 C103.296,41.216 104.512,39.744 105.344,38.016 L105.344,43.392 L110.912,43.392 L110.912,33.344 C110.912,32.192 110.912,29.44 114.112,29.44 C117.056,29.44 117.056,32 117.056,33.28 L117.056,43.52 L122.624,43.52 L122.624,31.808 C122.688,28.16 121.536,26.688 120.512,25.792 L120.512,25.792 Z M78.656,28.928 C80.64,28.8 82.432,30.208 82.88,32.128 L74.432,32.128 C74.842926,30.1559188 76.6463129,28.7897166 78.656,28.928 L78.656,28.928 Z M81.92,37.632 C81.174503,38.7673493 79.8846997,39.4244189 78.528,39.36 C76.352,39.36 74.496,38.08 74.176,35.84 L86.784,35.84 C86.912,36.48 87.04,37.056 87.232,37.632 L81.92,37.632 L81.92,37.632 Z M96.448,28.864 C98.432,28.736 100.224,30.08 100.672,32.064 L92.224,32.064 C92.672,30.144 94.464,28.8 96.448,28.864 Z M105.408,37.632 L99.904,37.632 C99.158503,38.7673493 97.8686997,39.4244189 96.512,39.36 C94.336,39.36 92.48,38.08 92.16,35.84 L105.408,35.84 L105.408,37.632 L105.408,37.632 Z M126.848,23.616 L126.336,25.28 L126.272,25.28 L125.76,23.616 L124.864,23.616 L124.864,26.24 L125.568,26.24 L125.504,24.448 L125.568,24.448 L126.08,26.24 L126.592,26.24 L127.04,24.448 L127.104,24.448 L127.04,26.24 L127.744,26.24 L127.744,23.616 L126.848,23.616 Z M48.384,8.384 C48.064,8.704 47.808,9.088 47.552,9.472 C46.57694,7.39613821 44.4688473,6.09112841 42.176,6.144 C38.656,6.144 37.504,8 37.056,8.768 L36.992,8.768 L36.992,6.784 L31.744,6.784 L31.744,16.128 L31.552,15.744 C30.656,14.656 29.888,13.504 28.672,12.736 C28.416,12.544 28.224,12.288 28.032,12.032 C27.776,11.712 27.584,11.392 27.328,11.136 C26.88,10.752 26.624,10.24 26.432,9.664 C26.432,9.472 26.304,9.28 26.112,9.216 C25.664,9.024 25.216,8.896 24.768,8.896 C24,8.832 23.36,8.448 22.912,7.808 L23.232,6.784 L24.128,6.528 C24.768,6.464 25.216,5.888 25.152,5.248 C25.152,5.12 25.088,4.928 25.024,4.8 L24.448,3.84 C24.576,2.112 23.296,0.704 21.568,0.576 L21.184,0.576 C20.928,0.576 20.672,0.576 20.48,0.64 C19.84,0.768 19.328,1.216 19.072,1.792 C18.496,1.92 17.92,1.792 17.536,2.304 C17.408,2.432 17.408,2.624 17.536,2.752 L18.304,3.776 C18.176,4.736 18.304,5.696 18.752,6.528 C18.24,7.488 17.344,8.192 16.32,8.576 C15.552,8.832 14.784,9.152 13.952,9.472 C13.824,9.536 13.76,9.6 13.76,9.664 C13.504,10.176 13.248,10.752 13.056,11.328 C12.864,11.904 12.736,12.48 12.608,12.992 C12.48,13.696 12.352,14.4 12.096,15.104 C11.584,16.064 11.328,17.088 10.816,17.984 C9.92,19.584 9.472,21.312 8.768,22.976 C8.448,23.616 8.256,24.256 8.064,24.896 C8,25.344 7.744,25.728 7.296,25.92 C6.52587449,26.3050498 5.93100096,26.9685626 5.632,27.776 C5.312,28.288 5.248,28.928 5.504,29.44 C5.568,29.504 5.568,29.568 5.568,29.696 C5.504,30.016 5.44,30.336 5.312,30.592 L4.992,31.552 C4.8,32.064 4.672,32.512 4.48,33.088 C4.288,33.664 3.904,34.112 3.392,34.368 C3.328,34.432 3.2,34.56 3.2,34.752 L3.2,35.2 C3.264,35.648 3.328,36.16 3.328,36.672 C3.264,37.184 3.2,37.76 3.008,38.272 C2.496,40.128 1.984,41.92 1.536,43.712 C1.216,45.312 0.96,46.912 0.896,48.512 C0.832,49.024 0.768,49.536 0.576,49.984 L0.704,49.984 L0.832,49.92 L1.216,48.768 C1.408,48.256 1.728,47.808 2.304,46.4 C3.072,44.608 3.648,42.752 4.032,40.896 C4.224,40.064 4.416,39.168 4.544,38.336 C4.544,37.888 4.8,37.504 5.12,37.312 C5.632,36.928 6.08,36.48 6.4,35.904 C6.528,35.712 6.528,35.456 6.4,35.264 L5.888,34.624 C5.76,34.432 5.76,34.368 5.76,34.24 L5.952,31.744 C6.016,30.72 6.208,29.76 6.592,28.8 L6.656,28.736 C7.232,28.736 7.808,28.544 8.384,28.992 C8.384,28.992 8.448,29.056 8.384,29.12 L8.128,29.696 C8.064,29.888 8.128,30.08 8.32,30.144 C8.384,30.144 8.448,30.208 8.576,30.144 C8.704,30.08 8.768,30.016 8.832,29.888 C8.96,29.696 9.088,29.44 9.088,29.184 C9.152,28.672 9.024,28.16 8.768,27.776 L8.768,27.584 L9.536,26.048 C9.6,25.984 9.6,25.92 9.728,25.856 C10.048,25.6 10.304,25.28 10.496,24.96 C11.2,23.68 11.968,22.4 12.672,21.056 C13.44,19.84 14.08,18.496 14.592,17.152 C14.72,16.896 14.784,16.64 14.976,16.448 C15.36,16.64 15.296,16.896 15.36,17.152 C15.424,18.304 15.488,19.52 15.616,20.672 C15.68,21.248 15.744,21.824 15.872,22.528 C15.872,22.656 15.872,22.784 15.808,22.912 C15.552,23.744 15.424,24.704 15.552,25.6 L15.552,25.984 C15.552,26.624 15.488,27.264 15.296,27.84 C15.104,28.608 14.976,29.44 14.912,30.272 C14.848,32.192 14.912,34.112 14.848,36.032 C14.784,36.928 15.232,37.76 15.936,38.272 C17.088,39.168 18.112,40.192 19.264,41.152 C19.264,41.472 19.2,41.792 19.136,42.048 C18.56,43.52 18.368,45.056 18.624,46.592 L18.56,46.72 C18.624,46.976 18.688,47.232 18.688,47.424 L18.688,48.128 C18.688,48.192 18.688,48.32 18.624,48.384 L18.624,49.28 C18.56,49.536 18.688,49.792 18.944,49.92 L19.2,50.048 C19.392,50.176 19.648,50.176 19.84,50.048 C19.968,49.984 20.032,50.048 20.096,50.176 C20.16,50.304 20.16,50.368 20.16,50.496 C20.16,50.752 20.224,50.944 20.352,51.136 C20.48,51.328 20.736,51.52 20.928,51.584 C21.056,51.648 21.184,51.648 21.312,51.712 C21.376,51.776 21.44,51.776 21.568,51.776 L22.208,51.776 C22.336,51.776 22.528,51.776 22.656,51.712 C22.72,51.712 22.784,51.648 22.848,51.648 L22.976,51.584 C23.04,51.52 23.104,51.456 23.104,51.392 L23.104,51.136 C23.04,50.752 22.912,50.368 22.784,49.984 C22.592,49.664 22.4,49.344 22.144,49.024 L21.632,48.32 C21.568,48.256 21.568,48.192 21.504,48.128 C21.376,47.936 21.312,47.744 21.248,47.552 C21.248,47.488 21.184,47.36 21.248,47.232 C21.248,46.976 21.312,46.72 21.44,46.528 L21.44,46.464 L22.016,44.608 L22.72,45.184 L24.064,44.544 L24.96,46.144 C25.088,46.272 25.152,46.4 25.216,46.528 C25.344,46.656 25.408,46.784 25.536,46.976 C25.664,47.104 25.792,47.296 25.92,47.424 L25.984,47.488 L25.984,47.552 C26.048,47.68 26.112,47.808 26.048,47.936 L26.048,48 C26.048,48.128 26.048,48.256 25.984,48.384 C25.92,48.704 25.856,49.024 25.792,49.408 L25.792,50.112 C25.792,50.368 25.92,50.56 26.112,50.752 C26.176,50.88 26.368,50.88 26.496,50.816 L26.56,50.752 C26.624,50.688 26.752,50.624 26.816,50.496 C27.136,50.112 27.392,49.664 27.584,49.216 C27.84,48.64 27.968,48.064 27.904,47.488 L27.904,45.184 L28.096,45.184 C28.288,44.736 28.416,44.288 28.544,43.84 C28.672,43.392 28.864,42.816 28.352,42.496 C27.904,42.368 27.52,42.24 27.072,42.176 C26.624,42.176 26.176,42.24 25.728,42.304 C24.768,41.408 23.936,40.384 23.168,39.296 C23.36,38.144 23.552,37.056 23.68,35.904 C23.808,34.56 24,33.152 24.256,31.808 C24.32,31.552 24.384,31.168 24.448,30.912 C24.64,29.504 24.768,28.096 24.96,26.624 C24.96,26.56 24.96,26.56 25.024,26.496 L25.536,25.92 C25.6,25.856 25.664,25.728 25.6,25.664 L25.28,23.296 L25.664,22.784 L25.92,21.632 L26.048,21.76 C26.432,21.568 26.88,21.312 27.2,21.12 C27.648,20.864 28.096,20.544 28.48,20.16 C29.504,19.392 30.464,18.56 31.488,17.728 L31.744,17.472 L31.744,25.216 L37.312,25.216 L37.312,15.552 C37.312,14.464 37.312,11.392 40.448,11.392 C43.264,11.392 43.264,14.272 43.264,15.296 L43.264,26.688 C41.216,28.672 40.064,31.424 40.192,34.304 C40.192,40.256 44.544,44.096 49.6,44.096 C52.544,44.096 54.144,42.496 54.72,41.408 L54.784,41.408 L54.784,41.984 C54.784,46.976 50.944,47.04 50.24,47.04 C49.856,47.04 47.808,47.04 46.976,45.184 L40.512,45.184 C40.896,47.872 43.328,51.712 49.792,51.712 C54.4,51.712 57.792,49.664 59.264,47.296 C60.16,45.696 60.352,43.904 60.352,41.152 L60.352,24.832 L54.784,24.832 L54.784,26.56 L54.72,26.56 C53.696,24.96 51.648,24.192 49.6,24.192 L48.832,24.192 L48.832,15.232 C48.832,14.208 48.832,11.392 51.904,11.392 C54.784,11.392 54.784,14.016 54.784,15.552 L54.784,23.872 L60.352,23.872 L60.352,15.232 C60.352,11.072 60.096,9.856 58.304,8 C55.552,5.376 51.072,5.504 48.384,8.384 Z M19.584,36.16 L19.072,35.52 C19.008,34.624 19.2,33.792 19.584,33.024 L19.584,36.16 Z M24.96,19.264 L24.32,18.816 C24.256,17.984 24.128,17.216 24.64,16.512 C24.896,16.064 25.152,15.552 25.344,15.04 C25.408,14.912 25.536,14.784 25.664,14.656 C26.56,15.296 27.392,16.064 28.096,16.896 C27.392,17.984 26.24,18.816 24.96,19.264 L24.96,19.264 Z M50.176,29.44 L50.24,29.44 C52.736,29.44 54.784,31.232 54.784,34.24 C54.912,36.672 52.992,38.784 50.56,38.848 L50.24,38.848 C47.936,38.848 45.76,37.056 45.76,34.048 C45.696,31.552 47.68,29.504 50.176,29.44 Z M122.752,24.256 L123.264,24.256 L123.264,26.24 L123.968,26.24 L123.968,24.256 L124.544,24.256 L124.544,23.616 L122.752,23.616 L122.752,24.256 Z" id="Shape"></path>
        </g>
    </g>
</svg>