<?xml version="1.0" encoding="UTF-8"?>
<svg width="128px" height="128px" viewBox="0 0 128 128" version="1.1" xmlns="http://www.w3.org/2000/svg" xmlns:xlink="http://www.w3.org/1999/xlink">
    <!-- Generator: Sketch 54.1 (76490) - https://sketchapp.com -->
    <title>na-kd-logo</title>
    <desc>Created with Sketch.</desc>
    <g id="na-kd" stroke="none" stroke-width="1" fill="none" fill-rule="evenodd">
        <g id="na-kd-logo" transform="translate(0.000000, 51.000000)" fill="#0D0F11">
            <path d="M41.1855448,-0.000294252874 L51.4461425,25.3319356 L46.3173149,25.3319356 L41.1855448,12.6658207 L36.055246,25.3319356 L30.9249471,25.3319356 L41.1855448,-0.000294252874 Z M127.061775,12.6658207 C127.061775,19.6616828 121.320901,25.3319356 114.238234,25.3319356 L106.263982,25.3319356 L106.263982,-0.000294252874 L114.238234,-0.000294252874 C121.320901,-0.000294252874 127.061775,5.66995862 127.061775,12.6658207 Z M111.39428,20.687154 L113.810097,20.687154 C118.29451,20.687154 121.932947,17.097269 121.932947,12.6658207 C121.932947,8.23584368 118.29451,4.64448736 113.810097,4.64448736 L111.39428,4.64448736 L111.39428,20.687154 Z M20.5216368,-0.000294252874 L20.5216368,25.3319356 L15.7517977,25.3319356 L5.13074023,9.19510805 L5.13074023,25.3319356 L0.00044137931,25.3319356 L0.00044137931,-0.000294252874 L4.77028046,-0.000294252874 L15.3913379,16.1365333 L15.3913379,-0.000294252874 L20.5216368,-0.000294252874 Z M65.8380506,10.7664184 L65.8380506,14.565223 L56.9133609,14.565223 L55.3744184,10.7664184 L65.8380506,10.7664184 Z M89.4808276,-0.000294252874 L95.2525977,-0.000294252874 L85.6334713,12.6658207 L95.2525977,25.3319356 L89.4808276,25.3319356 L79.8602299,12.6658207 L89.4808276,-0.000294252874 Z M74.5567632,25.3319356 L74.5567632,-0.000294252874 L79.6870621,-0.000294252874 L79.6870621,25.3319356 L74.5567632,25.3319356 Z" id="Shape"></path>
        </g>
    </g>
</svg>