<?xml version="1.0" encoding="UTF-8"?>
<svg width="128px" height="128px" viewBox="0 0 128 128" version="1.1" xmlns="http://www.w3.org/2000/svg" xmlns:xlink="http://www.w3.org/1999/xlink">
    <!-- Generator: Sketch 54.1 (76490) - https://sketchapp.com -->
    <title>peab-logo</title>
    <desc>Created with Sketch.</desc>
    <g id="peab" stroke="none" stroke-width="1" fill="none" fill-rule="evenodd">
        <g id="peabbostad_logo_web" transform="translate(0.000000, 48.000000)" fill-rule="nonzero">
            <path d="M35.2,26.24 L38.352,26.24 C38.909871,26.1983085 39.462229,26.3741456 39.8933333,26.7306667 C40.2606728,27.0979059 40.4545753,27.6039914 40.4266667,28.1226667 C40.4572061,28.665814 40.2532998,29.1959703 39.8666667,29.5786667 C39.3861413,29.9667116 38.7759735,30.1573891 38.16,30.112 L37.104,30.112 L37.104,32.3893333 L35.2,32.3893333 L35.2,26.24 Z M37.104,28.8586667 L37.568,28.8586667 C37.8384138,28.8842425 38.1094352,28.8164871 38.336,28.6666667 C38.4824363,28.5464817 38.5651167,28.3653722 38.56,28.176 C38.5640053,27.994961 38.4947771,27.8199676 38.368,27.6906667 C38.1614875,27.5319354 37.9015482,27.4593053 37.6426667,27.488 L37.1093333,27.488 L37.104,28.8586667 Z" id="Shape" fill="#000000"></path>
            <path d="M45.9946667,30.5813333 L42.5813333,30.5813333 C42.5935069,30.8018427 42.6715349,31.0136331 42.8053333,31.1893333 C42.9629245,31.3787792 43.1990296,31.4850265 43.4453333,31.4773333 C43.6130752,31.4772392 43.7781131,31.4350628 43.9253333,31.3546667 C44.0405463,31.2785007 44.1416122,31.1828491 44.224,31.072 L45.8986667,31.2266667 C45.6875761,31.6288796 45.365495,31.9620669 44.9706667,32.1866667 C44.481,32.4088579 43.9449104,32.509489 43.408,32.48 C42.9328941,32.500518 42.4591879,32.4148865 42.0213333,32.2293333 C41.6732828,32.0609375 41.3808317,31.7962507 41.1786667,31.4666667 C40.9530623,31.0803781 40.8386262,30.6392453 40.848,30.192 C40.8233645,29.5599019 41.0652425,28.9464994 41.5146667,28.5013333 C42.020492,28.0510936 42.6838233,27.8191194 43.36,27.856 C43.8793521,27.8313588 44.3970149,27.9319647 44.8693333,28.1493333 C45.2254927,28.3265602 45.5180094,28.6097611 45.7066667,28.96 C45.9186947,29.4093204 46.0175693,29.9036934 45.9946667,30.4 L45.9946667,30.5813333 Z M44.2666667,29.76 C44.2631651,29.5022521 44.1708629,29.2536012 44.0053333,29.056 C43.8329467,28.9019693 43.6045492,28.8260618 43.374257,28.8462629 C43.1439647,28.866464 42.9322707,28.980976 42.7893333,29.1626667 C42.6688974,29.3393606 42.6005221,29.5463346 42.592,29.76 L44.2666667,29.76 Z" id="Shape" fill="#000000"></path>
            <path d="M48.3306667,29.3706667 L46.704,29.2 C46.7485098,28.9608381 46.8390778,28.7326067 46.9706667,28.528 C47.1038266,28.3501315 47.2751295,28.2043418 47.472,28.1013333 C47.6736134,28.0022704 47.8896078,27.9356721 48.112,27.904 C48.4061857,27.853516 48.7041818,27.8285343 49.0026667,27.8293333 C49.4149851,27.8237095 49.8270609,27.8522516 50.2346667,27.9146667 C50.5205458,27.9632442 50.787849,28.0886002 51.008,28.2773333 C51.1668806,28.4218479 51.2846515,28.6058648 51.3493333,28.8106667 C51.4307839,29.019949 51.4741336,29.2421159 51.4773333,29.4666667 L51.4773333,31.4346667 C51.4727426,31.599074 51.4852543,31.7635132 51.5146667,31.9253333 C51.5558622,32.0826589 51.6149124,32.234758 51.6906667,32.3786667 L50.0906667,32.3786667 C50.0411874,32.2950607 49.9983877,32.207678 49.9626667,32.1173333 C49.9626667,32.0586667 49.9253333,31.9626667 49.904,31.8346667 C49.7146528,32.0281299 49.4902151,32.1837882 49.2426667,32.2933333 C48.903375,32.4269849 48.5405156,32.4904853 48.176,32.48 C47.7408357,32.5111473 47.3095515,32.3800521 46.9653333,32.112 C46.4647442,31.655538 46.4152436,30.8847441 46.8533333,30.368 C47.1616388,30.0890736 47.5495865,29.9137511 47.9626667,29.8666667 C48.6026667,29.7386667 49.0293333,29.648 49.2053333,29.5946667 C49.4107945,29.5415568 49.6121965,29.4738287 49.808,29.392 C49.8242133,29.2350883 49.778258,29.0780745 49.68,28.9546667 C49.5506571,28.8559183 49.3885554,28.8101484 49.2266667,28.8266667 C49.0079913,28.8123743 48.7897521,28.8604609 48.5973333,28.9653333 C48.4642268,29.0655236 48.3699838,29.2087729 48.3306667,29.3706667 Z M49.808,30.2666667 C49.5685187,30.3540281 49.3246296,30.428797 49.0773333,30.4906667 C48.8413027,30.5319125 48.6172985,30.6247923 48.4213333,30.7626667 C48.3304868,30.8420946 48.2780573,30.9566629 48.2773333,31.0773333 C48.274169,31.2023087 48.3246404,31.3226636 48.416,31.408 C48.5341207,31.5005388 48.6822892,31.5461291 48.832,31.536 C49.0188548,31.5372905 49.2027702,31.4894725 49.3653333,31.3973333 C49.5115616,31.3196041 49.6320132,31.2010056 49.712,31.056 C49.7896423,30.8894276 49.8244731,30.7061076 49.8133333,30.5226667 L49.808,30.2666667 Z" id="Shape" fill="#000000"></path>
            <path d="M52.5866667,26.24 L54.3093333,26.24 L54.3093333,28.3733333 C54.4717576,28.1980463 54.6700315,28.0598003 54.8906667,27.968 C55.1181876,27.8783219 55.360782,27.8330618 55.6053333,27.8346667 C56.1180666,27.821745 56.6101957,28.0365633 56.9493333,28.4213333 C57.3329405,28.8917818 57.5235696,29.4903573 57.4826667,30.096 C57.4931526,30.53701 57.4095166,30.9751897 57.2373333,31.3813333 C57.1014978,31.7195824 56.8674341,32.0093755 56.5653333,32.2133333 C56.2820853,32.3944169 55.9521661,32.4889443 55.616,32.4853333 C55.3307763,32.4882179 55.0490538,32.4223607 54.7946667,32.2933333 C54.5561607,32.1455685 54.3480025,31.953701 54.1813333,31.728 L54.1813333,32.384 L52.5813333,32.384 L52.5866667,26.24 Z M54.2986667,30.144 C54.2722695,30.4375911 54.3475882,30.7313343 54.512,30.976 C54.6416495,31.1379322 54.8378942,31.2321297 55.0453333,31.232 C55.2544431,31.2398071 55.4539625,31.1440378 55.5786667,30.976 C55.7367201,30.7229266 55.807877,30.4251909 55.7813333,30.128 C55.8071841,29.8469278 55.7335734,29.5656972 55.5733333,29.3333333 C55.456423,29.1801916 55.2753262,29.0896432 55.0826667,29.088 C54.8649101,29.0819982 54.6564712,29.1763855 54.5173333,29.344 C54.3494885,29.5751565 54.2717391,29.8596058 54.2986667,30.144 L54.2986667,30.144 Z" id="Shape" fill="#000000"></path>
            <path d="M61.2746667,26.24 L64.8266667,26.24 C65.3192424,26.2065253 65.8059262,26.3630276 66.1866667,26.6773333 C66.4889494,26.9495205 66.6614808,27.3372314 66.6613333,27.744 C66.6682505,28.0858989 66.5485875,28.4182961 66.3253333,28.6773333 C66.1420595,28.8665801 65.9148916,29.0076441 65.664,29.088 C66.0370416,29.1552167 66.3778977,29.3425003 66.6346667,29.6213333 C66.8487476,29.9004784 66.958205,30.2458353 66.944,30.5973333 C66.976701,31.2094967 66.6635839,31.7883513 66.1333333,32.096 C65.9081692,32.2072375 65.6637483,32.274227 65.4133333,32.2933333 C65.1324697,32.337496 64.8493648,32.3659845 64.5653333,32.3786667 L61.2906667,32.3786667 L61.2746667,26.24 Z M63.1893333,28.6453333 L64,28.6453333 C64.2172326,28.6677839 64.4355956,28.6150756 64.6186667,28.496 C64.7436331,28.3842982 64.8088185,28.2203472 64.7946667,28.0533333 C64.8021272,27.8936064 64.7375279,27.7389596 64.6186667,27.632 C64.4397043,27.5172128 64.2278525,27.4647185 64.016,27.4826667 L63.1786667,27.4826667 L63.1893333,28.6453333 Z M63.1893333,31.0613333 L64.1546667,31.0613333 C64.3973708,31.0829713 64.6401675,31.0208605 64.8426667,30.8853333 C64.9939297,30.7713014 65.0780276,30.5890892 65.0666667,30.4 C65.0738757,30.2311944 65.0006711,30.0689573 64.8693333,29.9626667 C64.6612102,29.8316326 64.4154439,29.7734742 64.1706667,29.7973333 L63.2106667,29.7973333 L63.1893333,31.0613333 Z" id="Shape" fill="#000000"></path>
            <path d="M67.616,30.1653333 C67.5974584,29.5348016 67.8475475,28.9260575 68.304,28.4906667 C69.446185,27.5671548 71.0918298,27.6170229 72.176,28.608 C72.5380662,29.0361679 72.7281413,29.5835842 72.7093333,30.144 C72.7294314,30.7753125 72.4814235,31.3856444 72.0266667,31.824 C71.5110574,32.2838851 70.8337508,32.5198871 70.144,32.48 C69.5216578,32.5101805 68.9083942,32.321484 68.4106667,31.9466667 C67.8823063,31.5094364 67.5883884,30.850587 67.616,30.1653333 L67.616,30.1653333 Z M69.3226667,30.1653333 C69.2985369,30.4775905 69.3833474,30.7885622 69.5626667,31.0453333 C69.7113307,31.2277199 69.9353994,31.3318922 70.1706667,31.328 C70.40459,31.3326621 70.6273561,31.2281789 70.7733333,31.0453333 C70.9554455,30.7838267 71.0403483,30.4668561 71.0133333,30.1493333 C71.0368323,29.842129 70.9519092,29.5364058 70.7733333,29.2853333 C70.6296662,29.1054669 70.4115297,29.0013116 70.1813333,29.0026667 C69.9433013,28.998415 69.7167558,29.104793 69.568,29.2906667 C69.3880156,29.5449279 69.3047917,29.8551261 69.3333333,30.1653333 L69.3226667,30.1653333 Z" id="Shape" fill="#000000"></path>
            <path d="M73.2426667,31.1466667 L74.9333333,30.9866667 C74.9822001,31.1569615 75.0851633,31.3067261 75.2266667,31.4133333 C75.5458838,31.6015238 75.9421162,31.6015238 76.2613333,31.4133333 C76.3510509,31.3542498 76.4051365,31.2540913 76.4053333,31.1466667 C76.4046243,31.0209278 76.3291273,30.9076823 76.2133333,30.8586667 C75.9770113,30.7732417 75.731966,30.7142162 75.4826667,30.6826667 C75.0642307,30.6236121 74.6519193,30.5272277 74.2506667,30.3946667 C74.0161949,30.3073558 73.8123032,30.1535102 73.664,29.952 C73.3368889,29.5158519 73.3368889,28.9161481 73.664,28.48 C73.8475865,28.2567628 74.0922137,28.0918247 74.368,28.0053333 C74.756361,27.8858299 75.1618953,27.8317587 75.568,27.8453333 C75.9629573,27.8301299 76.3580608,27.8714362 76.7413333,27.968 C76.98082,28.040086 77.198819,28.1701527 77.376,28.3466667 C77.5607864,28.545709 77.7040241,28.7796034 77.7973333,29.0346667 L76.1973333,29.1946667 C76.1672885,29.0671338 76.0913491,28.9551232 75.984,28.88 C75.8386535,28.7892524 75.6699753,28.7429123 75.4986667,28.7466667 C75.3528122,28.7360754 75.207311,28.771518 75.0826667,28.848 C75.0002366,28.9050199 74.9505428,28.9984443 74.9493333,29.0986667 C74.9483953,29.2067698 75.0141163,29.3042912 75.1146667,29.344 C75.3499144,29.4290387 75.5958056,29.4810886 75.8453333,29.4986667 C76.2766222,29.5311492 76.7016789,29.6208236 77.1093333,29.7653333 C77.3647695,29.8625038 77.5856413,30.0332619 77.744,30.256 C77.8875617,30.4605858 77.9639762,30.7047395 77.9626667,30.9546667 C77.9580662,31.2209746 77.8765722,31.4802737 77.728,31.7013333 C77.5476608,31.9634478 77.2932709,32.1658456 76.9973333,32.2826667 C76.5624241,32.4424594 76.100281,32.5149524 75.6373333,32.496 C75.0369103,32.5427899 74.4352303,32.422823 73.8986667,32.1493333 C73.5583851,31.9126943 73.3232105,31.5532405 73.2426667,31.1466667 L73.2426667,31.1466667 Z" id="Path" fill="#000000"></path>
            <path d="M80.8373333,26.24 L80.8373333,27.9306667 L81.7706667,27.9306667 L81.7706667,29.1786667 L80.8373333,29.1786667 L80.8373333,30.7786667 C80.8259138,30.9055633 80.8441728,31.0333767 80.8906667,31.152 C80.953045,31.2519425 81.0667784,31.3077753 81.184,31.296 C81.3662995,31.2849582 81.5459918,31.2472228 81.7173333,31.184 L81.84,32.3626667 C81.4530711,32.4501534 81.0580017,32.4966321 80.6613333,32.5013333 C80.3397157,32.5222499 80.0177825,32.4655458 79.7226667,32.336 C79.5208232,32.2295117 79.3624043,32.0560052 79.2746667,31.8453333 C79.1612863,31.5017031 79.1124645,31.1400606 79.1306667,30.7786667 L79.1306667,29.1786667 L78.5066667,29.1786667 L78.5066667,27.9306667 L79.1306667,27.9306667 L79.1306667,27.1146667 L80.8373333,26.24 Z" id="Path" fill="#000000"></path>
            <path d="M84.1386667,29.3706667 L82.5066667,29.2 C82.5535307,28.9615238 82.6439283,28.7337219 82.7733333,28.528 C82.9064932,28.3501315 83.0777962,28.2043418 83.2746667,28.1013333 C83.4779459,28.001734 83.6957817,27.935123 83.92,27.904 C84.21239,27.8535044 84.5086162,27.8285214 84.8053333,27.8293333 C85.2176518,27.8237095 85.6297275,27.8522516 86.0373333,27.9146667 C86.3232124,27.9632442 86.5905157,28.0886002 86.8106667,28.2773333 C86.9713019,28.4213701 87.0909143,28.6053893 87.1573333,28.8106667 C87.234674,29.0209199 87.2761401,29.2426731 87.28,29.4666667 L87.28,31.4346667 C87.2767314,31.5992742 87.2910346,31.7637607 87.3226667,31.9253333 C87.3616122,32.0826047 87.4188934,32.2347579 87.4933333,32.3786667 L85.8933333,32.3786667 C85.8450683,32.2952123 85.8040298,32.2077825 85.7706667,32.1173333 C85.7440255,32.0247218 85.7244142,31.930231 85.712,31.8346667 C85.5195419,32.026852 85.2936163,32.1822888 85.0453333,32.2933333 C84.7062863,32.4278523 84.3432468,32.4913842 83.9786667,32.48 C83.5451804,32.5108293 83.1156764,32.3796976 82.7733333,32.112 C82.5046355,31.8859808 82.3518713,31.5510746 82.3573333,31.2 C82.3468476,30.8946804 82.4537271,30.5969447 82.656,30.368 C82.9642203,30.0980629 83.3475498,29.928728 83.7546667,29.8826667 C84.3946667,29.7546667 84.8213333,29.664 84.9973333,29.6106667 C85.2023123,29.5559449 85.4036068,29.488253 85.6,29.408 C85.6162133,29.2510883 85.570258,29.0940745 85.472,28.9706667 C85.3405406,28.8720561 85.1768579,28.8263772 85.0133333,28.8426667 C84.794725,28.8292458 84.5767241,28.8772799 84.384,28.9813333 C84.2615333,29.0805125 84.1752821,29.2173894 84.1386667,29.3706667 Z M85.616,30.2666667 C85.3813333,30.352 85.136,30.4266667 84.8853333,30.4906667 C84.648109,30.5334591 84.4226861,30.6261734 84.224,30.7626667 C84.136751,30.8442215 84.0866508,30.9579104 84.0853333,31.0773333 C84.0800083,31.2027055 84.130843,31.3239268 84.224,31.408 C84.3394876,31.501605 84.4864469,31.5474105 84.6346667,31.536 C84.8215215,31.5372905 85.0054369,31.4894725 85.168,31.3973333 C85.3129926,31.3179314 85.4330265,31.1997443 85.5146667,31.056 C85.5896724,30.8885882 85.624379,30.7059216 85.616,30.5226667 L85.616,30.2666667 Z" id="Shape" fill="#000000"></path>
            <path d="M92.9813333,26.24 L92.9813333,32.3786667 L91.3813333,32.3786667 L91.3813333,31.7226667 C91.2165296,31.948121 91.0101621,32.1400065 90.7733333,32.288 C90.5189462,32.4170274 90.2372237,32.4828846 89.952,32.48 C89.3998628,32.5095459 88.8729789,32.2461039 88.5653333,31.7866667 C88.2349945,31.2919805 88.0672007,30.7065665 88.0853333,30.112 C88.0453332,29.4999317 88.2355585,28.8950154 88.6186667,28.416 C88.9578043,28.0312299 89.4499334,27.8164117 89.9626667,27.8293333 C90.210675,27.8278021 90.4567493,27.8730363 90.688,27.9626667 C90.9063263,28.055843 91.1025844,28.1939505 91.264,28.368 L91.264,26.2346667 L92.9813333,26.24 Z M91.2746667,30.144 C91.2961234,29.8642918 91.216655,29.5861525 91.0506667,29.36 C90.9136951,29.1925773 90.7068982,29.0980416 90.4906667,29.104 C90.29613,29.1039911 90.1127188,29.1947106 89.9946667,29.3493333 C89.8378374,29.596996 89.7666374,29.8892906 89.792,30.1813333 C89.7683841,30.4622172 89.8418005,30.7427054 90,30.976 C90.1247042,31.1440378 90.3242236,31.2398071 90.5333333,31.232 C90.7407725,31.2321297 90.9370172,31.1379322 91.0666667,30.976 C91.2292056,30.7306577 91.3026282,30.4369675 91.2746667,30.144 L91.2746667,30.144 Z" id="Shape" fill="#000000"></path>
            <path d="M27.8986667,7.42933333 C29.6533333,7.42933333 30.64,6.69866667 30.64,4.99733333 C30.64,3.39733333 29.5733333,2.51733333 27.9253333,2.51733333 L26.1333333,2.51733333 L26.1333333,7.42933333 L27.8933333,7.42933333 L27.8986667,7.42933333 Z M14.0906667,17.6 L14.0906667,15.1413333 C17.136,15.1413333 17.0026667,14.176 17.0026667,13.4773333 L17.0026667,4.18133333 C17.0026667,3.47733333 17.1146667,2.51733333 14.0693333,2.51733333 L14.0693333,0 L32.1386667,0 C33.776,0.048 35.3386667,0.576 36.288,1.95733333 C37.4133333,3.712 37.152,6.448 36.0266667,8.10666667 C33.8933333,10.5173333 29.952,10.24 26.112,10.24 L26.112,13.408 C26.112,14.0853333 26,15.008 28.704,15.072 L29.6106667,15.072 L29.6106667,17.6 L14.0906667,17.6 Z" id="Shape" fill="#006B4C"></path>
            <path d="M37.36,17.6 L37.36,15.1413333 C40.4053333,15.1413333 40.2613333,14.176 40.2613333,13.4773333 L40.2613333,12.1173333 L40.2613333,4.18133333 C40.2613333,3.47733333 40.3626667,2.51733333 37.312,2.51733333 L37.312,0 L59.1466667,0 L59.1466667,6.84266667 L54.5173333,6.84266667 L54.5173333,3.64266667 C54.5173333,2.37866667 54.064,2.496 52.7626667,2.496 L50.3946667,2.496 C49.0666667,2.51733333 48.64,2.4 48.64,3.664 L48.64,6.224 C48.64,7.488 49.088,7.37066667 50.3946667,7.37066667 L52.2933333,7.37066667 L52.2933333,10.2773333 L50.4106667,10.2773333 C49.104,10.2773333 48.656,10.1653333 48.656,11.4293333 L48.656,13.9733333 C48.656,15.2373333 49.44,15.1093333 50.7413333,15.1093333 L51.4453333,15.1093333 C52.0374339,15.1527122 52.6325987,15.0949992 53.2053333,14.9386667 C53.5946667,14.7573333 53.84,14.0266667 54,13.5093333 L54.5973333,11.504 L59.184,11.504 L59.184,17.6 L37.36,17.6" id="Path" fill="#006B4C"></path>
            <path d="M71.872,2.704 L69.168,10.1333333 L75.0666667,10.1333333 L71.8666667,2.72 M68.2293333,12.6346667 C67.8186667,13.7013333 67.6,13.936 67.552,14.6133333 C67.5810625,14.8147464 67.7151813,14.985443 67.904,15.0613333 C68.6293333,15.1306667 70.7733333,15.104 70.7733333,15.104 L70.7733333,17.6 L60,17.6 L60,15.1146667 C61.0666667,15.2053333 62.224,15.088 62.88,14.2506667 L63.3706667,13.408 L68.4106667,0 L79.8506667,0 L85.9253333,13.1733333 C86.2293333,13.8026667 86.416,14.528 87.072,14.928 C87.5432888,15.0524961 88.0301045,15.1081835 88.5173333,15.0933333 C88.5173333,15.872 88.5173333,17.6 88.5173333,17.6 L74.032,17.6 L74.032,15.1093333 C74.8053333,15.1093333 75.7493333,15.1093333 76.4746667,15.0453333 C76.6634854,14.969443 76.7976042,14.7987464 76.8266667,14.5973333 C76.784,13.92 76.56,13.6746667 76.1493333,12.6186667 L68.2666667,12.6186667" id="Shape" fill="#006B4C"></path>
            <path d="M89.328,17.6 L89.328,15.1466667 C92.3733333,15.1466667 92.2293333,14.1813333 92.2293333,13.4773333 L92.2293333,4.18666667 C92.2293333,3.48266667 92.3306667,2.51733333 89.2853333,2.51733333 L89.2853333,0 L106.666667,0 C108.922667,0 112.128,0.458666667 112.128,4.41066667 C112.128,6.928 110.224,7.83466667 109.376,8.416 C110.944,8.94933333 112.709333,10.128 112.709333,12.6506667 C112.709333,15.5093333 111.109333,17.584 106.277333,17.584 L89.328,17.584 L89.328,17.6 Z M103.066667,15.152 C104.821333,15.152 105.808,14.4213333 105.808,12.72 C105.808,11.0186667 104.741333,10.24 103.093333,10.24 L100.96,10.24 L100.96,15.152 L103.066667,15.152 Z M103.066667,7.41866667 C104.821333,7.41866667 105.808,6.688 105.808,4.98666667 C105.808,3.38666667 104.741333,2.50666667 103.093333,2.50666667 L100.96,2.50666667 L100.96,7.41866667 L103.066667,7.41866667 Z" id="Shape" fill="#006B4C"></path>
            <path d="M112.037333,17.296 L128,17.296 L128,14.208 L114.074667,14.208 C113.776,15.568 113.370667,16.6506667 112.037333,17.296" id="Path" fill="#EB6631"></path>
            <polyline id="Path" fill="#EB6631" points="15.5626667 9.57333333 0 9.57333333 0 12.6666667 15.552 12.6666667 15.552 12.256 15.5626667 9.57333333"></polyline>
            <path d="M114.218667,12.6666667 L128,12.6666667 L128,9.6 L113.066667,9.6 C113.84,10.2933333 114.181333,11.2853333 114.224,12.688" id="Path" fill="#EB6631"></path>
            <path d="M111.808,8.032 L128,8.032 L128,4.944 L113.568,4.944 C113.317333,6.608 112.656,7.472 111.808,8.032" id="Path" fill="#EB6631"></path>
            <rect id="Rectangle" fill="#EB6631" x="0" y="4.944" width="15.568" height="3.088"></rect>
            <path d="M15.0453333,2.88533333 C12.7146667,2.784 12.464,3.2 12.464,0.309333333 L0,0.309333333 L0,3.39733333 L15.536,3.39733333 C15.488,3.17866667 15.4133333,2.864 15.0453333,2.864" id="Path" fill="#EB6631"></path>
            <path d="M15.0453333,14.8106667 C12.5493333,14.96 12.464,14.2773333 12.464,17.28 L0,17.28 L0,14.192 L15.536,14.192 C15.488,14.4106667 15.4133333,14.8106667 15.0453333,14.8106667" id="Path" fill="#EB6631"></path>
            <path d="M128,0.309333333 L111.968,0.309333333 C113.189333,1.16266667 113.349333,1.76533333 113.568,3.39733333 L128,3.39733333 L128,0.309333333" id="Path" fill="#EB6631"></path>
        </g>
    </g>
</svg>