<?xml version="1.0" encoding="UTF-8"?>
<svg width="128px" height="128px" viewBox="0 0 128 128" version="1.1" xmlns="http://www.w3.org/2000/svg" xmlns:xlink="http://www.w3.org/1999/xlink">
    <!-- Generator: Sketch 54.1 (76490) - https://sketchapp.com -->
    <title>rebtel-logo</title>
    <desc>Created with Sketch.</desc>
    <g id="rebtel" stroke="none" stroke-width="1" fill="none" fill-rule="evenodd">
        <g transform="translate(0.000000, 39.000000)" fill-rule="nonzero">
            <polygon id="Path" fill="#E3232C" points="0 0 127.977425 0 127.977425 49.8229277 0 49.8229277"></polygon>
            <path d="M93.8666667,11.6035273 L99.2620811,11.6035273 L103.325573,22.3492063 L108.021164,22.3492063 L108.021164,11.6035273 L113.145679,11.6035273 L113.145679,39.0546737 L103.325573,39.0546737 C99.8941799,39.0546737 97.3883598,38.2871252 95.7855379,36.7294533 C94.182716,35.1943563 93.3700176,33.1851852 93.3700176,30.724515 C93.3700176,27.0673721 95.0857143,24.561552 98.4945326,23.2070547 L93.8666667,11.6035273 Z M108.021164,26.4578483 L104.138272,26.4578483 C102.287125,26.4578483 100.932628,26.8416226 100.02963,27.631746 C99.1266314,28.3992945 98.6751323,29.4828924 98.6751323,30.8373898 C98.6751323,32.0790123 99.1266314,33.0948854 100.007055,33.8624339 C100.887478,34.6299824 102.129101,35.0137566 103.731922,35.0137566 L108.021164,35.0137566 L108.021164,26.4578483 Z M87.545679,19.3467372 C87.4328042,16.4119929 85.9880071,14.8091711 83.3467372,14.8091711 C81.5858907,14.8091711 80.4119929,15.4864198 79.35097,17.0892416 L74.9488536,16.366843 C76.3485009,12.9128748 79.2606702,11.0843034 83.2112875,11.0843034 C88.7873016,11.0843034 92.3767196,14.6059965 92.3767196,20.0917108 C92.3767196,25.577425 88.8776014,29.1442681 83.4821869,29.1442681 C78.1093474,29.1442681 74.7908289,25.6451499 74.7908289,20.0465608 L74.7908289,19.3467372 L87.545679,19.3467372 L87.545679,19.3467372 Z M79.35097,22.3492063 C79.870194,24.5389771 81.2698413,25.7128748 83.3467372,25.7128748 C85.491358,25.7128748 86.9135802,24.4938272 87.3425044,22.3492063 L79.35097,22.3492063 Z M66.8444444,26.3901235 C65.1513228,28.3089947 63.480776,29.1442681 61.2458554,29.1442681 C56.5502646,29.1442681 52.9382716,25.2613757 52.9382716,20.1594356 C52.9382716,14.9446208 56.5051146,11.0617284 61.3361552,11.0617284 C63.6388007,11.0617284 65.3319224,11.8744268 66.8670194,13.815873 L66.8670194,11.6261023 L71.6077601,11.6261023 L71.6077601,39.0772487 L66.8670194,39.0772487 L66.8670194,26.3901235 L66.8444444,26.3901235 Z M66.7315697,20.1142857 C66.7315697,17.4955908 64.5643739,15.3283951 61.9908289,15.3283951 C59.3269841,15.3283951 57.2049383,17.4504409 57.2049383,20.0691358 C57.2049383,22.7329806 59.3269841,24.8550265 61.9908289,24.8550265 C64.6095238,24.8550265 66.7315697,22.7555556 66.7315697,20.1142857 Z M44.2694885,11.6035273 L49.0102293,11.6035273 L49.0102293,24.4712522 L51.5160494,24.4712522 L51.5160494,28.5798942 L49.0102293,28.5798942 L49.0102293,34.3816578 L44.2694885,34.3816578 L44.2694885,28.5798942 L41.7636684,28.5798942 L41.7636684,24.4712522 L44.2694885,24.4712522 L44.2694885,11.6035273 Z M35.5104056,19.3467372 C35.3975309,16.4119929 33.9527337,14.8091711 31.3114638,14.8091711 C29.5506173,14.8091711 28.3767196,15.4864198 27.3156966,17.0892416 L22.9361552,16.389418 C24.3358025,12.9354497 27.2479718,11.1068783 31.1985891,11.1068783 C36.7746032,11.1068783 40.3640212,14.6285714 40.3640212,20.1142857 C40.3640212,25.6 36.864903,29.166843 31.4694885,29.166843 C26.096649,29.166843 22.7781305,25.6677249 22.7781305,20.0691358 L22.7781305,19.3693122 L35.5104056,19.3693122 L35.5104056,19.3467372 Z M27.3156966,22.3492063 C27.8349206,24.5389771 29.2345679,25.7128748 31.3114638,25.7128748 C33.4560847,25.7128748 34.8783069,24.4938272 35.307231,22.3492063 L27.3156966,22.3492063 Z M14.831746,11.6035273 L19.5724868,11.6035273 L19.5724868,39.0546737 L14.831746,39.0546737 L14.831746,11.6035273 Z" id="Shape" fill="#FFFFFF"></path>
        </g>
    </g>
</svg>