<?xml version="1.0" encoding="UTF-8"?>
<svg width="128px" height="128px" viewBox="0 0 128 128" version="1.1" xmlns="http://www.w3.org/2000/svg" xmlns:xlink="http://www.w3.org/1999/xlink">
    <!-- Generator: Sketch 54.1 (76490) - https://sketchapp.com -->
    <title>tele2-logo</title>
    <desc>Created with Sketch.</desc>
    <g id="tele2" stroke="none" stroke-width="1" fill="none" fill-rule="evenodd">
        <g id="Tele2_logo" transform="translate(0.000000, 40.000000)" fill="#141414" fill-rule="nonzero">
            <path d="M0,17.1950377 L0,24.1604638 L18.7904,22.093542 L18.7904,14.5545275 L0,17.1950377 M5.99633623,24.5841623 L5.99633623,48.4526377 L12.875687,48.4526377 L12.875687,23.8810899 L5.99633623,24.5841623 M21.3281391,14.1979826 L21.3281391,48.4526377 L28.5770203,48.4526377 L28.5770203,13.1788058 L21.3281391,14.1979826 M29.927513,12.9888464 L29.927513,20.8688232 L40.3949449,19.7171942 L40.3949449,11.5181449 L29.927513,12.9888464 M29.927513,26.7338203 L29.927513,34.7573797 L36.7987014,34.3826551 L36.7987014,26.1424232 L29.927513,26.7338203 M29.927513,40.5407536 L29.927513,48.4526377 L40.3949449,48.4526377 L40.3949449,40.2250203 L29.927513,40.5407536 M67.4649043,7.70151884 L67.4649043,48.4526377 L76.9676986,48.4526377 L76.9676986,6.36586667 L67.4649043,7.70151884 M78.7422609,6.11617391 L78.7422609,15.4898551 L92.5907478,13.9672116 L92.5907478,4.16946087 L78.7422609,6.11617391 M78.7422609,22.5395014 L78.7422609,32.0868174 L87.8191304,31.591142 L87.8191304,21.7622261 L78.7422609,22.5395014 M78.7422609,39.065229 L78.7422609,48.4526377 L92.5907478,48.4526377 L92.5907478,38.6470957 L78.7422609,39.065229 M43.1645681,11.1282087 L43.1645681,48.4526377 L51.4218667,48.4526377 L51.4218667,9.96730435 L43.1645681,11.1282087 M52.9630609,39.8458435 L52.9630609,48.4522667 L64.9490551,48.4522667 L64.9490551,39.4841043 L52.9630609,39.8458435 M123.638354,3.70866087 C120.634991,0.871142029 116.23142,-0.292730435 111.41491,0.399211594 L111.41491,10.7957797 C113.365333,10.6874435 114.945855,11.4112928 115.650041,12.8686377 C116.761971,15.1663304 115.614794,18.6137971 112.908614,21.8078609 C108.731733,26.7367884 97.6246725,36.8254145 97.6246725,36.8254145 L113.569391,36.301171 C123.311861,26.7831652 126.810528,21.0057275 127.438284,13.7950609 C127.768116,9.98028986 126.38349,6.30464928 123.638354,3.70866087 M128,48.4526377 L128,37.5741217 L95.6594087,38.5484058 M95.6594087,38.5480348 L95.6627478,48.4522667 L128,48.4522667 M109.555757,0.63257971 C100.160557,2.63346087 95.5469913,9.54546087 96.0793971,20.8239304 L106.096788,19.9349797 C105.640441,13.5631768 107.58938,12.0516638 109.56058,11.2205913 L109.555757,0.63257971" id="Shape"></path>
        </g>
    </g>
</svg>