<?xml version="1.0" encoding="UTF-8"?>
<svg width="128px" height="128px" viewBox="0 0 128 128" version="1.1" xmlns="http://www.w3.org/2000/svg" xmlns:xlink="http://www.w3.org/1999/xlink">
    <!-- Generator: Sketch 54.1 (76490) - https://sketchapp.com -->
    <title>vasttrafik-logo</title>
    <desc>Created with Sketch.</desc>
    <g id="vasttrafik" stroke="none" stroke-width="1" fill="none" fill-rule="evenodd">
        <g id="vasttrafik-ab-seeklogo.com" transform="translate(0.000000, 50.000000)" fill="#00ACE9" fill-rule="nonzero">
            <polygon id="Path" points="43.2985025 20.509817 39.9760399 8.02928453 43.5114809 8.02928453 45.2792013 17.4003328 45.321797 17.4003328 47.153411 8.02928453 50.5823627 8.02928453 47.1321131 20.509817"></polygon>
            <g id="Group" transform="translate(50.688852, 2.981697)">
                <path d="M8.85990017,2.9391015 L6.1124792,2.9391015 L6.1124792,0.27687188 L8.85990017,0.27687188 L8.85990017,2.9391015 Z M4.47254576,2.9391015 L1.72512479,2.9391015 L1.72512479,0.27687188 L4.47254576,0.27687188 L4.47254576,2.9391015 Z M3.53544093,13.6519135 C3.53544093,14.5464226 3.68452579,15.6326123 4.83460899,15.6326123 C6.90049917,15.6326123 6.55973378,12.8638935 6.55973378,11.5008319 C4.83460899,11.5647255 3.53544093,11.4156406 3.53544093,13.6519135 L3.53544093,13.6519135 Z M9.98868552,15.2066556 C9.98868552,15.9733777 10.0951747,16.7613977 10.1590682,17.5281198 L6.921797,17.5281198 L6.77271215,15.8668885 L6.73011647,15.8668885 C5.98469218,17.1447587 4.96239601,17.762396 3.45024958,17.762396 C1.02229617,17.762396 0.127787022,15.9520799 0.127787022,13.7797005 C0.127787022,9.64792013 3.32246256,9.47753744 6.55973378,9.52013311 L6.55973378,8.56173045 C6.55973378,7.4968386 6.41064892,6.73011647 5.15407654,6.73011647 C3.94009983,6.73011647 3.83361065,7.64592346 3.83361065,8.62562396 L0.425956739,8.62562396 C0.425956739,7.11347754 0.894509151,6.15507488 1.70382696,5.58003328 C2.49184692,4.98369384 3.64193012,4.77071547 4.98369384,4.77071547 C9.41364393,4.77071547 9.98868552,6.66622296 9.98868552,8.94509151 L9.98868552,15.2066556 Z" id="Shape"></path>
                <path d="M14.6103161,13.5241265 C14.5890183,14.0991681 14.6103161,14.631614 14.7806988,15.0362729 C14.9723794,15.4409318 15.3557404,15.6326123 16.0372712,15.6326123 C16.7400998,15.6326123 17.3151414,15.1853577 17.3151414,14.3547421 C17.3151414,11.7138103 11.1600666,12.3101498 11.1600666,8.32745424 C11.1600666,5.64392679 13.843594,4.81331115 16.1011647,4.81331115 C18.4865225,4.81331115 20.637604,5.94209651 20.4459235,8.6469218 L17.0382696,8.6469218 C17.0382696,7.77371048 16.9317804,7.2625624 16.6975042,7.04958403 C16.4845258,6.83660566 16.1863561,6.77271215 15.802995,6.77271215 C15.0362729,6.77271215 14.6103161,7.2625624 14.6103161,8.11447587 C14.6103161,10.0951747 20.765391,9.98868552 20.765391,13.9926789 C20.765391,16.1650582 18.9763727,17.8049917 16.0798669,17.8049917 C13.0342762,17.8049917 11.0109817,17.0382696 11.2026622,13.5667221 L14.6103161,13.5667221 L14.6103161,13.5241265 Z" id="Path"></path>
                <path d="M21.1061564,5.04758735 L22.5118136,5.04758735 L22.5118136,3.06688852 L26.0046589,1.51214642 L26.0046589,5.04758735 L27.814975,5.04758735 L27.814975,7.19866889 L26.0046589,7.19866889 L26.0046589,13.8648918 C26.0046589,14.8019967 25.9833611,15.4196339 27.1121464,15.4196339 C27.3251248,15.4196339 27.559401,15.4196339 27.7297837,15.3770383 L27.7297837,17.5281198 C27.2612313,17.5707155 26.771381,17.6559068 25.9194676,17.6559068 C22.8951747,17.6559068 22.4905158,15.6539101 22.4905158,14.887188 L22.4905158,7.19866889 L21.0848586,7.19866889 L21.0848586,5.04758735 L21.1061564,5.04758735 Z" id="Path"></path>
                <path d="M27.7723794,5.04758735 L29.1780366,5.04758735 L29.1780366,3.06688852 L32.6708819,1.51214642 L32.6708819,5.04758735 L34.481198,5.04758735 L34.481198,7.19866889 L32.6708819,7.19866889 L32.6708819,13.8648918 C32.6708819,14.8019967 32.649584,15.4196339 33.7783694,15.4196339 C33.9913478,15.4196339 34.225624,15.4196339 34.3960067,15.3770383 L34.3960067,17.5281198 C33.9274542,17.5707155 33.437604,17.6559068 32.5856905,17.6559068 C29.5613977,17.6559068 29.1567388,15.6539101 29.1567388,14.887188 L29.1567388,7.19866889 L27.7510815,7.19866889 L27.7510815,5.04758735 L27.7723794,5.04758735 Z" id="Path"></path>
                <path d="M39.1667221,5.04758735 L39.1667221,6.64492512 L39.2093178,6.64492512 C39.8482529,5.21797005 41.0409318,4.79201331 42.446589,4.79201331 L42.446589,7.9014975 C39.3797005,7.70981697 39.315807,9.47753744 39.315807,10.712812 L39.315807,17.506822 L35.8229617,17.506822 L35.8229617,5.02628952 L39.1667221,5.02628952 L39.1667221,5.04758735 Z" id="Path"></path>
                <path d="M52.4352745,15.2066556 C52.4352745,15.9733777 52.5417637,16.7613977 52.6056572,17.5281198 L49.368386,17.5281198 L49.2193012,15.8668885 L49.1767055,15.8668885 C48.4312812,17.1447587 47.408985,17.762396 45.8968386,17.762396 C43.4688852,17.762396 42.574376,15.9520799 42.574376,13.7797005 C42.574376,9.64792013 45.7690516,9.47753744 49.0063228,9.52013311 L49.0063228,8.56173045 C49.0063228,7.4968386 48.8572379,6.73011647 47.6006656,6.73011647 C46.3866889,6.73011647 46.2801997,7.64592346 46.2801997,8.62562396 L42.8725458,8.62562396 C42.8725458,7.11347754 43.3410982,6.15507488 44.150416,5.58003328 C44.9384359,4.98369384 46.0885191,4.77071547 47.4302829,4.77071547 C51.8602329,4.77071547 52.4352745,6.66622296 52.4352745,8.94509151 L52.4352745,15.2066556 Z M46.0033278,13.6519135 C46.0033278,14.5464226 46.1524126,15.6326123 47.3024958,15.6326123 C49.368386,15.6326123 49.0276206,12.8638935 49.0276206,11.5008319 C47.281198,11.5647255 46.0033278,11.4156406 46.0033278,13.6519135 L46.0033278,13.6519135 Z" id="Shape"></path>
                <path d="M59.8043261,3.02429285 C58.3134775,3.02429285 58.1430948,3.19467554 58.1430948,4.13178037 L58.1430948,5.02628952 L59.8043261,5.02628952 L59.8043261,7.28386023 L58.1430948,7.28386023 L58.1430948,17.506822 L54.6502496,17.506822 L54.6502496,7.28386023 L53.0742097,7.28386023 L53.0742097,5.02628952 L54.6502496,5.02628952 C54.6289517,1.44825291 54.3520799,0.149084859 58.6329451,0.149084859 C59.0589018,0.149084859 59.3996672,0.170382696 59.825624,0.191680532 L59.825624,3.02429285 L59.8043261,3.02429285 Z" id="Path"></path>
                <path d="M64.7241265,17.5281198 L61.2312812,17.5281198 L61.2312812,5.04758735 L64.7241265,5.04758735 L64.7241265,17.5281198 Z M64.7241265,3.02429285 L61.2312812,3.02429285 L61.2312812,0.27687188 L64.7241265,0.27687188 L64.7241265,3.02429285 Z" id="Shape"></path>
            </g>
            <g id="Group">
                <polygon id="Path" points="117.223295 20.509817 117.201997 3.25856905 120.71614 3.25856905 120.71614 13.2898502 120.780033 13.2898502 123.910815 8.02928453 127.552745 8.02928453 124.017304 13.58802 127.957404 20.509817 124.017304 20.509817 120.780033 13.715807 120.71614 13.715807 120.71614 20.509817"></polygon>
                <path d="M38.3787022,7.96539101 C30.4133111,8.4765391 25.0675541,13.8648918 25.0675541,13.8648918 C23.9600666,12.7787022 22.852579,11.8202995 21.7450915,10.968386 C22.8738769,8.54043261 23.7257903,5.60133111 23.9813644,2.08718802 C23.9813644,2.08718802 29.5400998,3.19467554 32.1597338,8.45524126 C32.7134775,8.32745424 33.309817,8.19966722 33.9061564,8.11447587 C31.6911814,3.38635607 26.8778702,0.106489185 21.2978369,0.106489185 C16.9317804,0.106489185 13.0342762,2.10848586 10.4785358,5.26056572 C4.47254576,3.64193012 0.170382696,4.57903494 0.170382696,4.57903494 C18.7633943,8.34875208 25.0036606,23.8322795 25.0036606,23.8322795 C27.6445923,17.6133111 30.6688852,13.7584027 33.1607321,11.3943428 C33.3311148,12.1610649 33.437604,12.9703827 33.4589018,13.8648918 C33.4589018,13.8648918 33.7144759,18.2522463 30.5836938,21.7024958 C30.5836938,21.7024958 27.303827,26.0898502 21.2978369,26.0046589 C21.2978369,26.0046589 15.6113145,26.3454243 11.6499168,21.2765391 C11.6499168,21.2765391 15.0575707,19.8921797 18.2948419,16.2076539 C17.8262895,15.7816972 17.3790349,15.3557404 16.9104825,14.9510815 C15.3344426,16.7400998 13.3111481,18.422629 10.6702163,19.7643927 C10.6702163,19.7643927 7.79500832,15.2492512 9.90349418,9.64792013 C9.39234609,9.30715474 8.881198,8.98768719 8.39134775,8.68951747 C7.73111481,10.3081531 7.34775374,12.0971714 7.34775374,13.9500832 C7.34775374,21.6173045 13.58802,27.8362729 21.2765391,27.8362729 C28.9650582,27.8362729 35.2053245,21.6173045 35.2053245,13.9500832 C35.2053245,12.6083195 35.0136439,11.3091514 34.6515807,10.0951747 C36.8452579,8.41264559 38.3787022,7.96539101 38.3787022,7.96539101 M12.2888519,5.81430948 C14.0778702,3.83361065 17.2299501,1.57603993 22.1710483,1.83161398 C22.1710483,1.83161398 22.1497504,5.5374376 20.2116473,9.83960067 C17.4429285,7.92279534 14.759401,6.64492512 12.2888519,5.81430948" id="Shape"></path>
            </g>
        </g>
    </g>
</svg>