<?xml version="1.0" encoding="UTF-8"?>
<svg width="128px" height="128px" viewBox="0 0 128 128" version="1.1" xmlns="http://www.w3.org/2000/svg" xmlns:xlink="http://www.w3.org/1999/xlink">
    <!-- Generator: Sketch 54.1 (76490) - https://sketchapp.com -->
    <title>volvo-logo</title>
    <desc>Created with Sketch.</desc>
    <defs>
        <radialGradient cx="14.2489712%" cy="40.0746965%" fx="14.2489712%" fy="40.0746965%" r="104.435559%" gradientTransform="translate(0.142490,0.400747),scale(1.000000,0.998319),translate(-0.142490,-0.400747)" id="radialGradient-1">
            <stop stop-color="#FFFFFF" offset="0%"></stop>
            <stop stop-color="#FAFAF8" offset="4.1%"></stop>
            <stop stop-color="#F8F8F5" offset="22.5%"></stop>
            <stop stop-color="#DADAD7" offset="28.7%"></stop>
            <stop stop-color="#A3A4A1" offset="41.3%"></stop>
            <stop stop-color="#7E7F7D" offset="52%"></stop>
            <stop stop-color="#686866" offset="60%"></stop>
            <stop stop-color="#5F5F5D" offset="64.6%"></stop>
            <stop stop-color="#565754" offset="73.9%"></stop>
            <stop stop-color="#3B3A37" offset="89.9%"></stop>
            <stop stop-color="#000000" offset="100%"></stop>
        </radialGradient>
        <linearGradient x1="24.4055962%" y1="41.1650777%" x2="72.9681231%" y2="57.8857784%" id="linearGradient-2">
            <stop stop-color="#DCDBD3" offset="0%"></stop>
            <stop stop-color="#FFFFFF" offset="100%"></stop>
        </linearGradient>
        <radialGradient cx="79.5196953%" cy="82.0097988%" fx="79.5196953%" fy="82.0097988%" r="113.849405%" gradientTransform="translate(0.795197,0.820098),scale(1.000000,0.999976),translate(-0.795197,-0.820098)" id="radialGradient-3">
            <stop stop-color="#BBBCB7" offset="0%"></stop>
            <stop stop-color="#808079" offset="100%"></stop>
        </radialGradient>
        <radialGradient cx="73.5896965%" cy="73.5874453%" fx="73.5896965%" fy="73.5874453%" r="105.304699%" gradientTransform="translate(0.735897,0.735874),scale(1.000000,0.999969),translate(-0.735897,-0.735874)" id="radialGradient-4">
            <stop stop-color="#FFFFFF" offset="0%"></stop>
            <stop stop-color="#F1F1F2" offset="15.7%"></stop>
            <stop stop-color="#E4E4E5" offset="29.8%"></stop>
            <stop stop-color="#CECFCE" offset="33.5%"></stop>
            <stop stop-color="#AEAFAC" offset="40%"></stop>
            <stop stop-color="#969694" offset="46.4%"></stop>
            <stop stop-color="#858683" offset="52.6%"></stop>
            <stop stop-color="#7C7C79" offset="58.6%"></stop>
            <stop stop-color="#787976" offset="64%"></stop>
            <stop stop-color="#5E5E5B" offset="73.8%"></stop>
            <stop stop-color="#43423F" offset="84.6%"></stop>
            <stop stop-color="#1F1F1E" offset="93.7%"></stop>
            <stop stop-color="#000000" offset="100%"></stop>
        </radialGradient>
        <linearGradient x1="49.9504538%" y1="61.35%" x2="49.9504538%" y2="49.25%" id="linearGradient-5">
            <stop stop-color="#FFFFFF" offset="0%"></stop>
            <stop stop-color="#F8F8F5" offset="17%"></stop>
            <stop stop-color="#B1B1AC" offset="42.7%"></stop>
            <stop stop-color="#ADAEA8" offset="43.5%"></stop>
            <stop stop-color="#898984" offset="53.4%"></stop>
            <stop stop-color="#6C6C67" offset="63.3%"></stop>
            <stop stop-color="#53534E" offset="73.1%"></stop>
            <stop stop-color="#3E3E3A" offset="82.5%"></stop>
            <stop stop-color="#252523" offset="91.6%"></stop>
            <stop stop-color="#1B1A19" offset="100%"></stop>
        </linearGradient>
        <linearGradient x1="49.95%" y1="54.75%" x2="49.95%" y2="49.85%" id="linearGradient-6">
            <stop stop-color="#FFFFFF" offset="0%"></stop>
            <stop stop-color="#F8F8F5" offset="17%"></stop>
            <stop stop-color="#B1B1AC" offset="42.7%"></stop>
            <stop stop-color="#ADAEA8" offset="43.5%"></stop>
            <stop stop-color="#898984" offset="53.4%"></stop>
            <stop stop-color="#6C6C67" offset="63.3%"></stop>
            <stop stop-color="#53534E" offset="73.1%"></stop>
            <stop stop-color="#3E3E3A" offset="82.5%"></stop>
            <stop stop-color="#252523" offset="91.6%"></stop>
            <stop stop-color="#1B1A19" offset="100%"></stop>
        </linearGradient>
        <linearGradient x1="49.95%" y1="54.85%" x2="49.95%" y2="49.75%" id="linearGradient-7">
            <stop stop-color="#FFFFFF" offset="0%"></stop>
            <stop stop-color="#F8F8F5" offset="17%"></stop>
            <stop stop-color="#B1B1AC" offset="42.7%"></stop>
            <stop stop-color="#ADAEA8" offset="43.5%"></stop>
            <stop stop-color="#898984" offset="53.4%"></stop>
            <stop stop-color="#6C6C67" offset="63.3%"></stop>
            <stop stop-color="#53534E" offset="73.1%"></stop>
            <stop stop-color="#3E3E3A" offset="82.5%"></stop>
            <stop stop-color="#252523" offset="91.6%"></stop>
            <stop stop-color="#1B1A19" offset="100%"></stop>
        </linearGradient>
        <linearGradient x1="50%" y1="57.35%" x2="50%" y2="49.65%" id="linearGradient-8">
            <stop stop-color="#FFFFFF" offset="0%"></stop>
            <stop stop-color="#F8F8F5" offset="17%"></stop>
            <stop stop-color="#B1B1AC" offset="42.7%"></stop>
            <stop stop-color="#ADAEA8" offset="43.5%"></stop>
            <stop stop-color="#898984" offset="53.4%"></stop>
            <stop stop-color="#6C6C67" offset="63.3%"></stop>
            <stop stop-color="#53534E" offset="73.1%"></stop>
            <stop stop-color="#3E3E3A" offset="82.5%"></stop>
            <stop stop-color="#252523" offset="91.6%"></stop>
            <stop stop-color="#1B1A19" offset="100%"></stop>
        </linearGradient>
        <linearGradient x1="50%" y1="100%" x2="50%" y2="3.061617e-15%" id="linearGradient-9">
            <stop stop-color="#000000" stop-opacity="0" offset="0%"></stop>
            <stop stop-color="#000000" offset="100%"></stop>
        </linearGradient>
        <linearGradient x1="50%" y1="56.5%" x2="50%" y2="49.6%" id="linearGradient-10">
            <stop stop-color="#FFFFFF" offset="0%"></stop>
            <stop stop-color="#F8F8F5" offset="17%"></stop>
            <stop stop-color="#B1B1AC" offset="42.7%"></stop>
            <stop stop-color="#ADAEA8" offset="43.5%"></stop>
            <stop stop-color="#898984" offset="53.4%"></stop>
            <stop stop-color="#6C6C67" offset="63.3%"></stop>
            <stop stop-color="#53534E" offset="73.1%"></stop>
            <stop stop-color="#3E3E3A" offset="82.5%"></stop>
            <stop stop-color="#252523" offset="91.6%"></stop>
            <stop stop-color="#1B1A19" offset="100%"></stop>
        </linearGradient>
        <radialGradient cx="4.53274533%" cy="11.4117113%" fx="4.53274533%" fy="11.4117113%" r="252.28325%" gradientTransform="translate(0.045327,0.114117),scale(0.250392,1.000000),translate(-0.045327,-0.114117)" id="radialGradient-11">
            <stop stop-color="#1E71B8" offset="0%"></stop>
            <stop stop-color="#1C69AB" offset="8.2%"></stop>
            <stop stop-color="#1B64A4" offset="16.6%"></stop>
            <stop stop-color="#1A63A1" offset="24.2%"></stop>
            <stop stop-color="#185D98" offset="39.2%"></stop>
            <stop stop-color="#0F4D80" offset="68.5%"></stop>
            <stop stop-color="#004472" offset="83.7%"></stop>
            <stop stop-color="#014472" offset="93.3%"></stop>
            <stop stop-color="#064271" offset="96.8%"></stop>
            <stop stop-color="#0D3F6F" offset="99.3%"></stop>
            <stop stop-color="#0F3D6E" offset="100%"></stop>
        </radialGradient>
        <linearGradient x1="95.4940208%" y1="98.427297%" x2="-3.41436543%" y2="-1.15883381%" id="linearGradient-12">
            <stop stop-color="#121209" offset="0.6%"></stop>
            <stop stop-color="#454441" offset="64.6%"></stop>
            <stop stop-color="#484845" offset="65%"></stop>
            <stop stop-color="#535350" offset="65.5%"></stop>
            <stop stop-color="#646561" offset="66%"></stop>
            <stop stop-color="#7B7B77" offset="66.4%"></stop>
            <stop stop-color="#969792" offset="66.9%"></stop>
            <stop stop-color="#BBBBB7" offset="67.4%"></stop>
            <stop stop-color="#E8E7E2" offset="67.8%"></stop>
            <stop stop-color="#FBFAF5" offset="68%"></stop>
            <stop stop-color="#F8F7F2" offset="68.2%"></stop>
            <stop stop-color="#F0F0EA" offset="68.4%"></stop>
            <stop stop-color="#E4E3DD" offset="68.5%"></stop>
            <stop stop-color="#D2D2CC" offset="68.6%"></stop>
            <stop stop-color="#BBBCB5" offset="68.7%"></stop>
            <stop stop-color="#A0A19A" offset="68.9%"></stop>
            <stop stop-color="#83847D" offset="68.9%"></stop>
            <stop stop-color="#6D6D67" offset="69%"></stop>
            <stop stop-color="#5F5F5B" offset="70.6%"></stop>
            <stop stop-color="#4D4D4B" offset="73.2%"></stop>
            <stop stop-color="#3B3A3A" offset="76.2%"></stop>
            <stop stop-color="#242324" offset="80%"></stop>
            <stop stop-color="#101010" offset="85.3%"></stop>
            <stop stop-color="#000000" offset="100%"></stop>
        </linearGradient>
        <radialGradient cx="83.0578931%" cy="11.1928105%" fx="83.0578931%" fy="11.1928105%" r="118.596814%" gradientTransform="translate(0.830579,0.111928),scale(0.992801,1.000000),translate(-0.830579,-0.111928)" id="radialGradient-13">
            <stop stop-color="#575652" offset="0%"></stop>
            <stop stop-color="#52524E" offset="100%"></stop>
        </radialGradient>
        <linearGradient x1="0.00984833563%" y1="50%" x2="99.9901517%" y2="50%" id="linearGradient-14">
            <stop stop-color="#5D5E60" offset="0%"></stop>
            <stop stop-color="#5B5B5D" offset="1.9%"></stop>
            <stop stop-color="#484846" offset="20.5%"></stop>
            <stop stop-color="#343431" offset="41%"></stop>
            <stop stop-color="#222120" offset="64.9%"></stop>
            <stop stop-color="#1B1A19" offset="100%"></stop>
        </linearGradient>
        <linearGradient x1="50%" y1="100%" x2="50%" y2="0.0097799511%" id="linearGradient-15">
            <stop stop-color="#5D5E60" offset="0%"></stop>
            <stop stop-color="#464543" offset="38.6%"></stop>
            <stop stop-color="#2A2927" offset="74.2%"></stop>
            <stop stop-color="#1B1A19" offset="100%"></stop>
        </linearGradient>
        <linearGradient x1="25.8570029%" y1="38.1470963%" x2="54.7992165%" y2="52.1188883%" id="linearGradient-16">
            <stop stop-color="#FFFFFF" offset="0%"></stop>
            <stop stop-color="#D5DDF0" offset="10.9%"></stop>
            <stop stop-color="#94ADD9" offset="33.8%"></stop>
            <stop stop-color="#668FC9" offset="54.2%"></stop>
            <stop stop-color="#447DBF" offset="71.4%"></stop>
            <stop stop-color="#2A74BA" offset="84.8%"></stop>
            <stop stop-color="#1E71B8" offset="92.7%"></stop>
            <stop stop-color="#4079BC" offset="94.7%"></stop>
            <stop stop-color="#5580C0" offset="96.7%"></stop>
            <stop stop-color="#6085C2" offset="98.5%"></stop>
            <stop stop-color="#6486C3" offset="100%"></stop>
        </linearGradient>
    </defs>
    <g id="volvo" stroke="none" stroke-width="1" fill="none" fill-rule="evenodd">
        <g id="cdnlogo_volvo" transform="translate(16.000000, 16.000000)">
            <path d="M47.7476571,17.789291 C56.1737143,17.789291 63.6635429,21.2221291 69.1248762,26.6834624 C74.7422476,32.1447958 78.0190476,39.7906624 78.0190476,48.2167196 C78.0190476,56.4845714 74.7422476,64.1326053 69.1248762,69.5917714 C63.6613757,75.055272 56.1715471,78.4859429 47.7476571,78.4859429 C39.3216,78.4859429 31.8317714,75.0531048 26.2144,69.5917714 C20.7508995,64.1304381 17.3202286,56.4845714 17.3202286,48.2167196 C17.3202286,39.7884952 20.7530667,32.1447958 26.2144,26.6812952 C31.8317714,21.2221291 39.3216,17.789291 47.7476571,17.789291 Z M47.7476571,18.2574053 C39.8460087,18.2664314 32.2704759,21.4088747 26.6825143,26.9955386 C21.2190138,32.456872 17.7883429,39.9467005 17.7883429,48.2167196 C17.7883429,56.4845714 21.221181,63.9744 26.6825143,69.2818624 C31.9878095,74.7431958 39.4754709,78.0199958 47.7476571,78.0199958 C56.0176762,78.0199958 63.5075048,74.7410286 68.8128,69.2818624 C74.2763005,63.9765672 77.5509333,56.4867386 77.5509333,48.2167196 C77.5509333,39.9467005 74.2741333,32.456872 68.8128,26.9955386 C63.2251073,21.4084724 55.6494004,18.2659569 47.7476571,18.2574053 L47.7476571,18.2574053 Z" id="Shape" fill="#BCBCB6" fill-rule="nonzero"></path>
            <path d="M47.7476571,1.7173672 C58.3582476,1.7173672 68.1886476,5.30407619 75.9905524,11.235691 L81.1398095,6.08643386 L90.190019,15.1366434 L85.0407619,20.4419386 C90.8141714,28.2438434 94.0909714,37.7621672 94.0909714,48.0606815 C94.0909714,73.6509291 73.3379048,94.5600339 47.7476571,94.5600339 C22.1574095,94.5600339 1.40434286,73.6509291 1.40434286,48.0606815 C1.40434286,22.4682667 22.1574095,1.7173672 47.7476571,1.7173672 Z M47.7476571,12.6400339 C28.2428952,12.6400339 12.3270095,28.5559196 12.3270095,48.0606815 C12.3270095,67.7214815 28.2428952,83.4813291 47.7476571,83.4813291 C67.252419,83.4813291 83.1683048,67.7214815 83.1683048,48.0606815 C83.1683048,28.5559196 67.252419,12.6400339 47.7476571,12.6400339 Z" id="Shape" fill="url(#radialGradient-1)" fill-rule="nonzero"></path>
            <path d="M47.7476571,12.4839958 C57.5780571,12.4839958 66.4722286,16.3849481 73.0258286,22.9385481 C79.7390278,29.6354153 83.5021835,38.7343887 83.480381,48.2167196 C83.480381,58.0449524 79.4233905,66.941291 73.0258286,73.494891 C66.4722286,79.8902857 57.5780571,83.9472762 47.7476571,83.9472762 C38.271919,83.9379714 29.1846375,80.1804304 22.4694857,73.494891 C16.0719238,66.941291 12.0149333,58.0449524 12.0149333,48.2167196 C12.0149333,38.2302815 16.0719238,29.3339429 22.4694857,22.9385481 C28.8670476,16.3849481 37.9172571,12.4839958 47.7476571,12.4839958 Z M47.7476571,12.9521101 C38.0732952,12.9521101 29.1791238,16.8530624 22.7815619,23.2506243 C16.384,29.6481862 12.4830476,38.3863196 12.4830476,48.2167196 C12.4830476,57.8910815 16.384,66.7830857 22.7815619,73.1828148 C29.1769566,79.4243386 38.0732952,83.4813291 47.7476571,83.4813291 C57.422019,83.4813291 66.3161905,79.4243386 72.7159196,73.1828148 C79.324025,66.5559756 83.0285795,57.5752374 83.0144339,48.2167196 C83.0144339,38.3863196 79.1113143,29.6481862 72.7159196,23.2484571 C66.0877909,16.6412209 57.1064737,12.9375287 47.7476571,12.9521101 L47.7476571,12.9521101 Z" id="Shape" fill="url(#linearGradient-2)" fill-rule="nonzero"></path>
            <path d="M47.7476571,1.40529101 C58.3582476,1.40529101 68.3446857,4.9941672 76.1465905,11.0796529 L75.9905524,11.235691 C67.8703997,5.05985491 57.9495114,1.71635114 47.7476571,1.7173672 C22.1574095,1.7173672 1.40434286,22.4682667 1.40434286,48.0606815 C1.40434286,73.6509291 22.1574095,94.5600339 47.7476571,94.5600339 C73.3379048,94.5600339 94.0909714,73.6509291 94.0909714,48.0606815 C94.0909714,37.7621672 90.8141714,28.2416762 85.0407619,20.4419386 L85.1968,20.2859005 C90.9702095,28.0899725 94.4030476,37.6061291 94.4030476,48.0606815 C94.4030476,61.0118434 89.0977524,72.7147005 80.6716952,81.1407577 C72.2434709,89.568982 60.698819,94.7182392 47.7476571,94.7182392 C35.4052646,94.7448499 23.5594226,89.8597656 14.823619,81.1407577 C6.3975619,72.5586624 1.09226667,61.0118434 1.09226667,48.0606815 C1.09226667,35.2655577 6.3975619,23.5627005 14.823619,15.1366434 C23.2496762,6.71058624 34.7964952,1.40529101 47.7476571,1.40529101 Z" id="Path" fill="url(#radialGradient-3)" fill-rule="nonzero"></path>
            <path d="M47.7476571,12.796072 C67.252419,12.796072 83.1683048,28.5559196 83.1683048,48.2188868 C83.1683048,67.7236487 67.252419,83.6395344 47.7476571,83.6395344 C28.2428952,83.6395344 12.3270095,67.7214815 12.3270095,48.2167196 C12.3270095,28.5559196 28.2428952,12.796072 47.7476571,12.796072 Z M47.7476571,17.789291 C31.051581,17.789291 17.4762667,31.3646053 17.4762667,48.2167196 C17.4762667,64.9106286 31.051581,78.4881101 47.7476571,78.4881101 C64.4437333,78.4881101 78.0190476,64.9106286 78.0190476,48.2167196 C78.0190476,31.3646053 64.4437333,17.789291 47.7476571,17.789291 Z" id="Shape" fill="url(#radialGradient-4)" fill-rule="nonzero"></path>
            <path d="M5.40498624,59.3062603 C5.40498624,59.3517714 5.41582222,59.390781 5.43966138,59.4297905 C5.45916614,59.4666328 5.49167407,59.4818032 5.53935238,59.4818032 C5.57402751,59.4818032 5.60436825,59.4731344 5.64121058,59.4557968 C5.68057141,59.4346162 5.71699908,59.4083883 5.74957037,59.3777778 L5.74957037,59.0331937 C5.61953862,59.0548656 5.5306836,59.0852063 5.4808381,59.1307175 C5.43171339,59.1757628 5.40412288,59.2396152 5.40498624,59.3062603 Z" id="Path" fill="url(#linearGradient-5)" fill-rule="nonzero" opacity="0.67"></path>
            <polygon id="Path" fill="url(#linearGradient-6)" fill-rule="nonzero" opacity="0.67" points="12.0105989 58.3201862 12.2294857 58.3201862 12.2294857 58.5043979 12.0105989 58.5043979"></polygon>
            <polygon id="Path" fill="url(#linearGradient-7)" fill-rule="nonzero" opacity="0.67" points="12.0105989 58.5412402 12.2294857 58.5412402 12.2294857 58.7297862 12.0105989 58.7297862"></polygon>
            <path d="M7.60035556,59.3062603 C7.60035556,59.3517714 7.61335873,59.390781 7.63503069,59.4297905 C7.65453545,59.4666328 7.68704339,59.4818032 7.73472169,59.4818032 C7.76939683,59.4818032 7.80190476,59.4731344 7.83657989,59.4557968 C7.87125503,59.4384593 7.90593016,59.4124529 7.94493968,59.3777778 L7.94493968,59.0331937 C7.81490794,59.0548656 7.72605291,59.0852063 7.67620741,59.1307175 C7.6270827,59.1757628 7.5994922,59.2396152 7.60035556,59.3062603 L7.60035556,59.3062603 Z" id="Path" fill="url(#linearGradient-5)" fill-rule="nonzero" opacity="0.67"></path>
            <polygon id="Path" fill="url(#linearGradient-8)" fill-rule="nonzero" opacity="0.67" points="12.9598307 58.6430984 13.5579767 58.6430984 13.5579767 58.9270011 12.9598307 58.9270011"></polygon>
            <path d="M19.0041397,57.6613587 L2.41208889,57.6613587 C2.82168889,59.6096677 3.38949418,61.4994624 4.03531852,63.3502476 L21.5679323,63.3502476 C20.5194438,61.5474358 19.6602731,59.6409919 19.0041397,57.6613587 Z M11.9304127,58.0232804 L12.0582772,58.1034667 L12.0127661,58.1554794 L12.0127661,58.2876783 L12.2208169,58.2876783 L12.266328,58.2139937 L12.3530159,58.3158519 L12.3075048,58.3678646 L12.3075048,58.5065651 L12.3313439,58.5065651 L12.3941926,58.4263788 L12.4852148,58.5434074 L12.3031704,58.5434074 L12.3075048,58.7926349 L12.2273185,58.8403132 L12.2273185,58.7666286 L12.0105989,58.7666286 L12.0105989,58.981181 L12.1753058,58.981181 L12.2316529,58.8923259 L12.3183407,59.0180233 L12.0105989,59.0180233 L12.0105989,59.2152381 L12.2793312,59.2152381 L12.3421799,59.1133799 L12.4397037,59.247746 L12.0105989,59.247746 C12.0105989,59.3300995 12.0127661,59.4189545 12.0214349,59.5121439 L11.9304127,59.5554878 C11.9347471,59.4427937 11.9390815,59.3409354 11.9390815,59.247746 L11.7093587,59.247746 C11.678968,59.246365 11.6488364,59.2538979 11.6226709,59.269418 L11.5706582,59.2109037 L11.9390815,59.2109037 L11.9390815,59.0136889 L11.7722074,59.0136889 C11.7396995,59.0136889 11.7201947,59.0201905 11.7028571,59.0353608 L11.657346,58.9790138 L11.9390815,58.9790138 L11.9390815,58.7644614 L11.7722074,58.7644614 C11.7396995,58.7644614 11.7201947,58.770963 11.7028571,58.7883005 L11.657346,58.727619 L11.9390815,58.727619 L11.9390815,58.539073 L11.6920212,58.539073 C11.6595132,58.539073 11.6400085,58.5455746 11.6248381,58.560745 L11.579327,58.5022307 L11.9412487,58.5022307 L11.9412487,58.3201862 L11.7830434,58.3201862 C11.7505354,58.3201862 11.7288635,58.328855 11.7136931,58.3440254 L11.668182,58.2855111 L11.9369143,58.2855111 C11.9383979,58.1980485 11.9362288,58.1105621 11.9304127,58.0232804 L11.9304127,58.0232804 Z M5.10374603,59.5251471 L4.6573037,59.5251471 L4.6573037,59.479636 L4.78950265,59.479636 C4.8111746,59.479636 4.82417778,59.4753016 4.83284656,59.4644656 C4.84151534,59.4536296 4.84368254,59.4406265 4.84368254,59.4211217 L4.84368254,58.3765333 C4.84464333,58.3613121 4.84085725,58.3461678 4.83284656,58.3331894 C4.82142933,58.3216476 4.80573016,58.3153679 4.78950265,58.3158519 L4.6594709,58.3158519 L4.6594709,58.2725079 L4.72448677,58.2725079 C4.79218661,58.2728284 4.85822832,58.2515736 4.9130328,58.2118265 L4.92386878,58.2118265 L4.92386878,59.4189545 C4.92386878,59.4384593 4.92820317,59.4536296 4.93687196,59.4622984 C4.94770794,59.4709672 4.95854392,59.4774688 4.97588148,59.4774688 L5.11024762,59.4774688 L5.11024762,59.5229799 L5.10374603,59.5229799 L5.10374603,59.5251471 Z M5.91861164,59.4861376 C5.89910688,59.5143111 5.87310053,59.5294815 5.84492698,59.5294815 C5.82196238,59.530662 5.79943439,59.5228937 5.78207831,59.5078095 C5.76461221,59.4864884 5.75269912,59.4611731 5.74740317,59.4341249 C5.71458728,59.4634737 5.67902621,59.4896002 5.64121058,59.5121439 C5.60415858,59.5303019 5.56326297,59.5392246 5.52201481,59.5381503 C5.46263454,59.5412943 5.40484469,59.5183366 5.36380952,59.4753016 C5.32669032,59.4388257 5.30629817,59.3886296 5.30746243,59.3366011 C5.30746243,59.247746 5.33780317,59.1762286 5.39631746,59.1177143 C5.45483175,59.0635344 5.57186032,59.0223577 5.74740317,58.9963513 L5.74740317,58.9074963 C5.74874356,58.8655281 5.73981626,58.8238673 5.72139683,58.7861333 C5.70189206,58.7514582 5.66504974,58.738455 5.60220106,58.738455 C5.53935238,58.738455 5.49167407,58.7514582 5.46783492,58.7817989 C5.44182857,58.8099725 5.4288254,58.8338116 5.43966138,58.8641524 C5.44610164,58.8831255 5.44610164,58.9036935 5.43966138,58.9226667 C5.43189031,58.9409439 5.41401046,58.9528638 5.39415026,58.9530074 C5.37982488,58.9533505 5.36617447,58.9469268 5.35730794,58.9356698 C5.346444,58.920463 5.34040332,58.902341 5.33997037,58.8836571 C5.33997037,58.838146 5.36597672,58.7969693 5.41365503,58.7557926 C5.46619298,58.7169138 5.53038457,58.697045 5.59569947,58.6994455 C5.67155132,58.6994455 5.73006561,58.7167831 5.76690794,58.7514582 C5.80808466,58.7904677 5.82325503,58.8403132 5.82325503,58.9074963 L5.82325503,59.390781 C5.82325503,59.4319577 5.82542222,59.4536296 5.83192381,59.4601312 C5.8384254,59.4666328 5.84709418,59.4709672 5.86443175,59.4709672 C5.88393651,59.4709672 5.89910688,59.4601312 5.90560847,59.4384593 C5.91211005,59.4167873 5.91644444,59.3864466 5.91644444,59.347437 L5.94461799,59.347437 C5.94678519,59.4124529 5.9381164,59.4601312 5.91861164,59.4861376 L5.91861164,59.4861376 Z M6.66195979,59.5251471 L6.42140106,59.5251471 L6.42140106,59.479636 L6.4517418,59.479636 C6.47124656,59.479636 6.48424974,59.4753016 6.49291852,59.4644656 C6.5015873,59.4536296 6.5015873,59.4427937 6.5015873,59.4232889 L6.5015873,58.9313354 C6.50440109,58.8848317 6.49467085,58.8384259 6.47341376,58.7969693 C6.45639036,58.7665041 6.42377171,58.7481038 6.38889312,58.749291 C6.34924906,58.7515186 6.31165435,58.7676306 6.28270053,58.7948021 C6.24129787,58.8295149 6.20738123,58.8722794 6.18300952,58.9204995 L6.18300952,59.4254561 C6.18300952,59.4449608 6.18734392,59.4601312 6.19817989,59.4688 C6.20684868,59.4774688 6.21985185,59.4839704 6.23502222,59.4839704 L6.26319577,59.4839704 L6.26319577,59.5294815 L6.02263704,59.5294815 L6.02263704,59.4839704 L6.05081058,59.4839704 C6.07248254,59.4839704 6.08548571,59.479636 6.0941545,59.4688 C6.10282328,59.457964 6.10499048,59.4449608 6.10499048,59.4254561 L6.10499048,58.7948021 C6.10499048,58.7817989 6.10282328,58.7666286 6.09848889,58.760127 C6.0941545,58.7536254 6.08548571,58.749291 6.07464974,58.749291 L6.02263704,58.749291 L6.02263704,58.7059471 L6.06381376,58.7059471 C6.08548571,58.7059471 6.10499048,58.7037799 6.12016085,58.6994455 C6.13533122,58.6951111 6.15483598,58.6842751 6.17000635,58.6669376 L6.18084233,58.6669376 L6.18084233,58.8359788 C6.20977819,58.7954514 6.24403865,58.7590041 6.28270053,58.727619 C6.31360878,58.7034266 6.35181134,58.6904377 6.39106032,58.6907767 C6.45607619,58.6907767 6.5037545,58.7124487 6.53409524,58.7536254 C6.56811801,58.8143287 6.58391931,58.8835535 6.57960635,58.9530074 L6.57960635,59.4211217 C6.57960635,59.4406265 6.58394074,59.4557968 6.59477672,59.4644656 C6.6056127,59.4731344 6.61861587,59.479636 6.63378624,59.479636 L6.66195979,59.479636 L6.66195979,59.5251471 L6.66195979,59.5251471 Z M7.2709418,59.4688 C7.23626667,59.5143111 7.19508995,59.5338159 7.13874286,59.5338159 C7.08239577,59.5338159 7.03905185,59.5121439 7.01087831,59.4688 C6.98270476,59.4254561 6.9653672,59.3561058 6.9653672,59.2629164 L6.9653672,58.7514582 L6.80066032,58.7514582 L6.80066032,58.7081143 L6.84617143,58.7081143 C6.89028464,58.7093279 6.93226427,58.6891454 6.95886561,58.6539344 C6.98920635,58.6170921 7.00437672,58.560745 7.0130455,58.4827259 L7.01737989,58.4263788 L7.05205503,58.4263788 L7.05205503,58.7102815 L7.27961058,58.7102815 L7.27961058,58.7536254 L7.05205503,58.7536254 L7.05205503,59.2954243 C7.05205503,59.3647746 7.06289101,59.4124529 7.08239577,59.4341249 C7.10190053,59.4601312 7.12790688,59.4709672 7.1690836,59.4709672 C7.20510396,59.4718737 7.2392188,59.4548163 7.26010582,59.4254561 C7.2852507,59.3846894 7.30081216,59.338746 7.30561693,59.2910899 L7.33595767,59.3062603 C7.3274958,59.3648331 7.30520929,59.4205494 7.2709418,59.4688 L7.2709418,59.4688 Z M8.11398095,59.4861376 C8.09447619,59.5143111 8.07063704,59.5294815 8.0402963,59.5294815 C8.01428995,59.5294815 7.99478519,59.5229799 7.97961481,59.5078095 C7.96227725,59.4926392 7.95144127,59.4666328 7.94277249,59.4341249 C7.90995659,59.4634737 7.87439552,59.4896002 7.83657989,59.5121439 C7.80032743,59.5303745 7.76011299,59.5393111 7.71955132,59.5381503 C7.6638405,59.5410973 7.60931872,59.5213097 7.56846623,59.4833168 C7.52761374,59.445324 7.50392835,59.392379 7.50283175,59.3366011 C7.50166304,59.254631 7.53371392,59.1756764 7.59168677,59.1177143 C7.65020106,59.0635344 7.76722963,59.0223577 7.94277249,58.9963513 L7.94277249,58.9074963 C7.94411288,58.8655281 7.93518557,58.8238673 7.91676614,58.7861333 C7.89942857,58.7514582 7.86041905,58.738455 7.79973757,58.738455 C7.73472169,58.738455 7.68704339,58.7514582 7.66320423,58.7817989 C7.63719788,58.8099725 7.6263619,58.8338116 7.63503069,58.8641524 C7.64153228,58.8858243 7.64153228,58.9053291 7.63503069,58.9226667 C7.6285291,58.9400042 7.61119153,58.9530074 7.58951958,58.9530074 C7.57519419,58.9533505 7.56154378,58.9469268 7.55267725,58.9356698 C7.54258084,58.9202173 7.53730085,58.9021145 7.53750688,58.8836571 C7.53750688,58.838146 7.56134603,58.7969693 7.61119153,58.7557926 C7.66348589,58.716435 7.7278516,58.6965123 7.79323598,58.6994455 C7.86692063,58.6994455 7.92760212,58.7167831 7.96444444,58.7514582 C8.00345397,58.7904677 8.01862434,58.8403132 8.01862434,58.9074963 L8.01862434,59.390781 C8.01862434,59.4319577 8.02079153,59.4536296 8.02729312,59.4601312 C8.03379471,59.4666328 8.04246349,59.4709672 8.06196825,59.4709672 C8.08147302,59.4709672 8.09447619,59.4601312 8.10097778,59.4384593 C8.10747937,59.4167873 8.11181376,59.3864466 8.11181376,59.347437 L8.1399873,59.347437 C8.14486207,59.3952105 8.13583121,59.443375 8.11398095,59.4861376 L8.11398095,59.4861376 Z M8.82482116,58.8576508 C8.81615238,58.8749884 8.80098201,58.8814899 8.78147725,58.8814899 C8.75980529,58.8814899 8.74463492,58.8749884 8.73596614,58.8576508 C8.72607198,58.8406345 8.72297547,58.8205071 8.72729735,58.8013037 L8.72296296,58.7622942 C8.72079577,58.7557926 8.70995979,58.749291 8.69045503,58.749291 C8.65794709,58.749291 8.62327196,58.7731302 8.57776085,58.8229757 C8.52682994,58.8841061 8.48720087,58.9538239 8.46073228,59.0288593 L8.46073228,59.4254561 C8.46073228,59.4449608 8.46506667,59.4601312 8.47373545,59.4688 C8.48240423,59.4774688 8.49540741,59.4839704 8.51274497,59.4839704 L8.63844233,59.4839704 L8.63844233,59.5294815 L8.21800635,59.5294815 L8.21800635,59.4839704 L8.33503492,59.4839704 C8.35453968,59.4839704 8.36754286,59.479636 8.37621164,59.4688 C8.38488042,59.457964 8.38704762,59.4449608 8.38704762,59.4254561 L8.38704762,58.8186413 C8.38727494,58.8021133 8.38356035,58.7857691 8.37621164,58.770963 C8.36754286,58.760127 8.35453968,58.7536254 8.33503492,58.7536254 L8.21800635,58.7536254 L8.21800635,58.7102815 L8.26351746,58.7102815 C8.32631536,58.7106875 8.38844433,58.6973742 8.4455619,58.671272 L8.46289947,58.671272 L8.46289947,58.9356698 C8.49472101,58.8697962 8.53637375,58.8091439 8.58642963,58.7557926 C8.62112584,58.7181668 8.66962741,58.6962629 8.72079577,58.6951111 C8.75980529,58.6951111 8.78797884,58.7059471 8.80965079,58.727619 C8.83132275,58.749291 8.84215873,58.770963 8.84215873,58.8013037 C8.83999153,58.8273101 8.83565714,58.8468148 8.82482116,58.8576508 L8.82482116,58.8576508 Z M10.439382,59.247746 L10.439382,59.5403175 C10.439382,59.6421757 10.3960381,59.7136931 10.3136847,59.7527026 C10.3115175,59.6811852 10.250836,59.6270053 10.1359746,59.5944974 L10.1359746,59.5641566 L10.3006815,59.5814942 C10.3375238,59.5836614 10.350527,59.5533206 10.350527,59.490472 L10.350527,59.247746 L9.89108148,59.247746 C9.85167347,59.2465254 9.81247397,59.2539216 9.77622011,59.269418 L9.73070899,59.2130709 L10.3526942,59.2130709 L10.3483598,59.0006857 L10.4220444,59.0440296 L10.5737481,58.8771556 L10.1034667,58.8771556 L10.0536212,58.8988275 L10.0081101,58.8403132 L10.5737481,58.8403132 L10.6365968,58.7666286 L10.738455,58.9118307 C10.6864423,58.9031619 10.5889185,58.9530074 10.4415492,59.0657016 L10.4978963,59.1025439 L10.4415492,59.148055 L10.4415492,59.2109037 L10.8251429,59.2109037 L10.9053291,59.1090455 L11.0201905,59.247746 L10.439382,59.247746 Z M11.0223577,58.8099725 C10.9681778,58.8099725 10.9226667,58.8403132 10.8966603,58.8988275 C10.6735626,58.7857198 10.5078088,58.5846158 10.439382,58.3440254 L10.4068741,58.3440254 C10.4068741,58.5694138 10.4090413,58.7081143 10.4112085,58.7514582 L10.3136847,58.7839661 C10.318019,58.6756063 10.3201862,58.5434074 10.3201862,58.3787005 C10.1947606,58.6411415 9.98276586,58.8523709 9.71987302,58.9768466 L9.71553862,58.9443386 C9.94499174,58.7985117 10.1271832,58.5892174 10.24,58.3418582 L9.88674709,58.3418582 C9.84733908,58.3406376 9.80813957,58.3480337 9.77188571,58.3635302 L9.7263746,58.3050159 L10.3201862,58.3050159 L10.3136847,58.0427852 L10.461054,58.1229714 L10.4068741,58.1728169 L10.4068741,58.3050159 L10.8273101,58.3050159 L10.9074963,58.2031577 L11.0093545,58.3418582 L10.4675556,58.3418582 C10.5602259,58.5769964 10.7721145,58.7441898 11.0223577,58.7796317 L11.0223577,58.8099725 L11.0223577,58.8099725 Z M12.498218,59.5988317 C12.4223661,59.6291725 12.3855238,59.6616804 12.3941926,59.7093587 C12.2743138,59.7137065 12.1543169,59.7137065 12.0344381,59.7093587 C11.9158418,59.7077586 11.7987331,59.6827165 11.689854,59.6356741 C11.599762,59.5971663 11.5191487,59.5394797 11.4536296,59.4666328 C11.3867143,59.5804017 11.2948239,59.6774795 11.1848974,59.7505354 L11.1675598,59.7288635 C11.2712515,59.6373216 11.3546659,59.5251182 11.4124529,59.3994497 C11.3495745,59.2822649 11.3036071,59.1567665 11.2759196,59.0266921 L11.2997587,59.0136889 C11.3349828,59.1205315 11.3807178,59.2236167 11.4362921,59.3214307 C11.4753016,59.1935661 11.5013079,59.0266921 11.5164783,58.8251429 L11.3496042,58.8251429 L11.3040931,58.9053291 L11.2260741,58.8034709 L11.2932571,58.7644614 C11.3621796,58.6232346 11.4272199,58.480146 11.4883048,58.3353566 L11.3019259,58.3353566 L11.2369101,58.3570286 L11.1913989,58.2985143 L11.4969735,58.2985143 L11.546819,58.218328 L11.6270053,58.3375238 L11.5641566,58.3743661 C11.5013079,58.5065651 11.4297905,58.6452656 11.358273,58.7904677 L11.5121439,58.7904677 L11.557655,58.7254519 L11.6443429,58.8273101 L11.5944974,58.8771556 C11.5780817,59.0499604 11.5439496,59.2206207 11.4926392,59.3864466 C11.5464195,59.4506205 11.6169355,59.4986314 11.6963556,59.5251471 C11.7946767,59.5602868 11.8976427,59.5807339 12.0019302,59.5858286 C12.1167915,59.5966646 12.2836656,59.5858286 12.5047196,59.568491 L12.498218,59.5988317 L12.498218,59.5988317 Z M13.9068952,59.5836614 C13.8397122,59.5988317 13.7985354,59.6356741 13.7876995,59.7028571 C13.6881873,59.6646535 13.5930183,59.6159793 13.5037968,59.557655 C13.4184966,59.4971476 13.3450376,59.4214848 13.2870772,59.3344339 C13.21605,59.2217935 13.1667966,59.096822 13.1418751,58.9660106 L12.9598307,58.9660106 L12.9598307,59.5511534 L13.2675725,59.3821122 L13.2784085,59.4037841 C13.1416563,59.4831764 13.0216725,59.5884383 12.9251556,59.7136931 L12.8579725,59.590163 C12.8750081,59.5635347 12.8847256,59.5328873 12.886146,59.5013079 L12.886146,58.4458836 C12.886146,58.3678646 12.8839788,58.3006815 12.8796444,58.2421672 L12.9598307,58.3136847 L13.2502349,58.3136847 C13.238556,58.22256 13.2051051,58.1355877 13.1527111,58.0601228 L13.1635471,58.0362836 C13.2589037,58.0904635 13.3130836,58.1381418 13.3260868,58.1814857 C13.3390899,58.2248296 13.3260868,58.2703407 13.2870772,58.3136847 L13.5449735,58.3136847 L13.5904847,58.2421672 L13.6815069,58.3440254 L13.6294942,58.3873693 L13.6294942,58.8034709 L13.6338286,58.9941841 L13.5536423,59.0310265 L13.5536423,58.9660106 L13.1765503,58.9660106 C13.210611,59.0796952 13.2625512,59.1872333 13.3304212,59.2845884 C13.4657836,59.2096117 13.5862492,59.1104479 13.6858413,58.9920169 L13.7703619,59.137219 L13.7031788,59.137219 C13.5883175,59.1870646 13.4756233,59.2499132 13.3542603,59.3105947 C13.4255653,59.395166 13.5173334,59.4600752 13.6208254,59.4991407 C13.71311,59.5332503 13.8106764,59.5508563 13.9090624,59.5511534 L13.9068952,59.5836614 L13.9068952,59.5836614 Z" id="Shape" fill="url(#linearGradient-9)" fill-rule="nonzero" opacity="0.67"></path>
            <polygon id="Path" fill="url(#linearGradient-10)" fill-rule="nonzero" opacity="0.67" points="12.9598307 58.350527 13.5579767 58.350527 13.5579767 58.6062561 12.9598307 58.6062561"></polygon>
            <path d="M76.5150138,57.6613587 L93.1048974,57.6613587 C92.6884898,59.5910319 92.1462548,61.4913883 91.4816677,63.3502476 L73.949054,63.3502476 C74.9893079,61.5579767 75.8561862,59.6595132 76.5150138,57.6613587 Z" id="Path" fill="url(#linearGradient-9)" fill-rule="nonzero" opacity="0.86"></path>
            <path d="M93.9349333,36.3578243 C95.0272,40.1049058 95.4953143,44.003691 95.4953143,48.0606815 C95.4953143,52.2737101 94.8711619,56.3285333 93.9349333,60.2316529 L1.71641905,60.2316529 L1.71641905,60.0756148 L93.7788952,60.0756148 C94.8711619,56.1746624 95.3392762,52.117672 95.3392762,47.9046434 C95.3392762,43.8476529 94.8711619,39.9467005 93.9349333,36.3578243 Z" id="Path" fill="#000000" fill-rule="nonzero"></path>
            <path d="M1.56038095,36.2017862 L93.9349333,36.2017862 C94.8711619,39.9467005 95.337109,43.8454857 95.337109,47.9024762 C95.337109,52.1155048 94.8689947,56.1724952 93.776728,60.0734476 L1.71641905,60.0734476 C0.589710409,56.1149227 0.0121712948,52.0203746 0,47.9046434 C0,43.8476529 0.624152381,39.9467005 1.56038095,36.2017862 L1.56038095,36.2017862 Z" id="Path" fill="url(#radialGradient-11)" fill-rule="nonzero"></path>
            <polygon id="Path" fill="url(#linearGradient-12)" fill-rule="nonzero" points="83.0122667 2.96350476 93.310781 13.2641862 85.6649143 20.9100529 86.1330286 21.5342053 80.6716952 25.9011048 78.9552762 26.5274243 90.190019 15.1366434 81.1398095 6.08643386 69.9050667 17.3211767 70.373181 15.7607958"></polygon>
            <path d="M72.7137524,1.87340529 C81.7639619,6.71058624 89.0977524,14.2004148 94.0888042,23.0945862 L94.0888042,1.87340529 L72.7137524,1.87340529 Z" id="Path" fill="url(#radialGradient-13)" fill-rule="nonzero"></path>
            <path d="M72.7137524,1.87340529 C81.7639619,6.71058624 89.0977524,14.2004148 94.0888042,23.0945862" id="Path" stroke="#A7A79C" stroke-width="0.34" stroke-linecap="round"></path>
            <path d="M72.7137524,1.87340529 C81.6705188,6.77325268 89.0350859,14.1378198 93.9349333,23.0945862" id="Path" stroke="#C2C2B9" stroke-width="0.236" stroke-linecap="round"></path>
            <path d="M72.5577143,1.87340529 C81.6079238,6.71058624 88.9417143,14.2004148 93.9349333,23.2506243" id="Path" stroke="#E0E0D8" stroke-width="0.132" stroke-linecap="round"></path>
            <path d="M72.5577143,1.87340529 C81.4518857,6.86879153 88.9417143,14.2004148 93.7788952,23.2506243" id="Path" stroke="#FFFFFF" stroke-width="0.028" stroke-linecap="round"></path>
            <path d="M94.0909714,1.40529101 C94.2470095,1.40529101 94.4052148,1.5613291 94.4052148,1.87340529 L72.399509,1.87340529 C72.4016762,1.5613291 72.5577143,1.40529101 72.7137524,1.40529101 L94.0909714,1.40529101 Z" id="Path" fill="url(#linearGradient-14)" fill-rule="nonzero"></path>
            <path d="M94.4030476,23.0945862 C94.4030476,23.4088296 94.2470095,23.5648677 94.0888042,23.5648677 L93.9349333,23.2506243 L93.9349333,1.40529101 L94.0888042,1.40529101 C94.2448423,1.40529101 94.4030476,1.5613291 94.4030476,1.87340529 L94.4030476,23.0945862 Z" id="Path" fill="url(#linearGradient-15)" fill-rule="nonzero"></path>
            <g id="Group" transform="translate(6.501587, 40.414815)" fill-rule="nonzero">
                <path d="M74.6382222,13.4842921 C70.472872,13.4842921 67.085545,10.9335026 67.085545,7.80190476 C67.085545,4.66813968 70.472872,2.11951746 74.6382222,2.11951746 C78.8902603,2.11951746 82.3491048,4.66813968 82.3491048,7.80190476 C82.3491048,10.9356698 78.8902603,13.4842921 74.6382222,13.4842921 Z M74.6382222,3.80993016 C73.1406899,3.80993016 72.0505905,5.48950688 72.0505905,7.80407196 C72.0505905,9.99077249 73.1645291,11.6400085 74.6382222,11.6400085 C76.0382307,11.6400085 77.225854,9.8824127 77.225854,7.80407196 C77.2280212,5.60003386 76.064237,3.80993016 74.6382222,3.80993016 Z M27.2026413,13.4842921 C23.0351238,13.4842921 19.6477968,10.9335026 19.6477968,7.80190476 C19.6477968,4.80467302 23.1066413,2.27338836 27.2026413,2.27338836 C31.4546794,2.27338836 34.9135238,4.75482751 34.9135238,7.80190476 C34.9135238,10.9356698 31.4546794,13.4842921 27.2026413,13.4842921 Z M27.2026413,3.96596825 C25.7246138,3.96596825 24.6150095,5.61520423 24.6150095,7.80407196 C24.6150095,9.99077249 25.7289481,11.6400085 27.2026413,11.6400085 C28.6026497,11.6400085 29.7881058,9.8824127 29.7881058,7.80407196 C29.7881058,5.72573122 28.6069841,3.96596825 27.2026413,3.96596825 L27.2026413,3.96596825 Z M54.9774222,13.1722159 L50.0838942,4.08949841 L47.6457989,4.12634074 L47.5807831,2.65698201 L58.2563894,2.59196614 L58.3214053,4.06132487 L55.6037418,4.12634074 L59.4050032,10.4263788 L62.5669418,4.03098413 L60.7529989,4.12417354 L60.6879831,2.65481481 L68.0867894,2.58979894 L68.1518053,4.05915767 L65.5901799,4.12417354 L60.7920085,13.1743831 L54.9774222,13.1743831 L54.9774222,13.1722159 Z M35.4726603,13.1722159 L35.4076444,11.390781 L37.971437,11.3279323 L37.9064212,4.05915767 L35.4748275,4.12417354 L35.4098116,2.65481481 L45.3052275,2.58979894 L45.3702434,4.05915767 L42.8064508,4.12417354 L42.8714667,11.3929481 L45.4590984,11.3300995 C46.2999704,11.3300995 48.5148444,10.7796317 48.6687153,8.27001905 L50.2941122,8.20933757 L50.359128,13.1765503 L35.4726603,13.1765503 L35.4726603,13.1722159 Z M7.54184127,13.1722159 L2.64831323,4.08949841 L0.210217989,4.12634074 L0.145202116,2.65698201 L10.8208085,2.59196614 L10.8858243,4.06132487 L8.16816085,4.12634074 L11.9694222,10.4263788 L15.2895661,4.03098413 L13.317418,4.12634074 L13.2524021,2.65698201 L20.6512085,2.59196614 L20.7162243,4.06132487 L18.1524317,4.12634074 L13.3542603,13.1765503 L7.54184127,13.1722159 L7.54184127,13.1722159 Z" id="Shape" fill="#FFFFFF"></path>
                <path d="M74.6382222,2.18453333 C78.8512508,2.18453333 82.2840889,4.68114286 82.2840889,7.80407196 C82.2840889,10.9226667 78.8512508,13.4214434 74.6382222,13.4214434 C70.5812317,13.4214434 67.1483937,10.9248339 67.1483937,7.80407196 C67.1483937,4.68114286 70.5812317,2.18453333 74.6382222,2.18453333 L74.6382222,2.18453333 Z M74.6382222,11.7028571 C76.0403979,11.7028571 77.2908698,9.9864381 77.2908698,7.80190476 C77.2908698,5.46133333 76.0425651,3.74491429 74.6382222,3.74491429 C73.0778413,3.74491429 71.9834074,5.46133333 71.9834074,7.80190476 C71.9855746,9.9864381 73.0778413,11.7028571 74.6382222,11.7028571 L74.6382222,11.7028571 Z M27.2026413,2.34057143 C31.4135026,2.34057143 34.8463407,4.83718095 34.8463407,7.80407196 C34.8463407,10.9226667 31.4135026,13.4214434 27.2026413,13.4214434 C23.1456508,13.4214434 19.7128127,10.9248339 19.7128127,7.80407196 C19.7128127,4.83718095 23.1456508,2.34057143 27.2026413,2.34057143 L27.2026413,2.34057143 Z M27.2026413,11.7028571 C28.6048169,11.7028571 29.8552889,9.9864381 29.8552889,7.80190476 C29.8552889,5.61520423 28.6069841,3.89878519 27.2026413,3.89878519 C25.6400931,3.89878519 24.5478265,5.61520423 24.5478265,7.80190476 C24.5499937,9.9864381 25.6422603,11.7028571 27.2026413,11.7028571 L27.2026413,11.7028571 Z M68.0846222,2.65264762 L68.0846222,4.05482328 L65.5901799,4.05482328 L60.7529989,13.1050328 L54.9795894,13.1050328 L50.1445757,4.05482328 L47.6479661,4.05482328 L47.6479661,2.65264762 L58.2585566,2.65264762 L58.2585566,4.05482328 L55.605909,4.05482328 L59.3529905,10.4523852 L62.6297905,4.05482328 L60.7573333,4.05482328 L60.7573333,2.65264762 L68.0846222,2.65264762 L68.0846222,2.65264762 Z M45.3030603,2.65264762 L45.3030603,4.05482328 L42.8064508,4.05482328 L42.8064508,11.3886138 L45.4612656,11.3886138 C46.3974942,11.3886138 48.5798603,10.7644614 48.7380656,8.27001905 L50.2984466,8.27001905 L50.2984466,13.1050328 L35.4726603,13.1050328 L35.4726603,11.3886138 L37.9692698,11.3886138 L37.9692698,4.05482328 L35.4726603,4.05482328 L35.4726603,2.65264762 L45.3030603,2.65264762 L45.3030603,2.65264762 Z M20.6490413,2.65264762 L20.6490413,4.05482328 L18.1524317,4.05482328 L13.317418,13.1050328 L7.54184127,13.1050328 L2.70466032,4.05482328 L0.208050794,4.05482328 L0.208050794,2.65264762 L10.8186413,2.65264762 L10.8186413,4.05482328 L8.16599365,4.05482328 L11.9109079,10.4523852 L15.343746,4.05482328 L13.3152508,4.05482328 L13.3152508,2.65264762 L20.6490413,2.65264762 L20.6490413,2.65264762 Z M74.6382222,2.05450159 C70.4381968,2.05450159 67.0161947,4.63129735 67.0161947,7.80190476 C67.0161947,10.970345 70.4338624,13.5471407 74.6382222,13.5471407 C78.9271026,13.5471407 82.4141206,10.9725122 82.4141206,7.80190476 C82.4141206,4.62913016 78.9249354,2.05450159 74.6382222,2.05450159 Z M74.6382222,11.5728254 C73.1992042,11.5728254 72.1156063,9.95176296 72.1156063,7.80407196 C72.1156063,5.52634921 73.1753651,3.87711323 74.6382222,3.87711323 C76.0295619,3.87711323 77.1608381,5.63904339 77.1608381,7.80407196 C77.1608381,9.84557037 76.0057228,11.5728254 74.6382222,11.5728254 Z M27.2026413,2.21053968 C23.0719661,2.21053968 19.5806138,4.77216508 19.5806138,7.80190476 C19.5806138,10.970345 22.9982815,13.5471407 27.2026413,13.5471407 C31.4915217,13.5471407 34.9785397,10.9725122 34.9785397,7.80190476 C34.9785397,4.71798519 31.4915217,2.21053968 27.2026413,2.21053968 Z M27.2026413,11.5728254 C25.7636233,11.5728254 24.6800254,9.95176296 24.6800254,7.80407196 C24.6800254,5.65421376 25.7636233,4.03315132 27.2026413,4.03315132 C28.5701418,4.03315132 29.7230899,5.76040635 29.7230899,7.80407196 C29.7252571,9.84557037 28.5701418,11.5728254 27.2026413,11.5728254 Z M68.214654,2.52261587 L60.6186328,2.52261587 L60.6186328,4.18918942 L62.4087365,4.18918942 L59.3399873,10.1858201 L55.8312974,4.18702222 L58.3885884,4.18702222 L58.3885884,2.52044868 L47.5157672,2.52044868 L47.5157672,4.18702222 L50.0622222,4.18702222 L54.8625608,13.1678815 L54.8994032,13.2372317 L60.8288508,13.2372317 L60.8656931,13.1678815 L65.6681989,4.18702222 L68.2168212,4.18702222 L68.2168212,2.52261587 L68.214654,2.52261587 L68.214654,2.52261587 Z M45.4330921,2.52261587 L35.3426286,2.52261587 L35.3426286,4.18918942 L37.8392381,4.18918942 L37.8392381,11.2629164 L35.3426286,11.2629164 L35.3426286,13.2415661 L50.4284783,13.2415661 L50.4284783,8.1421545 L48.6145354,8.1421545 L48.6058667,8.26568466 C48.4519958,10.7254519 46.2826328,11.2650836 45.4590984,11.2650836 L42.9364825,11.2650836 L42.9364825,4.19135661 L45.4330921,4.19135661 L45.4330921,2.52261587 L45.4330921,2.52261587 Z M20.779073,2.52261587 L13.185219,2.52261587 L13.185219,4.18918942 L15.1270265,4.18918942 L11.9065735,10.1923217 L8.39354921,4.18918942 L10.9530074,4.18918942 L10.9530074,2.52261587 L0.0780190476,2.52261587 L0.0780190476,4.18918942 L2.62664127,4.18918942 L7.42914709,13.1700487 L7.46598942,13.2393989 L13.3932698,13.2393989 L13.4301122,13.1700487 L18.2304508,4.18918942 L20.779073,4.18918942 L20.779073,2.52261587 L20.779073,2.52261587 Z" id="Shape" fill="#39393C"></path>
            </g>
            <path d="M1.72942222,36.3816635 C0.793193651,40.1265778 0.16904127,44.025363 0.16904127,48.0823534 C0.16904127,48.4182688 0.283902646,50.4055873 0.294738624,50.7415026 L0.565638095,53.756072 C0.561303704,53.513346 0.439940741,48.6003132 0.439940741,48.3554201 C0.439940741,44.2984296 1.11610582,40.538345 2.05233439,36.7912635 L34.7401481,36.6568974 L48.8485926,36.3859979 L1.72942222,36.3816635 L1.72942222,36.3816635 Z" id="Path" fill="url(#linearGradient-16)" fill-rule="nonzero"></path>
        </g>
    </g>
</svg>