<?xml version="1.0" encoding="UTF-8"?>
<svg width="128px" height="128px" viewBox="0 0 128 128" version="1.1" xmlns="http://www.w3.org/2000/svg" xmlns:xlink="http://www.w3.org/1999/xlink">
    <!-- Generator: Sketch 54.1 (76490) - https://sketchapp.com -->
    <title>znipe-logo</title>
    <desc>Created with Sketch.</desc>
    <g id="znipe" stroke="none" stroke-width="1" fill="none" fill-rule="evenodd">
        <g transform="translate(0.000000, 52.000000)" fill-rule="nonzero">
            <polygon id="Path" fill="#1C84DE" points="0 22.5127358 0 0 22.2470845 0 20.2398118 2.03888941 2.00725904 2.03888941 2.00725904 17.5429134 13.7999059 5.6069339 3.59633455 5.6069339 3.59633455 3.61053091 18.6925861 3.61053091"></polygon>
            <polygon id="Path" fill="#1C84DE" points="23.5016214 23.872 1.2545369 23.872 3.21997348 21.8331037 21.4525947 21.8331037 21.4525947 6.3290661 9.70171551 18.2225455 19.9889455 18.2225455 19.9889455 20.2614417 4.80905583 20.2614417 23.5016214 1.40175743"></polygon>
            <polygon id="Path" fill="#2E3336" points="31.4754053 18.2023529 38.7777027 7.54522353 38.7777027 7.46000428 32.1888513 7.46000428 32.1888513 4.5612492 43.3102032 4.5612492 43.3102032 6.60741476 36.1757433 17.1366674 36.1757433 17.2218866 43.4360813 17.2218866 43.4360813 20.1206417 31.4754053 20.1206417"></polygon>
            <path d="M46.793446,20.2912171 L46.793446,4.73178353 L50.8222973,4.73178353 L54.0118246,10.4439786 C54.9350674,12.0638973 55.8164193,14.0248299 56.5298652,15.7725433 L56.613784,15.7725433 C56.4039187,13.7263914 56.32,11.6375957 56.32,9.29300535 L56.32,4.73178353 L59.5095273,4.73178353 L59.5095273,20.2912171 L55.8583786,20.2912171 L52.5849326,14.2805561 C51.6616214,12.618062 50.6964193,10.6144856 49.9410139,8.78148449 L49.8570267,8.82412834 C49.9410139,10.8702802 49.9829733,13.086939 49.9829733,15.6020364 L49.9829733,20.2912171 L46.793446,20.2912171 Z" id="Path" fill="#2E3336"></path>
            <polygon id="Path" fill="#2E3336" points="67.1056086 4.5612492 67.1056086 20.1206417 63.6222973 20.1206417 63.6222973 4.5612492"></polygon>
            <path d="M71.2604064,4.77435209 C72.3097326,4.60383829 73.8204064,4.43332449 75.9190588,4.43332449 C78.0587807,4.43332449 79.570139,4.85960556 80.5770267,5.66955123 C81.5421604,6.43685989 82.2136471,7.75837433 82.2136471,9.2503615 C82.2136471,10.7423487 81.7105455,12.0638289 80.7871658,12.9590075 C79.611893,14.1099807 77.8493262,14.5789262 75.7931123,14.5789262 C75.3310802,14.5789262 74.9114866,14.5362824 74.6178396,14.4936385 L74.6178396,20.035354 L71.1762139,20.035354 L71.1762139,4.77435209 L71.2604064,4.77435209 Z M74.7020321,11.8506781 C74.9956791,11.9359658 75.3735187,11.9359658 75.8766203,11.9359658 C77.7233797,11.9359658 78.8562139,10.9981433 78.8562139,9.3782246 C78.8562139,7.92888128 77.8910802,7.07627807 76.1702674,7.07627807 C75.4570267,7.07627807 74.9956791,7.16156578 74.7437861,7.20414118 L74.7437861,11.8506781 L74.7020321,11.8506781 Z" id="Shape" fill="#2E3336"></path>
            <polygon id="Path" fill="#2E3336" points="94.1744599 13.5558845 88.5506738 13.5558845 88.5506738 17.2645305 94.8459465 17.2645305 94.8459465 20.1632856 85.0679786 20.1632856 85.0679786 4.5612492 94.5105455 4.5612492 94.5105455 7.46000428 88.5506738 7.46000428 88.5506738 10.6571294 94.1744599 10.6571294"></polygon>
            <path d="M97.4477005,18.927093 C97.4477005,18.0744898 98.0356791,17.4776813 98.7906738,17.4776813 C99.5463529,17.4776813 100.133647,18.0744898 100.133647,18.927093 C100.133647,19.736984 99.6305455,20.3764364 98.7906738,20.3764364 C97.9939251,20.3764364 97.4477005,19.736984 97.4477005,18.927093 Z" id="Path" fill="#2E3336"></path>
            <polygon id="Path" fill="#2E3336" points="107.645947 6.26638717 102.987294 6.26638717 102.987294 4.5612492 114.318374 4.5612492 114.318374 6.26638717 109.660406 6.26638717 109.660406 20.1206417 107.645947 20.1206417"></polygon>
            <path d="M120.32,20.1206417 L115.325947,4.5612492 L117.466353,4.5612492 L119.858652,12.2344043 C120.530139,14.3232 121.075679,16.2414888 121.495273,18.031846 L121.537027,18.031846 C121.95662,16.2414888 122.586353,14.2805561 123.299594,12.2344043 L125.901348,4.5612492 L128,4.5612492 L122.543914,20.1206417 L120.32,20.1206417 Z" id="Path" fill="#2E3336"></path>
        </g>
    </g>
</svg>